<svg width="540" height="400" viewBox="0 0 540 400" fill="none" xmlns="http://www.w3.org/2000/svg">
<path opacity="0.15" d="M506.048 57.2695L273.286 191.746L202.429 150.603L430.618 17.2695L506.048 57.2695Z" fill="url(#paint0_linear_1_907)"/>
<path opacity="0.25" d="M273.286 191.747L130.429 109.081L130.429 268.891L273.286 354.795L273.286 191.747Z" fill="url(#paint1_linear_1_907)"/>
<path opacity="0.25" d="M343.048 247.769L451.048 308.551V117.27L343.048 51.5098V247.769Z" fill="url(#paint2_linear_1_907)"/>
<path opacity="0.25" d="M394.429 261.664L332.714 298.414V198.218L394.429 163.557V261.664Z" fill="url(#paint3_linear_1_907)"/>
<path opacity="0.25" d="M273.286 213.278L432.524 305.081V138.032L273.286 45.8418V213.278Z" fill="url(#paint4_linear_1_907)"/>
<path opacity="0.25" d="M50.0479 320.811L273.286 191.746L330.048 224.127L104.143 359.365L50.0479 320.811Z" fill="url(#paint5_linear_1_907)"/>
<path opacity="0.15" d="M226.048 164.316L103.381 234.031V330.031L308.715 212.316L226.048 164.316Z" fill="url(#paint6_linear_1_907)"/>
<path opacity="0.25" d="M273.286 246.423L214.619 280.888V157.835L273.286 123.936V246.423Z" fill="url(#paint7_linear_1_907)"/>
<path d="M74.8095 76.6987L258.048 182.985" stroke="url(#paint8_linear_1_907)"/>
<path d="M505.672 324.317L317.862 217.65" stroke="url(#paint9_linear_1_907)"/>
<path d="M69.0949 309.461L226.821 218.425" stroke="url(#paint10_linear_1_907)"/>
<path d="M273.436 143.484L273.148 51.5566" stroke="url(#paint11_linear_1_907)"/>
<path d="M232.905 159.748L177.667 191.747" stroke="url(#paint12_linear_1_907)" stroke-width="0.380952"/>
<path d="M71.3926 308.139L71.3926 310.805L69.1069 312.139L66.8211 310.805L66.8211 308.139L69.1069 306.805L71.3926 308.139Z" fill="#A653E4"/>
<path d="M364.833 193.643L311.5 224.5" stroke="url(#paint13_linear_1_907)"/>
<path d="M242.809 186.043L189.095 216.9V308.329L132.714 342.157" stroke="url(#paint14_linear_1_907)" stroke-width="0.761905" stroke-miterlimit="10"/>
<path d="M131.952 342.602V340.317L133.857 339.174L135.762 340.317V342.602L133.857 343.745L131.952 342.602Z" fill="#A653E4"/>
<path d="M409.667 101.474L347.571 137.283L347.571 205.474L286.238 240.521" stroke="url(#paint15_linear_1_907)" stroke-miterlimit="10"/>
<path d="M411.19 100.52L411.19 102.235L409.667 103.187L408.143 102.235L408.143 100.52L409.667 99.5674L411.19 100.52Z" fill="#A653E4"/>
<path d="M205.476 149.091L205.476 152.138L202.809 153.662L200.143 152.138L200.143 149.091L202.809 147.567L205.476 149.091Z" fill="#A653E4"/>
<path opacity="0.5" d="M103.762 91.6307L105.286 92.5455L105.286 94.3993L103.762 95.3136L102.238 94.3993L102.238 92.5455L103.762 91.6307Z" fill="#A653E4" stroke="#2C2931" stroke-width="0.761905"/>
<path d="M108.333 93.8533L108.333 96.1385L106.428 97.2813L104.523 96.1385L104.523 93.8533L106.428 92.7098L108.333 93.8533Z" fill="#A653E4"/>
<path d="M346.428 232.128L346.428 233.843L344.904 234.795L343.381 233.843L343.381 232.128L344.904 231.175L346.428 232.128Z" fill="#9941DB"/>
<path d="M344.143 229.855L344.143 232.902L341.476 234.426L338.809 232.902L338.809 229.855L341.476 228.331L344.143 229.855Z" fill="#A653E4"/>
<path d="M442.428 285.855L442.428 288.14L440.523 289.283L438.619 288.14L438.619 285.855L440.523 284.712L442.428 285.855Z" fill="#A653E4"/>
<path d="M273.279 109.964L341.869 151.42V231.332L272.898 272.414L202.797 232.268V151.047L273.279 109.964Z" stroke="url(#paint16_linear_1_907)" stroke-width="1.5"/>
<path d="M487 68.3183L487 66.6047L488.523 65.6523L490.047 66.6047L490.047 68.3183L488.523 69.2712L487 68.3183Z" fill="#A653E4"/>
<path d="M296.524 178.412L487.762 67.7651" stroke="url(#paint17_linear_1_907)"/>
<path d="M176.523 247.375L273.267 303.746L367.762 245.872V186.984L355.571 179.722V129.713L273.267 81.2695L176.523 135.761V247.375Z" stroke="url(#paint18_linear_1_907)"/>
<path d="M356.596 123.555V95.1947L431.523 138.607V223.518L373.603 189.36L372.095 188.471V190.221V248.327L273.273 308.676L172.19 249.837V133.282L273.275 76.3276L355.089 124.417L356.596 125.303V123.555Z" stroke="url(#paint19_linear_1_907)" stroke-width="2"/>
<path d="M321.286 163.93V219.549L273.286 247.364L225.286 219.549V163.93L273.286 136.127L321.286 163.93Z" fill="#881ADB"/>
<path d="M273.286 136.128L225.286 163.931L273.286 191.746V136.127V136.128Z" fill="#A653E4"/>
<path d="M273.286 191.746L225.286 219.55L273.286 247.365V191.747" fill="#5E11CE"/>
<path d="M321.286 163.932L273.286 191.746L321.286 219.551V219.549V163.932Z" fill="#5E11CE"/>
<path d="M273.286 136.127V191.746L321.286 163.931L273.286 136.128" fill="#8736DB"/>
<path d="M273.286 191.746V247.364L321.286 219.549L273.286 191.746Z" fill="#3D0BBD"/>
<path d="M302.688 173.913H295.79V188.287H259.108L269.337 178.021L264.46 173.127L245.904 191.747L264.46 210.367L269.337 205.474L259.108 195.209H302.688V173.913Z" fill="white"/>
<g clip-path="url(#clip0_1_907)">
<path opacity="0.08" d="M111.762 149.842V236.175L188.714 281.27V194.413C163.054 179.319 137.478 164.843 111.762 149.842Z" fill="url(#paint20_linear_1_907)"/>
</g>
<g clip-path="url(#clip1_1_907)">
<path opacity="0.08" d="M129.286 140.697V227.031L206.238 272.126V185.269C180.578 170.174 155.002 155.698 129.286 140.697Z" fill="url(#paint21_linear_1_907)"/>
</g>
<g clip-path="url(#clip2_1_907)">
<path opacity="0.2" d="M92.7139 160.508V246.841L169.666 291.936V205.079C144.006 189.985 118.43 175.509 92.7139 160.508Z" fill="url(#paint22_linear_1_907)"/>
</g>
<g clip-path="url(#clip3_1_907)">
<path opacity="0.5" d="M73.667 188.699V171.938C99.3832 186.939 124.959 201.415 150.619 216.509V233.652L73.667 188.699Z" fill="url(#paint23_linear_1_907)"/>
<path d="M134.773 214.508C135.404 215.673 135.29 216.996 134.518 217.463C133.747 217.93 132.61 217.363 131.979 216.198C131.348 215.033 131.463 213.711 132.234 213.244C133.006 212.777 134.142 213.343 134.773 214.508Z" fill="#A653E4"/>
<path d="M140.188 218.144C140.819 219.309 140.704 220.632 139.933 221.099C139.161 221.566 138.025 220.999 137.394 219.835C136.763 218.67 136.878 217.347 137.649 216.88C138.42 216.413 139.557 216.979 140.188 218.144Z" fill="#A653E4"/>
<path d="M145.641 221.39C146.271 222.555 146.157 223.878 145.386 224.345C144.614 224.812 143.478 224.245 142.847 223.081C142.216 221.916 142.33 220.593 143.102 220.126C143.873 219.659 145.01 220.225 145.641 221.39Z" fill="#A653E4"/>
<path opacity="0.3" d="M150.619 303.364V233.65L73.667 188.697V258.269L150.619 303.364Z" fill="url(#paint24_linear_1_907)"/>
</g>
<path d="M102.619 188.697L150.619 216.507V274.031" stroke="url(#paint25_linear_1_907)" stroke-width="0.761905"/>
<g filter="url(#filter0_d_1_907)">
<path d="M108.714 218.397L80.5239 201.65V205.46L108.714 222.207V218.397Z" fill="url(#paint26_linear_1_907)"/>
<path d="M113.286 221.113L119 224.508V228.317L113.286 224.922V221.113Z" fill="url(#paint27_linear_1_907)"/>
<path d="M112.524 238.603L85.8573 222.984V226.793L112.524 242.412V238.603Z" fill="url(#paint28_linear_1_907)"/>
<path d="M100.714 249.65L85.8573 240.888V244.698L100.714 253.46V249.65Z" fill="url(#paint29_linear_1_907)"/>
<path d="M93.0954 218.031L128.524 238.856V242.665L93.0954 221.841V218.031Z" fill="url(#paint30_linear_1_907)"/>
<path d="M143 247.365L132.333 241.095V244.904L143 251.174V247.365Z" fill="url(#paint31_linear_1_907)"/>
<path d="M116.333 249.784L85.8573 232.127V235.936L116.333 253.593V249.784Z" fill="url(#paint32_linear_1_907)"/>
<path d="M120.143 252.003L123.952 254.222V258.031L120.143 255.812V252.003Z" fill="url(#paint33_linear_1_907)"/>
<path d="M80.5239 247.365L106.429 262.565V266.375L80.5239 251.174V247.365Z" fill="url(#paint34_linear_1_907)"/>
<path d="M121.286 271.365L110.238 264.8V268.61L121.286 275.174V271.365Z" fill="url(#paint35_linear_1_907)"/>
</g>
<g clip-path="url(#clip4_1_907)">
<path opacity="0.08" d="M393.667 71.3652V157.699L470.619 202.794V115.937C444.959 100.842 419.383 86.3663 393.667 71.3652Z" fill="url(#paint36_linear_1_907)"/>
</g>
<g clip-path="url(#clip5_1_907)">
<path opacity="0.08" d="M411.19 62.2227V148.556L488.143 193.651V106.794C462.482 91.6997 436.907 77.2238 411.19 62.2227Z" fill="url(#paint37_linear_1_907)"/>
</g>
<g clip-path="url(#clip6_1_907)">
<path opacity="0.2" d="M374.619 82.0332V168.367L451.571 213.462V126.605C425.911 111.51 400.335 97.0343 374.619 82.0332Z" fill="url(#paint38_linear_1_907)"/>
</g>
<g clip-path="url(#clip7_1_907)">
<path opacity="0.5" d="M355.571 110.983V93.459C381.287 108.46 406.863 122.936 432.524 138.03V155.935L355.571 110.983Z" fill="url(#paint39_linear_1_907)"/>
<path d="M415.915 136.03C416.546 137.195 416.432 138.517 415.66 138.984C414.889 139.451 413.752 138.885 413.121 137.72C412.49 136.555 412.605 135.232 413.376 134.765C414.148 134.298 415.285 134.865 415.915 136.03Z" fill="#A653E4"/>
<path d="M421.33 139.666C421.961 140.831 421.846 142.153 421.075 142.62C420.304 143.088 419.167 142.521 418.536 141.356C417.905 140.191 418.02 138.869 418.791 138.402C419.563 137.935 420.699 138.501 421.33 139.666Z" fill="#A653E4"/>
<path d="M426.783 142.912C427.413 144.077 427.299 145.399 426.528 145.866C425.756 146.333 424.62 145.767 423.989 144.602C423.358 143.437 423.472 142.115 424.244 141.648C425.015 141.18 426.152 141.747 426.783 142.912Z" fill="#A653E4"/>
<path opacity="0.3" d="M432.524 224.889V155.937L355.571 110.984V179.794L432.524 224.889Z" fill="url(#paint40_linear_1_907)"/>
</g>
<g filter="url(#filter1_d_1_907)">
<path d="M375.762 131.175L366.238 125.461V129.27L375.762 134.985V131.175Z" fill="url(#paint41_linear_1_907)"/>
<path d="M379.19 133.08L401.666 146.413V150.223L379.19 136.89V133.08Z" fill="url(#paint42_linear_1_907)"/>
<path d="M384.524 154.413L367.762 144.509V148.318L384.524 158.223V154.413Z" fill="url(#paint43_linear_1_907)"/>
<path d="M402.428 182.985L367.762 162.413V166.223L402.428 186.794V182.985Z" fill="url(#paint44_linear_1_907)"/>
<path d="M371.952 137.651L410.428 160.381V164.19L371.952 141.461V137.651Z" fill="url(#paint45_linear_1_907)"/>
<path d="M424.904 168.89L414.238 162.62V166.429L424.904 172.699V168.89Z" fill="url(#paint46_linear_1_907)"/>
<path d="M409.666 178.413L372.333 155.937V159.747L409.666 182.223V178.413Z" fill="url(#paint47_linear_1_907)"/>
<path d="M413.476 180.632L417.285 182.852V186.661L413.476 184.442V180.632Z" fill="url(#paint48_linear_1_907)"/>
<path d="M372.333 174.223L388.714 183.73V187.54L372.333 178.032V174.223Z" fill="url(#paint49_linear_1_907)"/>
<path d="M408.904 195.578L392.524 185.966V189.775L408.904 199.387V195.578Z" fill="url(#paint50_linear_1_907)"/>
</g>
<defs>
<filter id="filter0_d_1_907" x="77.4763" y="197.841" width="68.5714" height="79.6192" filterUnits="userSpaceOnUse" color-interpolation-filters="sRGB">
<feFlood flood-opacity="0" result="BackgroundImageFix"/>
<feColorMatrix in="SourceAlpha" type="matrix" values="0 0 0 0 0 0 0 0 0 0 0 0 0 0 0 0 0 0 127 0" result="hardAlpha"/>
<feOffset dy="-0.761905"/>
<feGaussianBlur stdDeviation="1.52381"/>
<feColorMatrix type="matrix" values="0 0 0 0 0.32549 0 0 0 0 0.105882 0 0 0 0 0.517647 0 0 0 0.5 0"/>
<feBlend mode="normal" in2="BackgroundImageFix" result="effect1_dropShadow_1_907"/>
<feBlend mode="normal" in="SourceGraphic" in2="effect1_dropShadow_1_907" result="shape"/>
</filter>
<filter id="filter1_d_1_907" x="363.19" y="121.651" width="64.7619" height="80.0215" filterUnits="userSpaceOnUse" color-interpolation-filters="sRGB">
<feFlood flood-opacity="0" result="BackgroundImageFix"/>
<feColorMatrix in="SourceAlpha" type="matrix" values="0 0 0 0 0 0 0 0 0 0 0 0 0 0 0 0 0 0 127 0" result="hardAlpha"/>
<feOffset dy="-0.761905"/>
<feGaussianBlur stdDeviation="1.52381"/>
<feColorMatrix type="matrix" values="0 0 0 0 0.32549 0 0 0 0 0.105882 0 0 0 0 0.517647 0 0 0 0.5 0"/>
<feBlend mode="normal" in2="BackgroundImageFix" result="effect1_dropShadow_1_907"/>
<feBlend mode="normal" in="SourceGraphic" in2="effect1_dropShadow_1_907" result="shape"/>
</filter>
<linearGradient id="paint0_linear_1_907" x1="85.4763" y1="254.222" x2="434.81" y2="59.1746" gradientUnits="userSpaceOnUse">
<stop stop-color="#A653E4"/>
<stop offset="1" stop-color="#A653E4" stop-opacity="0"/>
</linearGradient>
<linearGradient id="paint1_linear_1_907" x1="242.81" y1="180.319" x2="147.985" y2="233.409" gradientUnits="userSpaceOnUse">
<stop stop-color="#A653E4" stop-opacity="0.56"/>
<stop offset="1" stop-color="#A653E4" stop-opacity="0"/>
</linearGradient>
<linearGradient id="paint2_linear_1_907" x1="451.548" y1="94.5293" x2="383.28" y2="135.32" gradientUnits="userSpaceOnUse">
<stop stop-color="#A653E4" stop-opacity="0.56"/>
<stop offset="1" stop-color="#A653E4" stop-opacity="0"/>
</linearGradient>
<linearGradient id="paint3_linear_1_907" x1="332.714" y1="152.509" x2="382.313" y2="173.283" gradientUnits="userSpaceOnUse">
<stop stop-color="#A653E4" stop-opacity="0.56"/>
<stop offset="1" stop-color="#A653E4" stop-opacity="0"/>
</linearGradient>
<linearGradient id="paint4_linear_1_907" x1="260.352" y1="224.147" x2="330.526" y2="151.446" gradientUnits="userSpaceOnUse">
<stop stop-color="#A653E4" stop-opacity="0.56"/>
<stop offset="1" stop-color="#A653E4" stop-opacity="0"/>
</linearGradient>
<linearGradient id="paint5_linear_1_907" x1="389.476" y1="118.984" x2="76.7142" y2="285.461" gradientUnits="userSpaceOnUse">
<stop stop-color="#A653E4"/>
<stop offset="1" stop-color="#A653E4" stop-opacity="0"/>
</linearGradient>
<linearGradient id="paint6_linear_1_907" x1="467.572" y1="104.888" x2="88.0009" y2="322.544" gradientUnits="userSpaceOnUse">
<stop stop-color="#A653E4"/>
<stop offset="1" stop-color="#A653E4" stop-opacity="0"/>
</linearGradient>
<linearGradient id="paint7_linear_1_907" x1="214.619" y1="138.793" x2="264.218" y2="159.567" gradientUnits="userSpaceOnUse">
<stop stop-color="#A653E4" stop-opacity="0.56"/>
<stop offset="1" stop-color="#A653E4" stop-opacity="0"/>
</linearGradient>
<linearGradient id="paint8_linear_1_907" x1="369.675" y1="236.711" x2="59.1774" y2="61.7196" gradientUnits="userSpaceOnUse">
<stop stop-color="#A653E4"/>
<stop offset="0.962785" stop-color="#A653E4" stop-opacity="0"/>
</linearGradient>
<linearGradient id="paint9_linear_1_907" x1="279.006" y1="191.745" x2="541.482" y2="344.377" gradientUnits="userSpaceOnUse">
<stop stop-color="#A653E4"/>
<stop offset="0.663933" stop-color="#A653E4" stop-opacity="0"/>
</linearGradient>
<linearGradient id="paint10_linear_1_907" x1="252.333" y1="208.508" x2="13.8567" y2="347.937" gradientUnits="userSpaceOnUse">
<stop stop-color="#A653E4" stop-opacity="0"/>
<stop offset="1" stop-color="#A653E4"/>
</linearGradient>
<linearGradient id="paint11_linear_1_907" x1="278.947" y1="218.634" x2="278.947" y2="17.4912" gradientUnits="userSpaceOnUse">
<stop stop-color="#A653E4"/>
<stop offset="0.842785" stop-color="#A653E4" stop-opacity="0"/>
</linearGradient>
<linearGradient id="paint12_linear_1_907" x1="334.581" y1="107.862" x2="160.387" y2="208.433" gradientUnits="userSpaceOnUse">
<stop stop-color="#A653E4"/>
<stop offset="0.842785" stop-color="#A653E4" stop-opacity="0"/>
</linearGradient>
<linearGradient id="paint13_linear_1_907" x1="286.238" y1="233.665" x2="362.047" y2="190.236" gradientUnits="userSpaceOnUse">
<stop stop-color="#A653E4"/>
<stop offset="1" stop-color="#A653E4" stop-opacity="0"/>
</linearGradient>
<linearGradient id="paint14_linear_1_907" x1="202.047" y1="262.616" x2="111.046" y2="263.866" gradientUnits="userSpaceOnUse">
<stop stop-color="#A653E4" stop-opacity="0"/>
<stop offset="1" stop-color="#A653E4"/>
</linearGradient>
<linearGradient id="paint15_linear_1_907" x1="340.714" y1="121.652" x2="422.899" y2="119.165" gradientUnits="userSpaceOnUse">
<stop stop-color="#A653E4" stop-opacity="0"/>
<stop offset="1" stop-color="#A653E4"/>
</linearGradient>
<linearGradient id="paint16_linear_1_907" x1="149.476" y1="213.842" x2="334.635" y2="115.252" gradientUnits="userSpaceOnUse">
<stop stop-color="#A653E4"/>
<stop offset="1" stop-color="#A653E4" stop-opacity="0"/>
<stop offset="1" stop-color="#A653E4" stop-opacity="0"/>
</linearGradient>
<linearGradient id="paint17_linear_1_907" x1="488.905" y1="62.2216" x2="318.619" y2="160.507" gradientUnits="userSpaceOnUse">
<stop stop-color="#A653E4"/>
<stop offset="1" stop-color="#A653E4" stop-opacity="0"/>
</linearGradient>
<linearGradient id="paint18_linear_1_907" x1="272.142" y1="96.8886" x2="272.142" y2="344.508" gradientUnits="userSpaceOnUse">
<stop stop-color="#A653E4"/>
<stop offset="1" stop-color="#A653E4" stop-opacity="0"/>
</linearGradient>
<linearGradient id="paint19_linear_1_907" x1="275.19" y1="67.1738" x2="275.19" y2="352.888" gradientUnits="userSpaceOnUse">
<stop stop-color="#A653E4"/>
<stop offset="1" stop-color="#A653E4" stop-opacity="0"/>
</linearGradient>
<linearGradient id="paint20_linear_1_907" x1="163.191" y1="130.412" x2="211.768" y2="137.845" gradientUnits="userSpaceOnUse">
<stop stop-color="#A653E4"/>
<stop offset="1" stop-color="#A653E4" stop-opacity="0"/>
</linearGradient>
<linearGradient id="paint21_linear_1_907" x1="180.714" y1="121.267" x2="229.292" y2="128.7" gradientUnits="userSpaceOnUse">
<stop stop-color="#A653E4"/>
<stop offset="1" stop-color="#A653E4" stop-opacity="0"/>
</linearGradient>
<linearGradient id="paint22_linear_1_907" x1="107.571" y1="138.032" x2="174.026" y2="132.683" gradientUnits="userSpaceOnUse">
<stop stop-color="#A653E4"/>
<stop offset="1" stop-color="#A653E4" stop-opacity="0"/>
</linearGradient>
<linearGradient id="paint23_linear_1_907" x1="152.143" y1="216.89" x2="-129" y2="48.8899" gradientUnits="userSpaceOnUse">
<stop offset="0.013589" stop-color="#A653E4"/>
<stop offset="1" stop-color="#A653E4" stop-opacity="0"/>
</linearGradient>
<linearGradient id="paint24_linear_1_907" x1="121.667" y1="210.032" x2="161.917" y2="209.007" gradientUnits="userSpaceOnUse">
<stop stop-color="#A653E4"/>
<stop offset="1" stop-color="#A653E4" stop-opacity="0"/>
</linearGradient>
<linearGradient id="paint25_linear_1_907" x1="153.286" y1="214.602" x2="127" y2="228.697" gradientUnits="userSpaceOnUse">
<stop stop-color="#A653E4"/>
<stop offset="1" stop-color="#A653E4" stop-opacity="0"/>
</linearGradient>
<linearGradient id="paint26_linear_1_907" x1="80.5239" y1="225.65" x2="187.572" y2="285.46" gradientUnits="userSpaceOnUse">
<stop stop-color="#CE8DFF"/>
<stop offset="1" stop-color="#A653E4" stop-opacity="0"/>
</linearGradient>
<linearGradient id="paint27_linear_1_907" x1="80.5239" y1="225.65" x2="187.572" y2="285.46" gradientUnits="userSpaceOnUse">
<stop stop-color="#CE8DFF"/>
<stop offset="1" stop-color="#A653E4" stop-opacity="0"/>
</linearGradient>
<linearGradient id="paint28_linear_1_907" x1="80.5239" y1="225.65" x2="187.572" y2="285.46" gradientUnits="userSpaceOnUse">
<stop stop-color="#CE8DFF"/>
<stop offset="1" stop-color="#A653E4" stop-opacity="0"/>
</linearGradient>
<linearGradient id="paint29_linear_1_907" x1="80.5239" y1="225.65" x2="187.572" y2="285.46" gradientUnits="userSpaceOnUse">
<stop stop-color="#CE8DFF"/>
<stop offset="1" stop-color="#A653E4" stop-opacity="0"/>
</linearGradient>
<linearGradient id="paint30_linear_1_907" x1="80.5239" y1="225.65" x2="187.572" y2="285.46" gradientUnits="userSpaceOnUse">
<stop stop-color="#CE8DFF"/>
<stop offset="1" stop-color="#A653E4" stop-opacity="0"/>
</linearGradient>
<linearGradient id="paint31_linear_1_907" x1="80.5239" y1="225.65" x2="187.572" y2="285.46" gradientUnits="userSpaceOnUse">
<stop stop-color="#CE8DFF"/>
<stop offset="1" stop-color="#A653E4" stop-opacity="0"/>
</linearGradient>
<linearGradient id="paint32_linear_1_907" x1="80.5239" y1="225.65" x2="187.572" y2="285.46" gradientUnits="userSpaceOnUse">
<stop stop-color="#CE8DFF"/>
<stop offset="1" stop-color="#A653E4" stop-opacity="0"/>
</linearGradient>
<linearGradient id="paint33_linear_1_907" x1="80.5239" y1="225.65" x2="187.572" y2="285.46" gradientUnits="userSpaceOnUse">
<stop stop-color="#CE8DFF"/>
<stop offset="1" stop-color="#A653E4" stop-opacity="0"/>
</linearGradient>
<linearGradient id="paint34_linear_1_907" x1="80.5239" y1="225.65" x2="187.572" y2="285.46" gradientUnits="userSpaceOnUse">
<stop stop-color="#CE8DFF"/>
<stop offset="1" stop-color="#A653E4" stop-opacity="0"/>
</linearGradient>
<linearGradient id="paint35_linear_1_907" x1="80.5239" y1="225.65" x2="187.572" y2="285.46" gradientUnits="userSpaceOnUse">
<stop stop-color="#CE8DFF"/>
<stop offset="1" stop-color="#A653E4" stop-opacity="0"/>
</linearGradient>
<linearGradient id="paint36_linear_1_907" x1="445.096" y1="51.9353" x2="493.673" y2="59.3682" gradientUnits="userSpaceOnUse">
<stop stop-color="#A653E4"/>
<stop offset="1" stop-color="#A653E4" stop-opacity="0"/>
</linearGradient>
<linearGradient id="paint37_linear_1_907" x1="462.619" y1="42.7927" x2="511.196" y2="50.2256" gradientUnits="userSpaceOnUse">
<stop stop-color="#A653E4"/>
<stop offset="1" stop-color="#A653E4" stop-opacity="0"/>
</linearGradient>
<linearGradient id="paint38_linear_1_907" x1="389.476" y1="59.5577" x2="455.931" y2="54.208" gradientUnits="userSpaceOnUse">
<stop stop-color="#A653E4"/>
<stop offset="1" stop-color="#A653E4" stop-opacity="0"/>
</linearGradient>
<linearGradient id="paint39_linear_1_907" x1="434.047" y1="138.411" x2="232.143" y2="118.602" gradientUnits="userSpaceOnUse">
<stop stop-color="#A653E4"/>
<stop offset="1" stop-color="#A653E4" stop-opacity="0"/>
</linearGradient>
<linearGradient id="paint40_linear_1_907" x1="403.571" y1="131.557" x2="443.821" y2="130.532" gradientUnits="userSpaceOnUse">
<stop stop-color="#A653E4"/>
<stop offset="1" stop-color="#A653E4" stop-opacity="0"/>
</linearGradient>
<linearGradient id="paint41_linear_1_907" x1="362.428" y1="147.937" x2="469.476" y2="207.747" gradientUnits="userSpaceOnUse">
<stop stop-color="#CE8DFF"/>
<stop offset="1" stop-color="#A653E4" stop-opacity="0"/>
</linearGradient>
<linearGradient id="paint42_linear_1_907" x1="362.428" y1="147.937" x2="469.476" y2="207.747" gradientUnits="userSpaceOnUse">
<stop stop-color="#CE8DFF"/>
<stop offset="1" stop-color="#A653E4" stop-opacity="0"/>
</linearGradient>
<linearGradient id="paint43_linear_1_907" x1="362.428" y1="147.937" x2="469.476" y2="207.747" gradientUnits="userSpaceOnUse">
<stop stop-color="#CE8DFF"/>
<stop offset="1" stop-color="#A653E4" stop-opacity="0"/>
</linearGradient>
<linearGradient id="paint44_linear_1_907" x1="362.428" y1="147.937" x2="469.476" y2="207.747" gradientUnits="userSpaceOnUse">
<stop stop-color="#CE8DFF"/>
<stop offset="1" stop-color="#A653E4" stop-opacity="0"/>
</linearGradient>
<linearGradient id="paint45_linear_1_907" x1="362.428" y1="147.937" x2="469.476" y2="207.747" gradientUnits="userSpaceOnUse">
<stop stop-color="#CE8DFF"/>
<stop offset="1" stop-color="#A653E4" stop-opacity="0"/>
</linearGradient>
<linearGradient id="paint46_linear_1_907" x1="362.428" y1="147.937" x2="469.476" y2="207.747" gradientUnits="userSpaceOnUse">
<stop stop-color="#CE8DFF"/>
<stop offset="1" stop-color="#A653E4" stop-opacity="0"/>
</linearGradient>
<linearGradient id="paint47_linear_1_907" x1="362.428" y1="147.937" x2="469.476" y2="207.747" gradientUnits="userSpaceOnUse">
<stop stop-color="#CE8DFF"/>
<stop offset="1" stop-color="#A653E4" stop-opacity="0"/>
</linearGradient>
<linearGradient id="paint48_linear_1_907" x1="362.428" y1="147.937" x2="469.476" y2="207.747" gradientUnits="userSpaceOnUse">
<stop stop-color="#CE8DFF"/>
<stop offset="1" stop-color="#A653E4" stop-opacity="0"/>
</linearGradient>
<linearGradient id="paint49_linear_1_907" x1="362.428" y1="147.937" x2="469.476" y2="207.747" gradientUnits="userSpaceOnUse">
<stop stop-color="#CE8DFF"/>
<stop offset="1" stop-color="#A653E4" stop-opacity="0"/>
</linearGradient>
<linearGradient id="paint50_linear_1_907" x1="362.428" y1="147.937" x2="469.476" y2="207.747" gradientUnits="userSpaceOnUse">
<stop stop-color="#CE8DFF"/>
<stop offset="1" stop-color="#A653E4" stop-opacity="0"/>
</linearGradient>
<clipPath id="clip0_1_907">
<rect width="76.9524" height="131.81" fill="white" transform="matrix(-1 0 0 1 188.714 150.602)"/>
</clipPath>
<clipPath id="clip1_1_907">
<rect width="76.9524" height="131.81" fill="white" transform="matrix(-1 0 0 1 207.762 141.461)"/>
</clipPath>
<clipPath id="clip2_1_907">
<rect width="76.9524" height="131.81" fill="white" transform="matrix(-1 0 0 1 169.667 160.508)"/>
</clipPath>
<clipPath id="clip3_1_907">
<rect width="76.9524" height="131.81" fill="white" transform="matrix(-1 0 0 1 150.619 171.938)"/>
</clipPath>
<clipPath id="clip4_1_907">
<rect width="76.9524" height="131.81" fill="white" transform="matrix(-1 0 0 1 470.619 72.127)"/>
</clipPath>
<clipPath id="clip5_1_907">
<rect width="76.9524" height="131.81" fill="white" transform="matrix(-1 0 0 1 489.667 62.9844)"/>
</clipPath>
<clipPath id="clip6_1_907">
<rect width="76.9524" height="131.81" fill="white" transform="matrix(-1 0 0 1 451.571 82.0332)"/>
</clipPath>
<clipPath id="clip7_1_907">
<rect width="76.9524" height="131.81" fill="white" transform="matrix(-1 0 0 1 432.523 93.459)"/>
</clipPath>
</defs>
</svg>
