<svg width="257" height="54" viewBox="0 0 257 54" fill="none" xmlns="http://www.w3.org/2000/svg">
<g clip-path="url(#clip0_1_1067)">
<path fill-rule="evenodd" clip-rule="evenodd" d="M55.4519 25.9566C55.4519 30.5651 57.8136 33.397 62.213 33.397C63.4239 33.4665 64.6345 33.2578 65.7522 32.7868C66.8698 32.3158 67.8647 31.5951 68.6607 30.68L72.0674 33.815C70.827 35.2139 69.288 36.3159 67.5641 37.0394C65.8402 37.763 63.9757 38.0896 62.1085 37.995C55.4519 37.995 50.1537 34.4838 50.1537 24.41C50.1537 15.7574 54.6054 10.825 61.4188 10.825C68.5457 10.825 72.6839 15.9664 72.6839 23.7203V25.9775L55.4519 25.9566ZM66.6647 18.6416C66.1975 17.6387 65.4537 16.79 64.5207 16.1954C63.5877 15.6007 62.5043 15.2848 61.3979 15.2848C60.2915 15.2848 59.2081 15.6007 58.2751 16.1954C57.3421 16.79 56.5983 17.6387 56.1311 18.6416C55.6353 19.7803 55.4031 21.0163 55.4519 22.2573H67.4067C67.415 21.0033 67.1623 19.7613 66.6647 18.6103V18.6416ZM85.3493 37.692C80.2602 37.692 78.0343 34.2853 78.0343 30.377V0.375H83.3847V30.0426C83.3847 32.1326 84.1162 33.1776 86.2689 33.1776H88.6515V37.7338L85.3493 37.692ZM97.0429 25.9566C97.0429 30.5651 99.4046 33.397 103.804 33.397C105.015 33.4665 106.226 33.2578 107.343 32.7868C108.461 32.3158 109.456 31.5951 110.252 30.68L113.658 33.815C112.418 35.2139 110.879 36.3159 109.155 37.0394C107.431 37.763 105.567 38.0896 103.7 37.995C97.0429 37.995 91.7447 34.4838 91.7447 24.41C91.7447 15.7574 96.1964 10.825 103.01 10.825C110.137 10.825 114.275 15.9664 114.275 23.7203V25.9775L97.0429 25.9566ZM108.256 18.6416C107.789 17.6387 107.045 16.79 106.112 16.1954C105.179 15.6007 104.095 15.2848 102.989 15.2848C101.883 15.2848 100.799 15.6007 99.8661 16.1954C98.9331 16.79 98.1893 17.6387 97.7221 18.6416C97.2263 19.7803 96.9941 21.0163 97.0429 22.2573H108.998C109.006 21.0033 108.753 19.7613 108.256 18.6103V18.6416ZM152.302 37.692V21.4945C152.302 17.3145 149.941 15.5693 146.952 15.5693C146.201 15.5269 145.45 15.6471 144.749 15.9218C144.049 16.1965 143.416 16.6192 142.895 17.1609C142.373 17.7027 141.974 18.3507 141.725 19.0607C141.477 19.7708 141.385 20.5261 141.455 21.275V37.692H136.105V21.4945C136.105 17.3145 133.743 15.5693 130.755 15.5693C127.766 15.5693 125.247 17.4085 125.247 21.4945V37.692H119.897V11.1176H125.122V13.7928C126.038 12.8351 127.142 12.0771 128.365 11.5663C129.588 11.0556 130.903 10.8032 132.228 10.825C133.715 10.7524 135.195 11.0725 136.52 11.753C137.844 12.4335 138.966 13.4506 139.773 14.702C140.759 13.4386 142.031 12.428 143.485 11.7539C144.938 11.0797 146.532 10.7613 148.133 10.825C150.579 10.7451 152.963 11.6009 154.8 13.2181C155.77 14.1995 156.523 15.3734 157.011 16.664C157.498 17.9546 157.71 19.3332 157.632 20.7107V37.692H152.302ZM168.385 25.9566C168.385 30.5651 170.747 33.397 175.146 33.397C176.366 33.4747 177.586 33.2699 178.714 32.7986C179.841 32.3274 180.845 31.6024 181.646 30.68L185.053 33.815C183.812 35.2133 182.273 36.3149 180.549 37.0384C178.825 37.7619 176.961 38.0888 175.094 37.995C168.385 37.995 163.16 34.4943 163.16 24.41C163.16 15.7574 167.612 10.825 174.425 10.825C181.552 10.825 185.69 15.9664 185.69 23.7203V25.9775L168.385 25.9566ZM179.598 18.6416C179.131 17.6387 178.387 16.79 177.454 16.1954C176.521 15.6007 175.437 15.2848 174.331 15.2848C173.225 15.2848 172.141 15.6007 171.208 16.1954C170.275 16.79 169.531 17.6387 169.064 18.6416C168.569 19.7804 168.337 21.0163 168.385 22.2573H180.34C180.365 21.0069 180.13 19.765 179.65 18.6103L179.598 18.6416ZM207.499 37.692V21.4945C207.499 17.3145 205.138 15.5693 202.149 15.5693C199.16 15.5693 196.6 17.4085 196.6 21.4945V37.692H191.25V11.1176H196.475V13.7928C197.391 12.8247 198.502 12.0601 199.733 11.5488C200.964 11.0376 202.29 10.7909 203.622 10.825C206.039 10.7307 208.396 11.5902 210.185 13.2181C212.275 15.214 212.86 17.722 212.86 20.7107V37.692H207.499ZM227.354 37.692C222.37 37.692 220.039 34.1285 220.039 30.3038V15.2036H216.998V11.1176H220.039V3.51H225.39V11.1072H230.521V15.1931H225.39V30.0426C225.39 31.9863 226.33 33.1776 228.326 33.1776H230.531V37.7338L227.354 37.692ZM245.611 37.995C241.263 37.995 237.595 37.2635 234.45 34.1703L237.951 30.68C238.97 31.638 240.175 32.3784 241.49 32.8563C242.805 33.3341 244.203 33.5394 245.6 33.4597C248.902 33.4597 251.421 32.3102 251.421 29.7918C251.421 27.9526 250.376 26.9076 247.857 26.6568L243.625 26.2701C238.599 25.7999 235.767 23.5949 235.767 18.9551C235.767 13.7301 240.218 10.8355 245.778 10.8355C249.811 10.8355 253.166 11.6715 255.632 13.8242L252.278 17.2309C250.389 15.8233 248.066 15.1243 245.715 15.2558C242.465 15.2558 240.898 16.6143 240.898 18.6625C240.898 20.5017 241.943 21.4422 244.566 21.7035L248.286 22.017C253.793 22.4872 256.646 24.9012 256.646 29.5619C256.667 35.1213 251.985 37.995 245.611 37.995ZM101.672 43.8787V47.6825H106.197V48.6648H101.672V53.221H100.575V42.8964H106.991V43.8787H101.672ZM113.271 53.221V42.8964H114.369V53.2314L113.271 53.221ZM127.964 53.221L122.478 44.9341V53.221H121.36V42.8964H122.405L127.891 51.1519V42.8964H128.999V53.2314L127.964 53.221ZM142.479 53.221L141.654 50.8802H137.139L136.314 53.221H135.143L138.947 42.8859H139.877L143.66 53.221H142.479ZM139.417 44.4743L137.474 49.9292H141.33L139.417 44.4743ZM156.367 53.221L150.881 44.9341V53.221H149.784V42.8964H150.829L156.315 51.1519V42.8964H157.423V53.2314L156.367 53.221ZM167.747 53.315C167.269 53.3242 166.793 53.2364 166.35 53.0568C165.906 52.8772 165.503 52.6095 165.166 52.27C164.194 51.2982 164.121 50.3995 164.121 48.0378C164.121 45.6761 164.173 44.7774 165.166 43.8055C165.503 43.466 165.906 43.1984 166.35 43.0188C166.793 42.8392 167.269 42.7513 167.747 42.7605C168.62 42.7331 169.472 43.0331 170.135 43.6016C170.798 44.17 171.225 44.9659 171.332 45.8328H170.203C170.121 45.2439 169.826 44.7057 169.373 44.3203C168.92 43.935 168.342 43.7295 167.747 43.7428C167.416 43.7363 167.087 43.7968 166.78 43.9207C166.473 44.0447 166.194 44.2294 165.96 44.4639C165.312 45.1327 165.239 45.8851 165.239 48.0064C165.239 50.1278 165.312 50.8802 165.96 51.549C166.288 51.872 166.699 52.0993 167.147 52.2063C167.595 52.3133 168.063 52.296 168.502 52.1562C168.941 52.0163 169.333 51.7594 169.636 51.413C169.94 51.0665 170.143 50.6438 170.224 50.1905H171.321C171.227 51.065 170.807 51.8721 170.145 52.451C169.482 53.03 168.627 53.3385 167.747 53.315ZM177.842 53.221V42.8964H178.939V53.2314L177.842 53.221ZM192.42 53.221L191.594 50.8802H187.08L186.254 53.221H185.105L188.908 42.8859H189.839L193.621 53.221H192.42ZM189.285 44.4743L187.341 49.9292H191.197L189.285 44.4743ZM199.735 53.221V42.8964H200.78V52.2387H206.057V53.221H199.735ZM21.1863 25.704H0.160944L10.6632 43.9184H31.699L21.1863 25.704ZM10.6532 4.28125H31.4905L21.1659 22.4956H0.140533L10.6532 4.28125ZM34.4789 5.89355H34.2908L23.9662 24.0975L34.4789 42.3118L44.9916 24.0975L34.4789 5.89355Z" fill="white"/>
</g>
<defs>
<clipPath id="clip0_1_1067">
<rect width="256.527" height="52.9397" fill="white" transform="translate(0.140137 0.375)"/>
</clipPath>
</defs>
</svg>
