<svg width="299" height="53" viewBox="0 0 299 53" fill="none" xmlns="http://www.w3.org/2000/svg">
<g clip-path="url(#clip0_1_1108)">
<path fill-rule="evenodd" clip-rule="evenodd" d="M10.8238 49.4054H0.14209L8.71721 0.492537L19.3676 0.487305L14.2355 28.762C14.2355 28.762 17.9924 21.9868 25.8172 21.1465C32.8231 20.3812 36.2034 21.8141 37.0241 22.1621C37.0867 22.1886 37.1344 22.2088 37.1677 22.2213C41.7242 24.1363 42.4219 28.0692 42.5065 30.1662C51.5097 32.0012 56.0126 38.1263 56.0126 48.5288V49.4057H45.5496C46.2451 44.1951 44.4813 41.0197 41.5113 39.4129C40.7215 44.2233 39.7557 49.396 39.7557 49.396H29.1483C29.1483 49.396 30.2834 43.8505 30.662 38.7258C24.3544 40.2333 18.0552 44.347 16.2242 49.4057H16.1279C16.1865 41.2427 22.515 33.92 29.9642 30.969C29.7726 30.6677 29.5421 30.4501 29.2676 30.3328C27.9406 29.4035 24.0915 29.2434 22.0456 29.6159C13.1355 30.9592 11.4826 44.1821 10.9439 48.4919C10.8967 48.8695 10.8581 49.1787 10.8238 49.4054ZM80.3927 30.9694V16.6562H77.678V22.4979H70.9667V16.6562H68.25V30.9694H70.9667V24.7835H77.678V30.9694H80.3927ZM87.5279 20.7928C85.9947 20.7928 85.0989 20.9906 84.8404 21.3841C84.5819 21.7775 84.4532 23.1401 84.4532 25.4707C84.4532 27.1974 84.6049 28.2366 84.9074 28.5893C85.2088 28.9409 86.1004 29.1178 87.5791 29.1178C88.9951 29.1178 89.8438 28.9189 90.1264 28.5234C90.4079 28.1267 90.5481 26.9243 90.5481 24.916C90.5481 22.9015 90.4152 21.7116 90.1483 21.3443C89.8815 20.977 89.0076 20.7928 87.5279 20.7928ZM87.7037 18.8379C89.8888 18.8379 91.2943 19.201 91.9232 19.9273C92.5511 20.6515 92.8651 22.2736 92.8651 24.7936C92.8651 27.547 92.5501 29.2821 91.918 29.9979C91.288 30.7148 89.759 31.0737 87.3332 31.0737C85.1491 31.0737 83.7363 30.72 83.0969 30.0115C82.4565 29.3051 82.1362 27.7458 82.1362 25.3399C82.1373 22.4735 82.4512 20.6735 83.0791 19.9388C83.707 19.2052 85.2486 18.8379 87.7037 18.8379ZM103.799 26.6784H101.578L101.595 27.2163C101.595 28.0148 101.43 28.5307 101.103 28.7661C100.775 29.0006 100.062 29.1178 98.9628 29.1178C97.6075 29.1178 96.8049 28.9064 96.5579 28.4836C96.3099 28.0608 96.1864 26.6993 96.1864 24.3959C96.1864 22.688 96.3245 21.6593 96.5998 21.3139C96.8771 20.9675 97.7017 20.7928 99.0748 20.7928C100.099 20.7928 100.755 20.9048 101.043 21.1235C101.332 21.3443 101.475 21.8477 101.475 22.6346V22.9423H103.696L103.688 22.6692C103.688 21.1434 103.409 20.123 102.851 19.6092C102.292 19.0953 101.182 18.8379 99.5185 18.8379C97.2339 18.8379 95.7332 19.1508 95.0153 19.7756C94.2985 20.4014 93.9385 21.7064 93.9385 23.6916C93.9385 27.0624 94.2043 29.1356 94.7338 29.91C95.2634 30.6854 96.6793 31.0737 98.9806 31.0737C101.008 31.0737 102.318 30.8288 102.91 30.338C103.504 29.8472 103.799 28.7661 103.799 27.0917V26.6784ZM115.087 18.9482V30.9706H112.873V25.7746H107.404V30.9706H105.192V18.9482H107.404V23.8532H112.873V18.9482H115.087ZM123.63 22.4494H125.792V21.9921C125.792 20.7467 125.488 19.9095 124.878 19.4815C124.267 19.0524 123.086 18.8379 121.332 18.8379C119.481 18.8379 118.246 19.0713 117.627 19.5391C117.01 20.0058 116.7 20.9403 116.7 22.3448C116.7 23.7178 116.958 24.6136 117.469 25.0301C117.982 25.4487 119.161 25.7114 121.006 25.8244L122.23 25.9029C122.917 25.9437 123.366 26.0599 123.575 26.2503C123.783 26.4418 123.886 26.828 123.886 27.4088C123.886 28.1958 123.749 28.6981 123.476 28.9158C123.203 29.1324 122.571 29.2402 121.579 29.2413C120.308 29.2413 119.532 29.146 119.247 28.9598C118.963 28.7703 118.819 28.2575 118.819 27.4172L118.812 27.1629H116.658L116.668 27.6024C116.668 29.0006 116.968 29.9278 117.569 30.3861C118.169 30.8445 119.386 31.0737 121.221 31.0737C123.261 31.0737 124.579 30.8403 125.178 30.3725C125.774 29.9068 126.074 28.875 126.074 27.2759C126.074 25.9793 125.819 25.1243 125.31 24.7141C124.799 24.3028 123.675 24.0464 121.939 23.947C120.47 23.8653 119.603 23.7471 119.34 23.5953C119.079 23.4425 118.948 22.9873 118.948 22.2296C118.948 21.5892 119.108 21.1706 119.431 20.9696C119.753 20.7708 120.437 20.6714 121.486 20.6714C122.374 20.6714 122.937 20.7572 123.177 20.9309C123.416 21.1036 123.562 21.5274 123.612 22.2035C123.612 22.2568 123.619 22.3385 123.63 22.4494ZM134.816 26.6784H137.036V27.0917C137.036 28.7661 136.74 29.8472 136.148 30.338C135.556 30.8288 134.245 31.0737 132.218 31.0737C129.917 31.0737 128.502 30.6854 127.972 29.91C127.442 29.1356 127.176 27.0624 127.176 23.6916C127.176 21.7064 127.535 20.4014 128.253 19.7756C128.971 19.1508 130.472 18.8379 132.756 18.8379C134.419 18.8379 135.53 19.0953 136.088 19.6092C136.646 20.123 136.926 21.1434 136.926 22.6692L136.934 22.9423H134.713V22.6346C134.713 21.8477 134.57 21.3443 134.281 21.1235C133.993 20.9048 133.337 20.7928 132.312 20.7928C130.94 20.7928 130.115 20.9675 129.838 21.3139C129.562 21.6593 129.424 22.688 129.424 24.3959C129.424 26.6993 129.548 28.0608 129.796 28.4836C130.043 28.9064 130.845 29.1178 132.202 29.1178C133.3 29.1178 134.013 29.0006 134.341 28.7661C134.668 28.5307 134.833 28.0148 134.833 27.2163L134.816 26.6784ZM148.324 30.9706V18.9482H146.111V23.8532H140.642V18.9482H138.429V30.9706H140.642V25.7746H146.111V30.9706H148.324ZM157.876 18.9482H160.089V26.9446C160.089 28.6201 159.777 29.7263 159.153 30.2663C158.529 30.8063 157.256 31.0773 155.33 31.0773C153.297 31.0773 151.962 30.8209 151.331 30.3113C150.698 29.8006 150.383 28.7227 150.383 27.0775V18.9482H152.596V27.0775C152.596 27.965 152.748 28.527 153.057 28.7645C153.365 29.0031 154.088 29.1214 155.228 29.1214C156.396 29.1214 157.128 29.001 157.427 28.7603C157.727 28.5196 157.876 27.9294 157.876 26.9896V18.9482ZM164.344 28.9278V18.9482H162.13V30.9706H169.813V28.9278H164.344ZM172.914 20.8675V23.9684H178.382V25.6511H172.914V29.0513H178.732V30.9706H170.7V18.9482H178.681V20.8675H172.914ZM196.246 30.9694V16.6562H193.911V24.8986L193.928 26.7436L193.955 27.6666L193.983 28.5907H193.901L193.433 27.4144L192.963 26.2517C192.591 25.336 192.263 24.5553 191.981 23.9128L188.779 16.6562H184.82V30.9694H187.156V22.7595L187.137 20.8821L187.11 19.9486L187.074 19.0046H187.165L187.553 20.0333L187.949 21.06C188.322 22.0395 188.596 22.7239 188.77 23.1153L192.287 30.9694H196.246ZM203.202 20.7928C201.67 20.7928 200.773 20.9906 200.515 21.3841C200.257 21.7775 200.129 23.1401 200.129 25.4707C200.129 27.1974 200.279 28.2366 200.582 28.5893C200.883 28.9409 201.775 29.1178 203.256 29.1178C204.67 29.1178 205.519 28.9189 205.801 28.5234C206.082 28.1267 206.223 26.9243 206.223 24.916C206.223 22.9015 206.09 21.7116 205.823 21.3443C205.556 20.977 204.682 20.7928 203.202 20.7928ZM203.378 18.8379C205.563 18.8379 206.969 19.201 207.598 19.9273C208.225 20.6515 208.539 22.2736 208.539 24.7936C208.539 27.547 208.224 29.2821 207.593 29.9979C206.962 30.7148 205.433 31.0737 203.009 31.0737C200.824 31.0737 199.412 30.72 198.771 30.0115C198.131 29.3051 197.811 27.7458 197.811 25.3399C197.812 22.4735 198.126 20.6735 198.753 19.9388C199.381 19.2052 200.923 18.8379 203.378 18.8379ZM215.314 24.9992H212.039V20.8675H215.473C216.22 20.8675 216.704 20.9921 216.923 21.2422C217.143 21.4913 217.252 22.0449 217.252 22.903C217.252 23.7423 217.125 24.3011 216.87 24.5806C216.614 24.86 216.097 24.9992 215.314 24.9992ZM209.757 18.9482V30.9706H212.039V26.9195H215.324C216.545 26.9195 217.156 27.5391 217.156 28.7781V30.9706H219.438V28.3198C219.438 26.8463 218.772 26.0677 217.438 25.986V25.9065C218.302 25.7359 218.872 25.4272 219.151 24.9814C219.43 24.5345 219.568 23.7036 219.568 22.4886C219.568 21.1491 219.289 20.225 218.733 19.7143C218.175 19.2036 217.158 18.9482 215.684 18.9482H209.757ZM223.341 29.0513H226.592C227.682 29.0513 228.389 28.8001 228.708 28.2967C229.031 27.7955 229.19 26.6882 229.19 24.972C229.19 23.2002 229.045 22.071 228.759 21.5907C228.47 21.1082 227.795 20.8675 226.733 20.8675H223.341V29.0513ZM221.061 30.9706V18.9482H226.97C228.649 18.9482 229.826 19.3145 230.498 20.0492C231.17 20.7828 231.508 22.0689 231.508 23.9066C231.508 26.908 231.236 28.8346 230.696 29.6886C230.154 30.5446 228.937 30.9706 227.041 30.9706H221.061ZM243.048 30.9706V18.9482H240.766V23.8532H235.127V18.9482H232.847V30.9706H235.127V25.7746H240.766V30.9706H243.048ZM251.582 26.9813L249.505 20.7179L247.461 26.9813H251.582ZM252.113 28.663H246.922L246.176 30.9706H243.761L247.759 18.9482H251.187L255.247 30.9706H252.878L252.113 28.663ZM265.981 18.9482H263.696V26.9896C263.696 27.9294 263.544 28.5196 263.236 28.7603C262.926 29.001 262.172 29.1214 260.967 29.1214C259.792 29.1214 259.046 29.0031 258.728 28.7645C258.413 28.527 258.253 27.965 258.253 27.0775V18.9482H255.972V27.0775C255.972 28.7227 256.299 29.8006 256.951 30.3113C257.602 30.8209 258.976 31.0773 261.071 31.0773C263.057 31.0773 264.372 30.8063 265.014 30.2663C265.657 29.7263 265.981 28.6201 265.981 26.9446V18.9482ZM276.682 22.4494H274.453C274.441 22.3385 274.437 22.2568 274.437 22.2035C274.383 21.5274 274.234 21.1036 273.988 20.9309C273.74 20.7572 273.157 20.6714 272.243 20.6714C271.162 20.6714 270.457 20.7708 270.124 20.9696C269.792 21.1706 269.626 21.5892 269.626 22.2296C269.626 22.9873 269.762 23.4425 270.031 23.5953C270.301 23.7471 271.193 23.8653 272.709 23.947C274.501 24.0464 275.658 24.3028 276.183 24.7141C276.711 25.1243 276.973 25.9793 276.973 27.2759C276.973 28.875 276.665 29.9068 276.047 30.3725C275.432 30.8403 274.071 31.0737 271.969 31.0737C270.079 31.0737 268.823 30.8445 268.203 30.3861C267.582 29.9278 267.274 29.0006 267.274 27.6024L267.266 27.1629H269.485L269.495 27.4172C269.495 28.2575 269.64 28.7703 269.934 28.9598C270.227 29.146 271.028 29.2413 272.339 29.2413C273.36 29.2402 274.014 29.1324 274.296 28.9158C274.577 28.6981 274.717 28.1958 274.717 27.4088C274.718 26.828 274.611 26.4418 274.396 26.2503C274.18 26.0599 273.718 25.9437 273.009 25.9029L271.749 25.8244C269.847 25.7114 268.631 25.4487 268.103 25.0301C267.574 24.6136 267.308 23.7178 267.308 22.3448C267.308 20.9403 267.628 20.0058 268.264 19.5391C268.903 19.0713 270.174 18.8379 272.083 18.8379C273.893 18.8379 275.112 19.0524 275.74 19.4815C276.368 19.9095 276.682 20.7467 276.682 21.9921V22.4494ZM280.278 23.9684V20.8675H286.222V18.9482H277.995V30.9706H286.276V29.0513H280.278V25.6511H285.914V23.9684H280.278ZM298.81 18.9482V30.9706H294.944L291.509 24.3744C291.337 24.0448 291.069 23.4692 290.707 22.6477L290.318 21.7843L289.941 20.9209H289.853L289.887 21.7131L289.915 22.498L289.932 24.0741V30.9706H287.65V18.9482H291.515L294.644 25.0431C294.918 25.5831 295.241 26.2382 295.603 27.0064L296.061 27.9859L296.521 28.9707H296.598L296.572 28.1963L296.546 27.4208L296.529 25.8709V18.9482H298.81ZM76.9294 39.6738H75.0279V46.3757C75.0279 47.1585 74.9002 47.6514 74.6428 47.8513C74.3854 48.0512 73.7554 48.1516 72.7528 48.1516C71.7743 48.1516 71.1516 48.0522 70.8879 47.8544C70.6242 47.6566 70.4923 47.1888 70.4923 46.4489V39.6738H68.5908V46.4489C68.5908 47.8188 68.8619 48.7178 69.4061 49.1427C69.9481 49.5696 71.093 49.7821 72.8407 49.7821C74.4942 49.7821 75.5899 49.5571 76.1247 49.106C76.6615 48.656 76.9294 47.7341 76.9294 46.3391V39.6738ZM78.9336 42.6773H80.5996L80.5327 43.8588L80.5693 43.8661C80.8969 43.0195 81.6315 42.5967 82.7722 42.5967C84.4309 42.5967 85.2608 43.3701 85.2608 44.9168V49.6952H83.5791V45.4662V45.2025L83.5424 44.7096C83.465 44.1874 83.0527 43.9247 82.3086 43.9247C81.1794 43.9247 80.6143 44.4605 80.6143 45.5332V49.6952H78.9336V42.6773ZM89.3829 49.6942V42.6763H87.7012V49.6942H89.3829ZM89.3829 41.0762V39.6738H87.7012V41.0762H89.3829ZM97.6803 42.6748L95.67 49.6927H93.0422L90.9282 42.6748H92.7115L93.6366 45.9117C93.7643 46.3617 93.8815 46.7981 93.9893 47.2177L94.1578 47.8718L94.3273 48.5248H94.3629L94.5178 47.8718L94.6726 47.225C94.7898 46.7363 94.8997 46.301 95.0023 45.919L95.8688 42.6748H97.6803ZM103.763 45.179L103.771 45.4584H100.71C100.71 44.7834 100.804 44.3449 100.992 44.145C101.179 43.9441 101.588 43.8447 102.214 43.8447C102.859 43.8447 103.28 43.9274 103.472 44.0927C103.667 44.2601 103.763 44.6222 103.763 45.179ZM105.444 47.4478H103.756C103.756 47.8936 103.663 48.1825 103.477 48.3175C103.291 48.4525 102.889 48.5194 102.272 48.5194C101.637 48.5194 101.212 48.4043 100.999 48.1741C100.787 47.9439 100.68 47.4844 100.68 46.7948C100.68 46.7456 100.686 46.6431 100.695 46.4861H105.444V45.9733C105.444 44.6317 105.232 43.7327 104.805 43.2743C104.38 42.817 103.54 42.5889 102.288 42.5889C100.981 42.5889 100.103 42.8233 99.6516 43.2932C99.2016 43.7631 98.9766 44.6808 98.9766 46.0455C98.9766 47.5818 99.1921 48.5885 99.6233 49.0626C100.053 49.5377 100.966 49.7753 102.361 49.7753C104.415 49.7753 105.444 49.0898 105.444 47.7189V47.4478ZM107.687 42.6764H109.367L109.265 43.6601L109.301 43.6674C109.703 42.9328 110.334 42.5654 111.195 42.5654C112.429 42.5654 113.046 43.3451 113.046 44.9012V45.3931H111.46C111.479 45.2016 111.49 45.076 111.49 45.0185C111.49 44.2691 111.198 43.8945 110.616 43.8945C109.784 43.8945 109.367 44.4492 109.367 45.5605V49.6943H107.687V42.6764ZM118.988 44.6065H120.631C120.631 43.8101 120.43 43.2733 120.027 43.0001C119.624 42.726 118.835 42.5889 117.667 42.5889C116.427 42.5889 115.591 42.7312 115.156 43.0138C114.721 43.2984 114.503 43.8415 114.503 44.6442C114.503 45.539 114.742 46.1303 115.219 46.4128C115.696 46.6975 116.685 46.8377 118.188 46.8377C118.853 46.8377 119.185 47.1349 119.185 47.7272C119.185 48.3436 118.655 48.6513 117.593 48.6513C116.566 48.6513 116.085 48.3415 116.154 47.7189C116.16 47.6613 116.174 47.5818 116.198 47.4844H114.452V47.6613C114.452 48.4786 114.671 49.0354 115.112 49.3336C115.553 49.6329 116.372 49.7826 117.571 49.7826C118.819 49.7826 119.683 49.6162 120.166 49.2865C120.648 48.9569 120.889 48.3635 120.889 47.5064C120.889 46.7048 120.709 46.1732 120.347 45.9136C119.984 45.6541 119.203 45.4961 118.004 45.4364C117.114 45.3935 116.591 45.3339 116.437 45.2606C116.283 45.1863 116.206 44.9571 116.206 44.5699C116.206 44.0027 116.644 43.7191 117.519 43.7191C118.131 43.7191 118.517 43.7599 118.676 43.8447C118.834 43.9274 118.932 44.1377 118.965 44.4747L118.972 44.514L118.972 44.5151L118.972 44.5161L118.978 44.5461C118.981 44.5643 118.984 44.5845 118.988 44.6065ZM124.688 42.6763V49.6942H123.006V42.6763H124.688ZM124.688 39.6738V41.0762H123.006V39.6738H124.688ZM131.665 43.9542V42.6764H128.963V41.1045H127.282V42.6764H126.373V43.9542H127.282V47.7185C127.282 49.0947 128.032 49.7822 129.528 49.7822C131.031 49.7822 131.829 49.2453 131.923 48.1737C131.942 47.9435 131.952 47.6683 131.952 47.3449V46.9922H130.519V47.2716C130.519 48.0586 130.249 48.4531 129.705 48.4531C129.21 48.4531 128.963 48.1277 128.963 47.4767V43.9542H131.665ZM139.45 42.6748L137.609 50.1322C137.348 51.1892 137.027 51.8998 136.642 52.265C136.257 52.6292 135.643 52.8124 134.797 52.8124C134.605 52.8124 134.407 52.8008 134.202 52.7831V51.5419C134.349 51.5513 134.47 51.5565 134.569 51.5565C135.283 51.5565 135.736 50.9349 135.926 49.6927H135.068L132.771 42.6748H134.577L135.457 45.6479L135.897 47.1382C135.922 47.2355 135.991 47.4846 136.103 47.8864L136.316 48.6274H136.353L136.506 47.8864L136.552 47.6617L136.603 47.4167C136.629 47.2901 136.648 47.1974 136.66 47.1382L137.006 45.6479L137.682 42.6748H139.45ZM146.795 44.3035C146.985 44.0513 147.43 43.9247 148.13 43.9247C148.821 43.9247 149.26 44.0503 149.451 44.2994C149.642 44.5495 149.737 45.1219 149.737 46.0167C149.737 47.0799 149.646 47.7497 149.462 48.0291C149.279 48.3075 148.836 48.4467 148.137 48.4467C147.413 48.4467 146.96 48.3148 146.78 48.0501C146.598 47.7863 146.508 47.1249 146.508 46.069C146.508 45.1439 146.603 44.5557 146.795 44.3035ZM150.809 43.2466C150.387 42.8123 149.5 42.5967 148.145 42.5967C146.75 42.5967 145.844 42.8164 145.429 43.256C145.012 43.6976 144.804 44.6541 144.804 46.1266C144.804 47.6597 145.016 48.6497 145.439 49.0997C145.862 49.5508 146.793 49.7757 148.226 49.7757C149.547 49.7757 150.412 49.533 150.824 49.0484C151.235 48.5639 151.441 47.5435 151.441 45.9884C151.441 44.5924 151.231 43.6788 150.809 43.2466ZM153.97 49.6942V43.9541H152.979V42.6763H153.97V41.927C153.97 41.0364 154.161 40.4211 154.546 40.0809C154.929 39.7419 155.625 39.5713 156.634 39.5713C156.806 39.5713 157.043 39.5786 157.346 39.5933V40.9066C157.115 40.8543 156.921 40.8271 156.759 40.8271C156.02 40.8271 155.649 41.1934 155.649 41.928L155.651 42.6763H157.398V43.9541H155.651V49.6942H153.97ZM167.586 41.1494L169.318 46.3684H165.883L167.586 41.1494ZM165.435 47.7707H169.76L170.397 49.6942H172.373L168.988 39.6738H166.132L162.8 49.6942H164.812L165.435 47.7707ZM177.279 43.9169C176.638 43.9169 176.218 44.0624 176.024 44.3501C175.828 44.639 175.73 45.2512 175.73 46.1857C175.73 47.0951 175.835 47.7 176.046 47.9983C176.256 48.2965 176.683 48.4462 177.33 48.4462C177.986 48.4462 178.412 48.3039 178.606 48.0192C178.803 47.7367 178.9 47.1276 178.9 46.1931C178.9 45.2334 178.802 44.6149 178.603 44.3355C178.405 44.0571 177.964 43.9169 177.279 43.9169ZM173.968 42.6768H175.678L175.611 43.7191L175.649 43.7254C176.055 42.9677 176.811 42.5889 177.917 42.5889C178.94 42.5889 179.643 42.8421 180.029 43.3486C180.412 43.8541 180.604 44.7792 180.604 46.1198C180.604 47.519 180.413 48.4786 180.031 48.9967C179.65 49.5157 178.941 49.7753 177.909 49.7753C176.808 49.7753 176.089 49.4079 175.752 48.6733H175.722V52.7034H173.968V42.6768ZM184.843 44.3501C185.04 44.0624 185.457 43.9169 186.099 43.9169C186.783 43.9169 187.225 44.0571 187.424 44.3355C187.621 44.6149 187.721 45.2334 187.721 46.1931C187.721 47.1276 187.622 47.7367 187.428 48.0192C187.231 48.3039 186.806 48.4462 186.149 48.4462C185.504 48.4462 185.075 48.2965 184.865 47.9983C184.655 47.7 184.55 47.0951 184.55 46.1857C184.55 45.2512 184.647 44.639 184.843 44.3501ZM184.498 42.6768H182.789V52.7034H184.543V48.6733H184.572C184.91 49.4079 185.629 49.7753 186.731 49.7753C187.763 49.7753 188.469 49.5157 188.851 48.9967C189.233 48.4786 189.423 47.519 189.423 46.1198C189.423 44.7792 189.232 43.8541 188.848 43.3486C188.463 42.8421 187.76 42.5889 186.736 42.5889C185.632 42.5889 184.875 42.9677 184.468 43.7254L184.433 43.7191L184.498 42.6768ZM193.287 39.6738V49.6942H191.607V39.6738H193.287ZM197.402 49.6942V42.6763H195.722V49.6942H197.402ZM197.402 41.0762V39.6738H195.722V41.0762H197.402ZM204.372 45.4584L204.364 45.179C204.364 44.6222 204.268 44.2601 204.075 44.0927C203.881 43.9274 203.461 43.8447 202.816 43.8447C202.189 43.8447 201.782 43.9441 201.593 44.145C201.405 44.3449 201.31 44.7834 201.31 45.4584H204.372ZM204.356 47.4478H206.046V47.7189C206.046 49.0898 205.017 49.7753 202.963 49.7753C201.569 49.7753 200.655 49.5377 200.225 49.0626C199.794 48.5885 199.578 47.5818 199.578 46.0455C199.578 44.6808 199.803 43.7631 200.253 43.2932C200.704 42.8233 201.582 42.5889 202.888 42.5889C204.142 42.5889 204.981 42.817 205.406 43.2743C205.833 43.7327 206.046 44.6317 206.046 45.9733V46.4861H201.296C201.286 46.6431 201.282 46.7456 201.282 46.7948C201.282 47.4844 201.388 47.9439 201.6 48.1741C201.813 48.4043 202.238 48.5194 202.874 48.5194C203.49 48.5194 203.892 48.4525 204.077 48.3175C204.264 48.1825 204.356 47.8936 204.356 47.4478ZM209.962 44.3245C210.147 44.0577 210.553 43.9237 211.18 43.9237C211.835 43.9237 212.268 44.0587 212.476 44.3287C212.683 44.5966 212.789 45.1628 212.789 46.023C212.789 47.0653 212.692 47.7309 212.505 48.0187C212.318 48.3086 211.885 48.453 211.21 48.453C210.564 48.453 210.148 48.3065 209.962 48.0135C209.776 47.7184 209.683 47.0632 209.683 46.045C209.683 45.1638 209.776 44.5903 209.962 44.3245ZM214.476 49.6942V39.6738H212.795V43.6746L212.766 43.682C212.482 42.9578 211.767 42.5957 210.621 42.5957C209.635 42.5957 208.947 42.8385 208.56 43.3262C208.173 43.8128 207.98 44.6814 207.98 45.9351C207.98 47.486 208.159 48.5148 208.519 49.0213C208.879 49.5288 209.615 49.7821 210.725 49.7821C211.826 49.7821 212.542 49.3729 212.869 48.5556L212.898 48.5629L212.84 49.6942H214.476ZM228.937 42.5938H227.08C227.069 42.5006 227.065 42.4315 227.065 42.3886C227.021 41.8246 226.895 41.4708 226.69 41.3275C226.485 41.1831 226.001 41.1098 225.237 41.1098C224.337 41.1098 223.749 41.1946 223.471 41.3599C223.195 41.5263 223.059 41.8769 223.059 42.4096C223.059 43.0406 223.17 43.4205 223.395 43.5482C223.619 43.6748 224.364 43.7732 225.626 43.8422C227.119 43.9249 228.083 44.1374 228.523 44.4796C228.959 44.8218 229.178 45.5345 229.178 46.6155C229.178 47.9467 228.921 48.8069 228.408 49.1962C227.895 49.5844 226.761 49.7801 225.011 49.7801C223.432 49.7801 222.387 49.5886 221.872 49.2077C221.354 48.8257 221.097 48.0524 221.097 46.8876L221.089 46.5203H222.939L222.946 46.7327C222.946 47.4339 223.069 47.8619 223.313 48.0168C223.559 48.1738 224.228 48.2533 225.318 48.2533C226.169 48.2533 226.711 48.1622 226.947 47.9812C227.182 47.8001 227.3 47.3815 227.3 46.7254C227.3 46.2408 227.21 45.9196 227.031 45.7605C226.851 45.6025 226.467 45.5051 225.877 45.4706L224.826 45.4047C223.239 45.3115 222.228 45.0918 221.786 44.7443C221.347 44.3969 221.128 43.6507 221.128 42.5058C221.128 41.3369 221.392 40.5562 221.922 40.1669C222.454 39.7776 223.513 39.584 225.106 39.584C226.611 39.584 227.628 39.7629 228.15 40.1198C228.676 40.4777 228.937 41.1747 228.937 42.2118V42.5938ZM237.375 47.0151H235.701C235.701 47.622 235.619 48.0124 235.455 48.1861C235.29 48.3598 234.92 48.4467 234.342 48.4467C233.61 48.4467 233.147 48.3201 232.958 48.0689C232.771 47.8167 232.677 47.2024 232.677 46.2218C232.677 45.2098 232.763 44.5725 232.932 44.313C233.104 44.0545 233.526 43.9247 234.197 43.9247C235.14 43.9247 235.612 44.3328 235.612 45.1512H237.28C237.28 44.1581 237.063 43.4841 236.633 43.1294C236.201 42.7746 235.381 42.5967 234.166 42.5967C232.909 42.5967 232.061 42.8416 231.627 43.3303C231.19 43.8201 230.973 44.7692 230.973 46.1789C230.973 47.622 231.19 48.5827 231.627 49.0599C232.061 49.5371 232.942 49.7757 234.261 49.7757C236.063 49.7757 237.065 49.2912 237.271 48.3221L237.375 47.2578V47.0151ZM241.069 42.6763V49.6942H239.389V42.6763H241.069ZM241.069 39.6738V41.0762H239.389V39.6738H241.069ZM248.032 45.179L248.039 45.4584H244.977C244.977 44.7834 245.073 44.3449 245.261 44.145C245.451 43.9441 245.856 43.8447 246.484 43.8447C247.13 43.8447 247.548 43.9274 247.744 44.0927C247.936 44.2601 248.032 44.6222 248.032 45.179ZM249.712 47.4478H248.025C248.025 47.8936 247.931 48.1825 247.746 48.3175C247.559 48.4525 247.159 48.5194 246.543 48.5194C245.905 48.5194 245.481 48.4043 245.269 48.1741C245.056 47.9439 244.948 47.4844 244.948 46.7948C244.948 46.7456 244.954 46.6431 244.963 46.4861H249.712V45.9733C249.712 44.6317 249.5 43.7327 249.075 43.2743C248.648 42.817 247.809 42.5889 246.557 42.5889C245.249 42.5889 244.372 42.8233 243.92 43.2932C243.472 43.7631 243.246 44.6808 243.246 46.0455C243.246 47.5818 243.462 48.5885 243.891 49.0626C244.322 49.5377 245.235 49.7753 246.628 49.7753C248.685 49.7753 249.712 49.0898 249.712 47.7189V47.4478ZM251.898 42.6773H253.563L253.496 43.8588L253.535 43.8661C253.862 43.0195 254.597 42.5967 255.734 42.5967C257.396 42.5967 258.224 43.3701 258.224 44.9168V49.6952H256.544V45.4662V45.2025L256.509 44.7096C256.429 44.1874 256.017 43.9247 255.275 43.9247C254.144 43.9247 253.578 44.4605 253.578 45.5332V49.6952H251.898V42.6773ZM266.795 47.0151H265.121C265.121 47.622 265.039 48.0124 264.875 48.1861C264.712 48.3598 264.34 48.4467 263.762 48.4467C263.03 48.4467 262.566 48.3201 262.379 48.0689C262.189 47.8167 262.097 47.2024 262.097 46.2218C262.097 45.2098 262.183 44.5725 262.354 44.313C262.524 44.0545 262.946 43.9247 263.617 43.9247C264.562 43.9247 265.033 44.3328 265.033 45.1512H266.7C266.7 44.1581 266.482 43.4841 266.053 43.1294C265.623 42.7746 264.8 42.5967 263.586 42.5967C262.329 42.5967 261.484 42.8416 261.048 43.3303C260.612 43.8201 260.394 44.7692 260.394 46.1789C260.394 47.622 260.612 48.5827 261.048 49.0599C261.484 49.5371 262.361 49.7757 263.682 49.7757C265.483 49.7757 266.487 49.2912 266.693 48.3221L266.795 47.2578V47.0151ZM273.347 45.4584L273.34 45.179C273.34 44.6222 273.242 44.2601 273.051 44.0927C272.855 43.9274 272.437 43.8447 271.791 43.8447C271.163 43.8447 270.758 43.9441 270.568 44.145C270.38 44.3449 270.285 44.7834 270.285 45.4584H273.347ZM273.332 47.4478H275.019V47.7189C275.019 49.0898 273.994 49.7753 271.936 49.7753C270.542 49.7753 269.632 49.5377 269.199 49.0626C268.769 48.5885 268.552 47.5818 268.552 46.0455C268.552 44.6808 268.779 43.7631 269.227 43.2932C269.678 42.8233 270.557 42.5889 271.865 42.5889C273.117 42.5889 273.955 42.817 274.382 43.2743C274.807 43.7327 275.019 44.6317 275.019 45.9733V46.4861H270.27C270.261 46.6431 270.255 46.7456 270.255 46.7948C270.257 47.4844 270.363 47.9439 270.576 48.1741C270.788 48.4043 271.213 48.5194 271.85 48.5194C272.466 48.5194 272.867 48.4525 273.053 48.3175C273.239 48.1825 273.332 47.8936 273.332 47.4478ZM281.416 44.6065H283.06C283.06 43.8101 282.86 43.2733 282.456 43.0001C282.05 42.726 281.265 42.5889 280.096 42.5889C278.858 42.5889 278.02 42.7312 277.586 43.0138C277.149 43.2984 276.932 43.8415 276.932 44.6442C276.932 45.539 277.17 46.1303 277.647 46.4128C278.125 46.6975 279.115 46.8377 280.616 46.8377C281.282 46.8377 281.614 47.1349 281.614 47.7272C281.614 48.3436 281.084 48.6513 280.022 48.6513C278.993 48.6513 278.514 48.3415 278.583 47.7189C278.588 47.6613 278.602 47.5818 278.627 47.4844H276.88V47.6613C276.88 48.4786 277.101 49.0354 277.54 49.3336C277.981 49.6329 278.801 49.7826 280.001 49.7826C281.249 49.7826 282.112 49.6162 282.594 49.2865C283.077 48.9569 283.317 48.3635 283.317 47.5064C283.317 46.7048 283.135 46.1732 282.776 45.9136C282.412 45.6541 281.633 45.4961 280.432 45.4364C279.543 45.3935 279.019 45.3339 278.866 45.2606C278.712 45.1863 278.636 44.9571 278.635 44.5699C278.635 44.0027 279.073 43.7191 279.948 43.7191C280.559 43.7191 280.945 43.7599 281.105 43.8447C281.263 43.9274 281.36 44.1377 281.394 44.4747C281.397 44.4915 281.401 44.5136 281.405 44.5402L281.416 44.6065Z" fill="white"/>
</g>
<defs>
<clipPath id="clip0_1_1108">
<rect width="298.256" height="52.3256" fill="white" transform="translate(0.348633 0.488281)"/>
</clipPath>
</defs>
</svg>
