<svg width="163" height="34" viewBox="0 0 163 34" fill="none" xmlns="http://www.w3.org/2000/svg">
<path d="M57.5453 19.5831L56.5736 22.2714H56.4926C56.3307 21.6652 56.0338 20.7428 55.548 19.6358L50.3386 6.853H45.2373V27.2264H48.6112V14.6545C48.6112 13.8638 48.6112 12.9677 48.5842 11.8607C48.5572 11.3072 48.5032 10.8855 48.4763 10.5692H48.5572C48.7192 11.3599 48.9081 11.9398 49.0431 12.3088L55.305 27.1737H57.6803L63.8882 12.177C64.0232 11.8343 64.1582 11.1491 64.2931 10.5692H64.3741C64.2931 12.0715 64.2391 13.4157 64.2121 14.2328V27.1474H67.802V6.80028H62.8896L57.5453 19.5831ZM71.2029 12.546H74.7117V27.1474H71.2029V12.546ZM72.9843 6.37858C72.3905 6.37858 71.9046 6.58943 71.4998 6.95842C71.0949 7.32741 70.879 7.80182 70.879 8.38166C70.879 8.93514 71.0949 9.40956 71.4998 9.77855C71.9046 10.1475 72.3905 10.332 72.9843 10.332C73.5781 10.332 74.0909 10.1212 74.4688 9.77855C74.8737 9.40956 75.0896 8.93514 75.0896 8.38166C75.0896 7.82818 74.8737 7.35377 74.4688 6.95842C74.1179 6.58943 73.6051 6.37858 72.9843 6.37858ZM87.1547 12.4142C86.5069 12.2824 85.8321 12.2033 85.1843 12.2033C83.5918 12.2033 82.1343 12.546 80.9197 13.2312C79.7051 13.9165 78.7334 14.8653 78.1126 16.0513C77.4648 17.2637 77.1409 18.6606 77.1409 20.2684C77.1409 21.6652 77.4648 22.904 78.0856 24.0373C78.7064 25.1443 79.5701 26.0404 80.7308 26.6466C81.8374 27.2528 83.133 27.5691 84.5905 27.5691C86.264 27.5691 87.6945 27.2264 88.8281 26.5939L88.8551 26.5675V23.4048L88.7202 23.5102C88.2073 23.8792 87.6135 24.1954 87.0197 24.3799C86.3989 24.5908 85.8321 24.6962 85.3463 24.6962C83.9427 24.6962 82.8361 24.3009 82.0533 23.4311C81.2436 22.5877 80.8387 21.428 80.8387 19.9784C80.8387 18.4761 81.2436 17.2901 82.0803 16.4203C82.9171 15.5506 84.0237 15.1025 85.3733 15.1025C86.5069 15.1025 87.6675 15.4715 88.7202 16.2095L88.8551 16.3149V12.9677L88.8281 12.9413C88.3693 12.7568 87.8564 12.546 87.1547 12.4142ZM98.7339 12.3088C97.8702 12.3088 97.0605 12.5723 96.3587 13.1258C95.7649 13.6002 95.36 14.2855 95.0091 15.1025H94.9821V12.546H91.4733V27.1474H94.9821V19.6885C94.9821 18.4234 95.252 17.3692 95.8459 16.6048C96.4397 15.8141 97.1954 15.4188 98.1131 15.4188C98.437 15.4188 98.7609 15.4979 99.1658 15.5506C99.5437 15.656 99.8136 15.7614 100.003 15.8932L100.137 15.9986V12.5723L100.056 12.546C99.8136 12.3878 99.3277 12.3088 98.7339 12.3088ZM108.289 12.2297C105.833 12.2297 103.862 12.9413 102.486 14.3382C101.082 15.7351 100.407 17.6591 100.407 20.0839C100.407 22.3505 101.109 24.1954 102.459 25.5396C103.808 26.8574 105.644 27.5427 107.938 27.5427C110.34 27.5427 112.257 26.8311 113.633 25.4078C115.037 23.9846 115.711 22.0869 115.711 19.7412C115.711 17.4219 115.064 15.5769 113.741 14.2328C112.472 12.8886 110.61 12.2297 108.289 12.2297ZM111.096 23.4575C110.448 24.2745 109.422 24.6699 108.154 24.6699C106.885 24.6699 105.86 24.2745 105.131 23.4048C104.402 22.5877 104.051 21.4017 104.051 19.8994C104.051 18.3443 104.429 17.1583 105.131 16.3149C105.86 15.4715 106.858 15.0498 108.127 15.0498C109.368 15.0498 110.34 15.4452 111.042 16.2622C111.744 17.0792 112.122 18.2653 112.122 19.8203C112.068 21.4017 111.771 22.6404 111.096 23.4575ZM123.539 18.6079C122.432 18.1599 121.73 17.8172 121.407 17.5273C121.137 17.2637 121.002 16.8947 121.002 16.4203C121.002 16.025 121.164 15.6296 121.568 15.3661C121.973 15.1025 122.432 14.9707 123.107 14.9707C123.701 14.9707 124.322 15.0762 124.915 15.2343C125.509 15.3924 126.049 15.6296 126.481 15.9459L126.616 16.0513V12.8359L126.535 12.8095C126.13 12.6514 125.59 12.4932 124.942 12.3615C124.295 12.256 123.701 12.2033 123.215 12.2033C121.542 12.2033 120.165 12.5987 119.085 13.4684C118.006 14.2855 117.493 15.3924 117.493 16.6839C117.493 17.3692 117.601 17.9754 117.844 18.4761C118.087 18.9769 118.438 19.4513 118.923 19.8467C119.409 20.2156 120.111 20.6373 121.083 21.0327C121.892 21.3753 122.513 21.6389 122.891 21.8497C123.269 22.0606 123.512 22.2978 123.701 22.4823C123.836 22.6931 123.917 22.9567 123.917 23.2993C123.917 24.2745 123.161 24.7489 121.622 24.7489C121.029 24.7489 120.408 24.6435 119.679 24.4063C118.95 24.1691 118.276 23.8265 117.709 23.4311L117.574 23.3257V26.6729L117.655 26.6993C118.168 26.9365 118.788 27.0946 119.544 27.2791C120.3 27.4109 120.975 27.5163 121.568 27.5163C123.377 27.5163 124.861 27.121 125.914 26.2512C126.994 25.4078 127.561 24.3272 127.561 22.9303C127.561 21.9552 127.291 21.0854 126.697 20.4265C125.914 19.7939 124.942 19.135 123.539 18.6079ZM136.819 12.2297C134.362 12.2297 132.392 12.9413 131.015 14.3382C129.639 15.7351 128.937 17.6591 128.937 20.0839C128.937 22.3505 129.639 24.1954 130.988 25.5396C132.338 26.8574 134.173 27.5427 136.468 27.5427C138.87 27.5427 140.786 26.8311 142.163 25.4078C143.566 23.9846 144.241 22.0869 144.241 19.7412C144.241 17.4219 143.593 15.5769 142.271 14.2328C141.002 12.8886 139.14 12.2297 136.819 12.2297ZM139.599 23.4575C138.951 24.2745 137.925 24.6699 136.657 24.6699C135.361 24.6699 134.362 24.2745 133.634 23.4048C132.905 22.5877 132.554 21.4017 132.554 19.8994C132.554 18.3443 132.932 17.1583 133.634 16.3149C134.362 15.4715 135.361 15.0498 136.63 15.0498C137.844 15.0498 138.843 15.4452 139.545 16.2622C140.246 17.0792 140.624 18.2653 140.624 19.8203C140.624 21.4017 140.273 22.6404 139.599 23.4575ZM163 15.3661V12.546H159.464V8.22352L159.356 8.24988L156.009 9.22506L155.928 9.25142V12.546H150.638V10.701C150.638 9.85761 150.854 9.19871 151.232 8.77701C151.61 8.3553 152.177 8.14445 152.878 8.14445C153.364 8.14445 153.877 8.24988 154.444 8.48709L154.579 8.56616V5.58789L154.498 5.56154C154.012 5.4034 153.364 5.29797 152.527 5.29797C151.475 5.29797 150.557 5.53518 149.72 5.93052C148.884 6.37858 148.263 6.98478 147.804 7.80182C147.345 8.59251 147.102 9.48863 147.102 10.5165V12.546H144.646V15.3397H147.102V27.1474H150.638V15.3661H155.928V22.8776C155.928 25.9613 157.413 27.5163 160.382 27.5163C160.868 27.5163 161.381 27.4373 161.866 27.3582C162.379 27.2528 162.757 27.121 162.973 27.0156L163 26.9892V24.1691L162.865 24.2745C162.649 24.4063 162.46 24.5117 162.136 24.5908C161.866 24.6699 161.623 24.6962 161.435 24.6962C160.733 24.6962 160.247 24.5381 159.896 24.1427C159.572 23.7737 159.41 23.1675 159.41 22.2714V15.3661H163Z" fill="#737373"/>
<path d="M0 0H16.5456V16.1564H0V0Z" fill="#F25022"/>
<path d="M18.2734 0H34.8191V16.1564H18.2734V0Z" fill="#7FBA00"/>
<path d="M0 17.8438H16.5456V34.0002H0V17.8438Z" fill="#00A4EF"/>
<path d="M18.2734 17.8438H34.8191V34.0002H18.2734V17.8438Z" fill="#FFB900"/>
</svg>
