<svg width="180" height="47" viewBox="0 0 180 47" fill="none" xmlns="http://www.w3.org/2000/svg">
<path fill-rule="evenodd" clip-rule="evenodd" d="M8.36845 26H6.1185L0 41.974H2.27187L4.11587 37.0837H10.1905L11.901 41.974H14.1728L8.36845 26ZM7.1986 28.6247H7.24347L9.5383 35.2426H4.76915L7.1986 28.6247Z" fill="#231F20"/>
<path fill-rule="evenodd" clip-rule="evenodd" d="M177.148 33.9752V31.9011H178.099C178.62 31.9011 178.893 32.1092 178.893 32.4849C178.893 32.6827 178.841 32.7867 178.632 32.9428L178.693 33.0469L178.799 33.1833C178.82 33.2249 178.851 33.3602 178.861 33.4955L178.871 33.6412L178.882 33.7452L178.893 33.8191C178.893 33.8481 178.902 33.879 178.911 33.9082L178.913 33.9118C178.913 33.9427 178.919 33.9512 178.926 33.9615C178.929 33.9654 178.932 33.9695 178.934 33.9752H178.62C178.579 33.8909 178.568 33.8608 178.559 33.6204C178.537 33.1728 178.465 33.1094 177.994 33.1094H177.472V33.9752H177.148ZM178.036 32.1613H177.472V32.8388H177.994C178.391 32.8492 178.579 32.7451 178.579 32.5057C178.579 32.2768 178.412 32.1613 178.036 32.1613Z" fill="#231F20"/>
<path fill-rule="evenodd" clip-rule="evenodd" d="M176.019 32.9543C176.019 31.8699 176.908 30.9842 178.015 30.9842C179.112 30.9842 180 31.8699 180 32.9543C180 34.0377 179.112 34.9129 178.015 34.9129C176.908 34.9129 176.019 34.0377 176.019 32.9543ZM179.687 32.9543C179.687 32.026 178.934 31.286 178.015 31.286C177.084 31.286 176.333 32.026 176.333 32.9543C176.333 33.8701 177.084 34.6215 178.015 34.6215C178.934 34.6215 179.687 33.8701 179.687 32.9543Z" fill="#231F20"/>
<path d="M15.1404 31.2504H16.8498V32.5971H16.8946C17.5698 31.7218 18.6499 30.9819 19.9095 30.9819C21.0794 30.9819 22.4517 31.4523 23.0361 32.8437C23.8021 31.7895 25.1514 30.9819 26.2994 30.9819C28.0536 30.9819 29.8089 31.7447 29.8089 34.8856V41.975H27.9639V34.7951C27.9639 33.4713 27.3795 32.6866 26.0739 32.6866C24.9271 32.6866 23.3972 33.3141 23.3972 34.9304V41.975H21.5521V34.7951C21.5521 33.4713 20.9667 32.6866 19.6622 32.6866C18.5143 32.6866 16.9854 33.3141 16.9854 34.9304V41.975H15.1404V31.2504Z" fill="#231F20"/>
<path fill-rule="evenodd" clip-rule="evenodd" d="M36.1066 40.8059C33.9913 40.8059 32.8663 39.146 32.8663 37.0146H41.0334V36.5879C41.0334 33.4251 39.3908 30.9794 36.0159 30.9794C32.5293 30.9794 30.8867 33.2222 30.8867 36.7003C30.8867 39.7517 32.7536 42.3098 36.0388 42.2421C38.4234 42.2421 40.2455 41.0297 40.9436 38.6298L39.1205 38.406C38.7156 39.9983 37.7263 40.8059 36.1066 40.8059ZM35.8134 32.4146C37.8379 32.4146 38.8283 33.8289 39.0537 35.5784H32.8663C32.979 33.9413 34.0143 32.4146 35.8134 32.4146Z" fill="#231F20"/>
<path d="M42.1146 31.2492H43.9597V33.0892H44.0046C44.8812 31.6312 45.9394 31.115 47.8063 31.115V33.134C47.4463 33.1121 46.8838 33.0892 46.5687 33.0892C44.7914 33.0892 43.9597 34.7263 43.9597 35.9606V41.9739H42.1146V31.2492Z" fill="#231F20"/>
<path d="M50.9179 41.9735H49.0729V31.2489H50.9179V41.9735Z" fill="#231F20"/>
<path d="M54.3144 38.2051C54.3144 40.2022 55.8891 40.8079 57.3741 40.8079C58.2288 40.8079 59.7817 40.5384 59.7817 38.9679C59.7817 37.7828 58.3993 37.517 56.8615 37.2212C54.9341 36.8505 52.7626 36.4329 52.7626 34.0994C52.7626 31.9233 54.8998 30.9814 56.8116 30.9814C58.2737 30.9814 61.4243 31.7214 61.4243 34.4803L59.5792 34.727C59.5792 33.1565 58.2967 32.4166 56.9014 32.4166C55.9121 32.4166 54.6066 32.708 54.6066 34.0099C54.6066 35.053 55.9326 35.3268 57.4429 35.6387C59.4408 36.0512 61.7613 36.5304 61.7613 38.945C61.7613 41.2117 59.4435 42.2441 57.1038 42.2441C54.7422 42.2441 52.582 41.167 52.3347 38.4517L54.3144 38.2051Z" fill="#231F20"/>
<path fill-rule="evenodd" clip-rule="evenodd" d="M73.1012 36.6122C73.1012 33.3599 71.1215 30.9819 67.8364 30.9819C64.5522 30.9819 62.5725 33.3599 62.5725 36.6122C62.5725 39.8655 64.5522 42.2445 67.8364 42.2445C71.1215 42.2445 73.1012 39.8655 73.1012 36.6122ZM71.1215 36.6122C71.1215 38.3856 70.4912 40.8083 67.8364 40.8083C65.1825 40.8083 64.5522 38.3856 64.5522 36.6122C64.5522 34.8409 65.1825 32.417 67.8364 32.417C70.4912 32.417 71.1215 34.8409 71.1215 36.6122Z" fill="#231F20"/>
<path d="M83.0218 41.9751H81.1768V40.54H81.1329C80.4348 41.6161 79.3777 42.2447 77.9824 42.2447C75.8232 42.2447 74.1806 41.3028 74.1806 38.318V31.2505H76.0257V38.318C76.0257 39.8437 76.9701 40.54 78.2975 40.54C80.0069 40.54 81.1768 39.4399 81.1768 37.7123V31.2505H83.0218V41.9751Z" fill="#231F20"/>
<path d="M86.5964 31.2496H84.7524V41.9743H86.5964V35.961C86.5964 34.7267 87.4291 33.0896 89.2063 33.0896C89.5215 33.0896 90.084 33.1125 90.444 33.1344V31.1154C88.5771 31.1154 87.5189 31.6316 86.6423 33.0896H86.5964V31.2496Z" fill="#231F20"/>
<path d="M98.6788 34.7941C98.4085 33.336 97.3065 32.416 95.8215 32.416C93.2125 32.416 92.4695 34.6817 92.4695 36.6341C92.4695 38.7197 93.3471 40.8074 95.7766 40.8074C97.5987 40.8074 98.7904 39.7302 98.8583 37.9131L100.838 38.0692C100.524 40.6721 98.5431 42.2436 95.8434 42.2436C92.3798 42.2436 90.4898 39.9987 90.4898 36.7236C90.4898 33.4037 92.3568 30.9798 95.8215 30.9798C98.0714 30.9798 100.141 32.1465 100.658 34.5922L98.6788 34.7941Z" fill="#231F20"/>
<path fill-rule="evenodd" clip-rule="evenodd" d="M106.733 40.8059C104.619 40.8059 103.494 39.146 103.494 37.0146H111.66V36.5879C111.66 33.4251 110.017 30.9794 106.642 30.9794C103.156 30.9794 101.513 33.2222 101.513 36.7003C101.513 39.7517 103.38 42.3098 106.666 42.2421C109.05 42.2421 110.872 41.0297 111.57 38.6298L109.748 38.406C109.342 39.9983 108.353 40.8059 106.733 40.8059ZM106.441 32.4146C108.465 32.4146 109.456 33.8289 109.681 35.5784H103.494C103.605 33.9413 104.641 32.4146 106.441 32.4146Z" fill="#231F20"/>
<path fill-rule="evenodd" clip-rule="evenodd" d="M112.919 26.0004H120.411C124.302 26.0004 125.495 28.2442 125.495 30.1508C125.495 31.7889 124.483 33.1127 123.155 33.5165V33.5613C125.113 34.0327 125.968 35.6479 125.968 37.6221C125.968 38.8335 125.382 41.9744 121.108 41.9744H112.919V26.0004ZM115.033 40.1344H120.726C122.435 40.1126 123.673 39.3268 123.673 37.5316C123.673 34.7508 121.783 34.6155 119.961 34.6155H115.033V40.1344ZM115.033 32.7766H119.915C121.647 32.7766 123.201 32.3499 123.201 30.2403C123.201 27.8404 121.491 27.8404 119.894 27.8404H115.033V32.7766Z" fill="#231F20"/>
<path fill-rule="evenodd" clip-rule="evenodd" d="M132.064 40.8059C129.949 40.8059 128.824 39.146 128.824 37.0146H136.991V36.5879C136.991 33.4251 135.348 30.9794 131.974 30.9794C128.487 30.9794 126.844 33.2222 126.844 36.7003C126.844 39.7517 128.712 42.3098 131.996 42.2421C134.382 42.2421 136.204 41.0297 136.901 38.6298L135.078 38.406C134.674 39.9983 133.684 40.8059 132.064 40.8059ZM131.772 32.4146C133.797 32.4146 134.786 33.8289 135.011 35.5784H128.824C128.938 33.9413 129.972 32.4146 131.772 32.4146Z" fill="#231F20"/>
<path d="M138.072 31.2496H139.916V33.0896H139.961C140.839 31.6316 141.897 31.1154 143.764 31.1154V33.1344C143.404 33.1125 142.841 33.0896 142.526 33.0896C140.749 33.0896 139.916 34.7267 139.916 35.961V41.9743H138.072V31.2496Z" fill="#231F20"/>
<path fill-rule="evenodd" clip-rule="evenodd" d="M154.267 31.2497H152.423V32.7307L152.377 32.7078C151.748 31.6754 150.466 30.9802 148.733 30.9802C145.358 30.9802 143.807 33.4935 143.807 36.6115C143.807 41.1668 146.843 42.2439 148.71 42.2439C150.286 42.2439 151.365 41.6153 152.377 40.3134H152.423V41.8391C152.423 43.3648 152.377 45.5638 149.251 45.5638C147.653 45.5638 146.258 44.801 146.303 43.0723H144.324C144.481 45.9 146.708 47 149.318 47C153.952 47 154.267 43.6791 154.267 42.0639V31.2497ZM148.958 40.6724C146.82 40.6724 145.651 38.8553 145.651 36.6115C145.651 33.8526 147.069 32.5506 148.958 32.5506C150.983 32.5506 152.356 33.583 152.423 36.5449C152.468 38.72 151.095 40.6724 148.958 40.6724Z" fill="#231F20"/>
<path fill-rule="evenodd" clip-rule="evenodd" d="M157.194 37.0146C157.194 39.146 158.319 40.8059 160.433 40.8059C162.053 40.8059 163.042 39.9983 163.448 38.406L165.27 38.6298C164.572 41.0297 162.75 42.2421 160.365 42.2421C157.08 42.3098 155.213 39.7517 155.213 36.7003C155.213 33.2222 156.856 30.9794 160.342 30.9794C163.717 30.9794 165.36 33.4251 165.36 36.5879V37.0146H157.194ZM163.38 35.5784C163.156 33.8289 162.165 32.4146 160.141 32.4146C158.341 32.4146 157.306 33.9413 157.194 35.5784H163.38Z" fill="#231F20"/>
<path d="M168.284 31.2504H166.438V41.975H168.284V35.5132C168.284 33.7856 169.453 32.6866 171.163 32.6866C172.468 32.6866 173.435 33.2475 173.435 35.0875V41.975H175.28V34.9075C175.28 31.9237 173.639 30.9819 171.477 30.9819C170.083 30.9819 169.026 31.6094 168.329 32.6866H168.284V31.2504Z" fill="#231F20"/>
<path d="M39.8698 0.824285C36.7202 2.14668 35 4.53286 35 4.53286C35.277 4.49005 35.5491 4.32475 35.8247 4.1573C36.021 4.03804 36.2191 3.91768 36.422 3.83972C41.4117 1.90586 45.1941 2.5791 49.6949 6.33584C53.3866 9.72506 54.7523 14.8325 53.5158 19.81C52.9132 21.9449 51.879 23.9782 50.385 25.6954C55.283 22.8967 58.0124 17.7181 57.4817 12.0484C57.0074 7.79225 53.9568 3.44499 50.1265 1.61793L50.0168 1.5608C48.5527 0.79692 44.967 -1.07394 39.8698 0.824285Z" fill="#00529B"/>
<path d="M50.3682 25.9511C54.6458 24.7073 58.7285 20.6228 59.7929 16.2766C61.0565 11.3713 59.7783 6.30786 55.9709 2.94586H62V25.9511H50.3682Z" fill="#00529B"/>
<path d="M49.3875 25.9512H39.0287C40.2599 24.4959 41.1993 22.0563 41.5965 19.1769C44.9108 20.3182 47.7413 22.7442 49.3875 25.9512Z" fill="#00529B"/>
<path d="M41.8643 13.0169C41.7768 12.9777 41.6886 12.9409 41.601 12.9045L41.5692 12.8912C41.7329 13.8953 41.8246 14.9685 41.8246 16.0962C41.8246 16.3684 41.8184 16.6375 41.809 16.9055C45.1827 18.4415 48.0216 21.4004 49.2038 24.8326L49.5927 26C49.7501 20.5754 46.8049 15.3256 41.8643 13.0169Z" fill="#00529B"/>
<path d="M37.2728 5.26412C40.0043 4.85578 42.593 5.40337 44.8251 6.48076C49.8241 9.00515 52.6244 14.3136 52.0073 19.9832C51.7195 22.1767 51.0596 24.2394 49.7949 25.9994C50.3694 23.1578 50.2829 20.1277 49.2059 17.5604C47.8412 13.7963 44.4716 10.6804 40.6111 9.47212C39.7259 7.25452 38.4748 5.73947 37.2728 5.26412Z" fill="#00529B"/>
</svg>
