<svg width="161" height="40" viewBox="0 0 161 40" fill="none" xmlns="http://www.w3.org/2000/svg">
<path d="M77.082 29.8072H73.7194L72.7585 26.9337H67.807L66.8463 29.8072H63.4836L68.2136 16.3728H72.463L77.082 29.8072ZM70.2828 19.0223L68.5091 24.2841H71.9826L70.2828 19.0223ZM84.0289 29.8072H80.6294V16.3728H85.9505C89.4979 16.3728 91.3455 18.0147 91.3455 20.627C91.3455 22.4183 90.4216 23.799 88.6111 24.5081L91.5672 29.8072H88.2045L85.544 25.2917L83.9921 25.4037V29.8073L84.0289 29.8072ZM85.6919 22.8661C87.1329 22.7541 87.909 22.157 87.909 20.8509C87.909 19.6567 87.096 19.097 85.3962 19.097H83.9921V22.9034L85.6919 22.8661ZM105.239 19.918C104.242 19.3209 103.059 18.9477 101.877 18.9477C99.5858 18.9477 98.1078 20.515 98.1078 23.0527C98.1078 25.5903 99.5119 27.2323 101.914 27.2323C103.207 27.2323 104.426 26.7844 105.424 26.15L106.126 29.1728C105.092 29.7699 103.318 30.1431 101.766 30.1431C97.5164 30.1431 94.7081 27.6801 94.7081 23.1646C94.7081 18.8357 97.4796 16.0742 101.877 16.0742C103.503 16.0742 105.055 16.4847 106.274 17.0818L105.239 19.918ZM115.808 30.1431C111.891 30.1431 108.861 27.6801 108.861 23.1273C108.861 18.8731 111.891 16.0742 115.845 16.0742C119.799 16.0742 122.792 18.5372 122.792 23.0527C122.792 27.3069 119.762 30.1431 115.808 30.1431ZM115.808 18.7984C113.554 18.7984 112.26 20.5151 112.26 23.0154C112.26 25.5903 113.591 27.3442 115.845 27.3442C118.062 27.3442 119.392 25.5903 119.392 23.09C119.392 20.5524 118.062 18.7984 115.808 18.7984ZM135.54 16.3728H138.718V29.8072H135.06L129.554 21.1121V29.8072H126.376V16.3728H130.034L135.577 25.1051V16.3728H135.54ZM142.413 16.3728H145.813V29.8072H142.413V16.3728ZM159.965 19.918C158.968 19.3209 157.785 18.9477 156.603 18.9477C154.312 18.9477 152.834 20.515 152.834 23.0527C152.834 25.5903 154.238 27.2323 156.64 27.2323C157.933 27.2323 159.152 26.7844 160.15 26.15L160.852 29.1728C159.818 29.7699 158.044 30.1431 156.492 30.1431C152.242 30.1431 149.434 27.6801 149.434 23.1646C149.434 18.8357 152.206 16.0742 156.603 16.0742C158.229 16.0742 159.781 16.4847 161 17.0818L159.965 19.918Z" fill="black"/>
<path d="M38.7483 39.0252L26.8127 32.0841L14.8773 39.0252C14.5448 39.2118 14.1013 39.2118 13.7687 39.0252L1.05725 31.599C0.724572 31.4124 0.50293 31.0392 0.50293 30.6287V15.8135C0.50293 15.403 0.724572 15.0298 1.05725 14.8432L26.2586 0.139941C26.5911 -0.0466468 27.0345 -0.0466468 27.3671 0.139941L52.5684 14.8432C52.9009 15.0298 53.1227 15.403 53.1227 15.8135V30.666C53.1227 31.0765 52.9009 31.4124 52.5684 31.6363L39.8568 39.0625C39.5243 39.2118 39.0809 39.2118 38.7483 39.0253V39.0252ZM14.323 36.2265L24.1153 30.5168L14.323 24.8072L4.53076 30.5168L14.323 36.2265ZM40.6328 35.4428L50.4251 29.7331V18.3138L40.6328 24.0235V35.4428ZM37.9722 35.4428V24.0235L26.8127 17.5302L17.0205 23.2398L37.9722 35.4428ZM3.20049 28.1285L11.6624 23.2025L3.20049 18.3138V28.1285ZM14.323 21.6351L25.4456 15.1418V3.72254L4.53076 15.9255L14.323 21.6351ZM39.3025 21.6351L49.0949 15.9255L28.143 3.72254V15.1418L39.3025 21.6351Z" fill="#01B0BA"/>
</svg>
