<svg width="155" height="34" viewBox="0 0 155 34" fill="none" xmlns="http://www.w3.org/2000/svg">
<path fill-rule="evenodd" clip-rule="evenodd" d="M50.37 32.0854V19.8045C50.37 17.9046 49.7501 16.2783 48.5567 15.108C47.3633 13.9376 45.643 13.2993 43.7212 13.2993C41.0864 13.2993 38.9786 14.3328 37.4288 16.3543L37.3823 13.9984V13.8464H29.4936V15.184H32.5933V32.0854H27.0603L15.6999 0.106394L15.6689 0H14.2741L3.13069 32.0854H0V33.423H9.28358V32.0854H5.00601L8.0902 22.9507H18.0247L21.1554 32.0854H16.8313V33.423H40.5285V32.0854H37.4288V22.7075C37.4443 17.1143 40.482 15.0776 42.5278 15.0776C44.5116 15.0776 45.519 16.3391 45.519 18.8166V32.0854H42.6208V33.423H53.5162V32.0854H50.37ZM12.9257 8.54193L17.5753 21.5676H8.58615L12.9257 8.54193Z" fill="#0067A5"/>
<path d="M66.3635 29.5168H67.8359L67.8049 29.6992C67.6189 30.7023 66.7045 33.9853 62.3029 33.9853C58.4748 33.9853 56.522 31.7359 56.522 27.2825V15.1992H53.2983V13.8312H56.5065V8.13156H56.6615C57.8704 8.13156 60.1796 7.96437 61.311 7.84278L61.4815 7.82758V13.8312H66.3015V15.184H61.4505V29.0608C61.4505 31.0519 62.2099 32.0702 63.6823 32.0702C65.5731 32.0854 66.1621 30.5503 66.3325 29.6384L66.3635 29.5168Z" fill="#0067A5"/>
<path fill-rule="evenodd" clip-rule="evenodd" d="M102.474 13.2987C105.109 13.2987 107.356 14.0283 108.968 15.4266C110.766 16.9769 111.727 19.272 111.835 22.2511V22.4182H98.7083V27.054C98.7238 30.5498 100.444 32.5561 103.435 32.5561C107.186 32.5713 109.588 29.6226 109.945 26.8564L109.96 26.7196H111.525L111.495 26.902C110.999 30.3066 108.147 33.9848 103.079 34C100.444 34 97.9798 33.0121 96.1355 31.1882C94.1982 29.2883 93.1443 26.6588 93.1443 23.7862C93.1598 20.8679 94.1827 18.1625 96.0425 16.2018C97.7784 14.3475 100.119 13.2987 102.474 13.2987ZM98.6773 20.9591H106.21C106.21 20.4576 106.21 18.8768 106.194 18.8768C106.194 16.141 104.846 14.6363 102.428 14.6211C101.436 14.6211 100.506 14.9859 99.8397 15.6394C99.0802 16.3842 98.6773 17.5089 98.6773 18.8768V20.9591Z" fill="#0067A5"/>
<path d="M89.3162 19.607V32.0855H92.4779V33.423H81.288V32.0855H84.3412V19.1662C84.3257 17.3271 83.7522 15.1384 81.04 15.1384C79.8156 15.1384 78.6222 15.64 77.6923 16.552C76.7314 17.4943 75.5845 19.303 75.5845 22.586V32.0855H78.6377V33.423H67.4478V32.0855H70.6405V1.48959H67.6803V0.0912692H75.5845V16.1416C76.4524 15.1688 78.4982 13.2993 82.4348 13.2993C87.5028 13.2993 89.3162 16.6887 89.3162 19.607Z" fill="#0067A5"/>
<path d="M148.522 32.0853H145.484V18.8469C145.484 15.4119 143.082 13.284 139.238 13.284C135.596 13.284 133.612 15.0623 132.698 16.2478C131.69 14.3023 129.722 13.2688 127.01 13.284C124.406 13.284 122.081 14.2263 120.531 15.8678L120.485 13.9831V13.8311H112.441V15.1687H115.727V32.0701H112.488V33.4077H123.43V32.0701H120.64V22.7379C120.733 20.0172 120.857 18.2693 121.849 16.9318C122.701 15.8222 124.065 15.1231 125.398 15.1231C127.041 15.1231 127.63 16.339 127.692 16.4758C128.11 17.251 128.11 18.5885 128.11 19.8804V32.0701H125.196V33.4077H135.921V32.0701H133.116V22.7379C133.209 20.0172 133.333 18.2693 134.325 16.9318C135.177 15.8222 136.541 15.1231 137.874 15.1231C139.517 15.1231 140.106 16.339 140.168 16.4758C140.586 17.2509 140.586 18.5884 140.586 19.8803V32.0701H137.688V33.4077H148.677V32.0701H148.522V32.0853Z" fill="#0067A5"/>
<path fill-rule="evenodd" clip-rule="evenodd" d="M151.482 32.2985H151.869V31.0217H152.489L153.311 32.2985H153.729L152.861 31.0217C153.357 30.9762 153.76 30.7634 153.76 30.2162C153.76 29.6994 153.497 29.4258 152.737 29.4258H151.482V32.2985ZM152.479 30.6884C152.44 30.6879 152.402 30.6874 152.365 30.6874H151.838V29.7602H152.644C153.001 29.7602 153.342 29.821 153.342 30.2162C153.342 30.6998 152.868 30.6935 152.479 30.6884Z" fill="#0067A5"/>
<path fill-rule="evenodd" clip-rule="evenodd" d="M152.443 28.3619C151.017 28.3619 149.87 29.5018 149.87 30.8698C149.87 32.2681 151.017 33.3928 152.443 33.3928C153.853 33.3928 155 32.2529 155 30.8698C155 29.4866 153.853 28.3619 152.443 28.3619ZM152.443 28.7723C153.683 28.7723 154.582 29.6538 154.582 30.8698C154.582 32.1009 153.683 32.9824 152.443 32.9824C151.187 32.9824 150.288 32.1009 150.288 30.8698C150.288 29.6538 151.187 28.7723 152.443 28.7723Z" fill="#0067A5"/>
</svg>
