<svg width="162" height="20" viewBox="0 0 162 20" fill="none" xmlns="http://www.w3.org/2000/svg">
<path fill-rule="evenodd" clip-rule="evenodd" d="M34.0944 0.67925L38.2369 0.593488L42.898 0.622645C49.5732 0.622645 51.789 2.1904 51.789 9.02916V9.94082C51.789 17.1501 51.3569 19.6012 42.7257 19.8859L38.3235 19.9717C37.7191 20 37.0861 20 36.4826 20C35.1586 20 33.8355 19.9434 32.5124 19.8593C28.2826 19.5446 25.7507 18.1209 25.5489 13.5326C25.4918 12.3636 25.4918 11.1955 25.4918 10.0266C25.4909 2.56003 26.3828 0.793315 34.0944 0.67925ZM59.7552 15.0412H71.7452V19.8002H53.9148V0.793312H59.7552V15.0412ZM132.893 19.8002H127.053V0.793312H132.893V19.8002ZM139.006 0.813039C135.743 0.813039 134.148 3.43311 134.148 6.66467C134.148 9.89623 135.744 12.5909 139.006 12.5909L151.072 12.5678C151.774 12.5678 152.342 13.1321 152.342 13.8276C152.342 14.5232 151.774 15.0875 151.072 15.0875H134.697V19.801L153.693 19.8096C157.031 19.8096 158.536 17.1312 158.536 13.8276C158.536 10.5223 157.031 7.84477 153.693 7.84477L141.704 7.84563C141.046 7.84563 140.512 7.31733 140.512 6.66467C140.512 6.01287 141.046 5.55746 141.704 5.55746H157.703V0.801032L139.006 0.813039ZM160.187 0.23757C161.07 0.23757 161.713 0.921098 161.713 1.79503C161.713 2.67839 161.07 3.36278 160.187 3.36278C159.299 3.36278 158.653 2.67839 158.653 1.79503C158.653 0.921098 159.299 0.23757 160.187 0.23757V5.13604e-06C159.705 -0.0011341 159.242 0.187291 158.9 0.523875C158.559 0.860459 158.366 1.31766 158.364 1.79503C158.364 2.79245 159.179 3.59949 160.187 3.59949C160.426 3.59915 160.662 3.55218 160.882 3.46128C161.103 3.37037 161.303 3.23731 161.471 3.0697C161.64 2.9021 161.773 2.70324 161.864 2.48452C161.954 2.26579 162.001 2.03149 162 1.79503C162 1.31895 161.808 0.862514 161.468 0.525956C161.128 0.189397 160.667 0.000232165 160.187 5.13604e-06V0.23757Z" fill="black"/>
<path fill-rule="evenodd" clip-rule="evenodd" d="M159.759 0.969021H160.337C160.588 0.969021 160.847 1.00676 160.847 1.32065C160.847 1.72889 160.426 1.68086 160.138 1.68086H159.759V1.87639H160.214L160.794 2.80264H161.092L160.478 1.87639C160.838 1.86696 161.115 1.71945 161.115 1.32494C161.115 0.992178 160.932 0.793204 160.396 0.793204H159.509V2.80264H159.759V0.969021ZM106.349 5.40899H116.073C116.621 5.40899 117.225 5.43729 117.742 5.57965C118.835 5.89355 118.866 6.66285 118.894 7.66027C118.894 9.76919 118.662 10.3104 115.929 10.3104H106.349V14.927H116.102C118.548 14.927 118.636 15.897 118.636 17.9776V19.8001H124.562V16.1534C124.562 13.5316 123.095 12.8181 120.648 12.505C121.857 12.1062 123.239 11.8498 123.986 10.7092C124.705 9.56936 124.792 8.11653 124.792 6.80607C124.792 2.21773 122.893 0.793204 118.375 0.793204H100.509V19.8001H106.349V5.40899ZM92.5848 15.0513V19.8001H98.4296V6.73831C98.4296 2.21173 94.3079 0.800925 92.0609 0.800925H79.9211C77.6732 0.800925 73.5525 2.21173 73.5525 6.73831V19.8001H79.3972V8.29749C79.3972 6.44243 81.4208 5.55135 82.5439 5.55135H89.4373C90.5621 5.55135 92.5848 6.44243 92.5848 8.29749V10.3009H79.3972V15.0513H92.5848ZM5.84132 5.40899H14.2431C16.3723 5.40899 17.3499 5.75118 17.3499 8.00161C17.3499 10.0822 16.3429 10.4519 14.3288 10.4519H5.84132V15.0685H16.458C22.3565 15.0685 23.2484 12.7032 23.2484 7.80264C23.2484 2.01705 21.062 0.792347 15.5376 0.792347H0V19.7992H5.84132V5.40899Z" fill="black"/>
<path fill-rule="evenodd" clip-rule="evenodd" d="M49.4999 10.3009L41.4072 11.4141L42.5312 13.6405L39.9084 12.379L38.6355 17.5737L37.3609 12.379L34.7381 13.6405L35.862 11.4141L27.7694 10.3009L35.862 9.18772L34.7381 6.96045L37.3609 8.22202L38.6355 3.02734L39.9084 8.22202L42.5312 6.96045L41.4072 9.18772L49.4999 10.3009Z" fill="white"/>
</svg>
