<svg width="24" height="24" viewBox="0 0 24 24" fill="none" xmlns="http://www.w3.org/2000/svg">
<path d="M20.4677 18.0432L16.706 14.3105C17.4353 13.1705 17.8571 11.819 17.8571 10.3723C17.8571 6.30742 14.5247 3 10.4282 3C6.33164 3 3 6.30742 3 10.3723C3 14.4372 6.33164 17.7447 10.4289 17.7447C11.8151 17.7447 13.1136 17.3659 14.2246 16.7074L18.0196 20.4731C19.64 22.0788 22.0889 19.6511 20.4677 18.0432ZM5.30297 10.3723C5.30297 7.56814 7.60292 5.28595 10.4289 5.28595C13.2549 5.28595 15.5549 7.5674 15.5549 10.3723C15.5549 13.1773 13.2549 15.4587 10.4289 15.4587C7.60292 15.4587 5.30297 13.1765 5.30297 10.3723Z" fill="#A7A7A9"/>
</svg>
