<svg width="135" height="46" viewBox="0 0 135 46" fill="none" xmlns="http://www.w3.org/2000/svg">
<path fill-rule="evenodd" clip-rule="evenodd" d="M62.5011 44.3103C62.8611 44.8957 63.1986 45.2109 63.8285 45.3235V45.7288H61.8712L59.2838 41.3608H57.6414V43.6123C57.6414 43.6492 57.6413 43.6856 57.6412 43.7217L57.6409 43.7862C57.637 44.6425 57.6342 45.2601 58.5414 45.3235H58.7888V45.7288H55.3466V45.3235H55.5041C55.8415 45.301 56.179 45.2559 56.359 44.8957C56.478 44.598 56.4746 44.1078 56.4721 43.7491C56.4718 43.7009 56.4715 43.655 56.4715 43.6123V38.5914C56.4715 38.5169 56.4721 38.444 56.4726 38.3728C56.479 37.5398 56.4835 36.9442 55.5715 36.9027L55.3466 36.8802V36.4974H59.9813C61.3312 36.4974 62.7711 36.9703 62.7711 38.8841C62.7936 40.1224 61.8487 41.1581 60.6112 41.2707L62.5011 44.3103ZM59.3738 40.7979C59.8913 40.7979 60.4312 40.7754 60.8812 40.4151C61.3312 40.0324 61.5787 39.447 61.5562 38.8616C61.5562 37.3305 60.3862 37.0153 59.3063 37.0153C58.9688 37.0153 58.2489 37.0603 57.9339 37.263C57.6639 37.4431 57.6414 37.6908 57.6414 38.0285V40.8204L59.3738 40.7979Z" fill="#005488"/>
<path d="M72.738 38.9291L72.378 39.1092C71.4331 37.7358 70.4656 37.0603 68.9357 37.0603C68.5982 37.0603 68.0583 37.0603 67.7883 37.308C67.5183 37.5557 67.4958 37.9609 67.4958 38.3662V40.4602H68.2832C69.4532 40.4602 69.6782 40.1224 69.8131 38.794H70.2181V42.8468H69.8131C69.8131 42.4415 69.7007 42.0362 69.5207 41.676C69.2057 41.1356 68.7557 41.0906 68.2607 41.0906H67.4958V43.7924C67.4958 44.0626 67.5183 44.5129 67.6758 44.7381C67.9233 45.1208 68.5082 45.1434 68.8682 45.1434C70.6681 45.1434 71.7255 44.2878 72.783 42.6441L73.1654 42.8243L72.108 45.7288H65.3134V45.3235H65.4259L65.489 45.3147C65.7851 45.274 66.0904 45.232 66.2584 44.8957C66.3776 44.6173 66.374 44.1107 66.3715 43.7634C66.3713 43.7305 66.371 43.699 66.3709 43.6693C66.3709 43.6575 66.3709 43.646 66.3709 43.6348V38.5914C66.3709 38.5477 66.3711 38.5044 66.3714 38.4616C66.3716 38.4338 66.3718 38.4063 66.372 38.379C66.3785 37.5797 66.3835 36.9649 65.4934 36.9027L65.3134 36.8802V36.4974H71.9955L72.738 38.9291Z" fill="#005488"/>
<path d="M81.6474 38.9516L81.2874 39.1092C80.6125 37.8934 79.6675 36.9478 78.3626 36.9478C77.6202 36.9478 76.6527 37.3981 76.6527 38.3887C76.6527 39.408 77.5932 39.7063 78.2853 39.9258C78.3268 39.939 78.3681 39.9521 78.4076 39.9648L79.6 40.28C80.8825 40.6403 82.2099 41.0681 82.2099 42.9368C82.2099 44.9182 80.5675 45.9989 79.0601 45.9989C78.1376 46.0215 77.2377 45.6837 76.5627 45.0758L76.3377 45.7738H75.9103L75.1453 42.6667L75.5728 42.5091C76.1803 43.9951 77.4177 45.3235 78.9251 45.3235C79.96 45.3235 81.0624 44.648 81.0624 43.3196C81.0624 42.1908 80.2572 41.9485 79.4846 41.7159C79.4404 41.7026 79.3964 41.6894 79.3526 41.676L78.0476 41.3157C77.4627 41.1581 76.9002 40.9105 76.3827 40.5727C75.8428 40.1675 75.5053 39.5145 75.5053 38.8165C75.5053 38.096 75.8203 37.3981 76.3602 36.9027C76.9002 36.4749 77.5527 36.2723 78.2276 36.2948C79.0151 36.2723 79.7575 36.52 80.3875 37.0153L80.5225 36.52H80.9275L81.6474 38.9516Z" fill="#005488"/>
<path d="M91.6368 38.9291L91.2543 39.1092C90.3094 37.7358 89.3419 37.0603 87.812 37.0603C87.497 37.0603 86.9346 37.0603 86.6646 37.308C86.3721 37.5557 86.3721 37.9609 86.3721 38.3662V40.4602H87.1596C88.3295 40.4602 88.5545 40.1224 88.6895 38.794H89.0944V42.8468H88.6895C88.6895 42.4415 88.577 42.0362 88.397 41.676C88.1045 41.1356 87.6545 41.0906 87.1371 41.0906H86.3721V43.7924C86.3721 44.0626 86.3946 44.5129 86.5521 44.7381C86.7771 45.1208 87.3621 45.1434 87.7445 45.1434C89.5444 45.1434 90.6018 44.2878 91.6593 42.6441L92.0193 42.8243L90.9618 45.7288H84.1448V45.3235H84.2572L84.3203 45.3147C84.6164 45.274 84.9217 45.232 85.0897 44.8957C85.2089 44.6173 85.2053 44.1108 85.2028 43.7635C85.2026 43.7354 85.2024 43.7083 85.2023 43.6825C85.2022 43.6661 85.2022 43.6502 85.2022 43.6348V38.5914C85.2022 38.5197 85.2028 38.4492 85.2033 38.3801V38.379C85.2098 37.5797 85.2148 36.9649 84.3247 36.9027L84.1448 36.8802V36.4974H90.8268L91.6368 38.9291Z" fill="#005488"/>
<path fill-rule="evenodd" clip-rule="evenodd" d="M100.389 43.6123C100.423 43.7091 100.455 43.8059 100.487 43.9015C100.728 44.6284 100.946 45.2837 101.761 45.3235V45.7288H98.4988V45.3235C98.8813 45.2785 99.3988 45.1884 99.3988 44.648C99.3763 44.4003 99.3088 44.1527 99.2188 43.905L98.6788 42.2839H95.6865L95.3716 43.2971C95.2366 43.6573 95.1466 44.0401 95.1016 44.4454C95.1016 45.1208 95.5515 45.2559 96.1365 45.3235V45.7288H93.0092V45.3235L93.1217 45.301C93.6842 45.1434 93.8866 44.9857 94.1791 44.3778C94.4716 43.7024 94.7191 43.0044 94.9441 42.3064L96.9015 36.4749H97.9814L100.389 43.6123ZM98.4988 41.676L97.1714 37.6457L95.889 41.676H98.4988Z" fill="#005488"/>
<path fill-rule="evenodd" clip-rule="evenodd" d="M110.401 44.3103C110.761 44.8957 111.098 45.2109 111.706 45.3235V45.7288H109.793L107.183 41.3608H105.541V43.6123C105.541 43.6701 105.541 43.7269 105.54 43.7827C105.537 44.6408 105.534 45.2601 106.463 45.3235H106.711V45.7288H103.269V45.3235H103.426C103.764 45.301 104.124 45.2559 104.281 44.8957C104.4 44.598 104.397 44.1079 104.394 43.7491C104.394 43.7009 104.393 43.655 104.393 43.6123V38.5914C104.393 38.5324 104.394 38.4744 104.394 38.4175C104.398 37.5612 104.401 36.9449 103.494 36.9027L103.269 36.8802V36.4974H107.903C109.253 36.4974 110.693 36.9703 110.693 38.8841C110.716 40.1224 109.793 41.1581 108.556 41.2707L110.401 44.3103ZM107.296 40.7979C107.813 40.7979 108.353 40.7754 108.803 40.4151C109.253 40.0324 109.501 39.447 109.478 38.8616C109.478 37.3305 108.308 37.0153 107.228 37.0153C106.891 37.0153 106.148 37.0603 105.856 37.263C105.561 37.4527 105.562 37.6621 105.563 37.9652L105.563 38.0285V40.8204L107.296 40.7979Z" fill="#005488"/>
<path d="M120.502 39.8973H120.142L120.097 39.7847C119.828 39.1768 119.468 38.3662 119.085 37.8709C118.635 37.263 117.915 36.9252 117.15 36.9252C116.25 36.9252 115.553 37.3755 115.08 38.2536C114.608 39.1317 114.495 40.19 114.495 41.1806C114.495 42.1263 114.675 43.2295 115.148 43.9951C115.62 44.7831 116.475 45.2559 117.375 45.2784C118.568 45.2784 119.67 44.4229 120.255 43.2295L120.75 43.5673C119.985 45.1208 118.725 45.9539 117.195 45.9539C114.788 45.9539 113.1 43.905 113.1 41.1131C113.1 38.5238 114.72 36.2273 117.015 36.2273C117.893 36.2047 118.725 36.565 119.333 37.1954L119.58 36.565H119.963L120.502 39.8973Z" fill="#005488"/>
<path d="M123.427 38.5496C123.428 38.4982 123.428 38.4473 123.428 38.3972C123.435 37.6 123.44 36.9873 122.572 36.9252L122.392 36.9027V36.4974H125.677V36.9027H125.542C125.205 36.9252 124.89 36.9703 124.71 37.353C124.591 37.6502 124.594 38.1216 124.597 38.4912C124.597 38.5417 124.597 38.5904 124.597 38.6364V40.5052H128.782V38.6364C128.782 38.5645 128.783 38.4936 128.783 38.424C128.79 37.6215 128.795 36.9874 127.905 36.9252L127.725 36.9027V36.4974H130.987V36.9027H130.874L130.865 36.904C130.553 36.9486 130.22 36.9961 130.064 37.353C129.924 37.6548 129.927 38.1364 129.929 38.4925C129.929 38.5348 129.929 38.5756 129.929 38.6139V43.6348C129.929 43.692 129.929 43.7484 129.929 43.8039C129.925 44.6242 129.922 45.2602 130.807 45.3235H130.987V45.7288H127.725V45.3235H127.837C128.152 45.301 128.489 45.2559 128.647 44.8732C128.766 44.5751 128.763 44.0841 128.76 43.7407V43.7386C128.76 43.6937 128.759 43.6514 128.759 43.6123V41.0456H124.575V43.6123C124.575 43.6459 124.575 43.6792 124.575 43.7123L124.574 43.7814C124.57 44.6017 124.567 45.2377 125.452 45.301H125.632V45.7062H122.347V45.301H122.46L122.519 45.2927C122.816 45.2517 123.122 45.2095 123.27 44.8507C123.389 44.5526 123.385 44.0616 123.383 43.7182C123.383 43.6926 123.383 43.6678 123.382 43.644C123.382 43.6253 123.382 43.6072 123.382 43.5898L123.427 38.6139C123.427 38.5924 123.427 38.5709 123.427 38.5496Z" fill="#005488"/>
<path d="M74.2004 31.8593H54.9641V30.4633L55.3016 30.4183C56.269 30.3733 57.3039 30.1931 57.8439 28.9098C58.2447 27.9471 58.235 26.2162 58.228 24.9903C58.2272 24.8399 58.2264 24.6971 58.2264 24.5643V7.34002C58.2264 7.11883 58.2276 6.90077 58.2289 6.68639C58.2451 3.91121 58.2577 1.7545 55.4591 1.44099L54.9866 1.39596V0H65.5384V1.41847L65.066 1.4635L65.0469 1.46516C64.0172 1.55471 62.9028 1.65164 62.3661 2.94952C61.9338 3.93274 61.9477 5.58576 61.9582 6.8286C61.9597 7.00859 61.9611 7.18052 61.9611 7.34002V25.5324C61.9611 26.4331 61.9612 28.0091 62.3436 28.7522C62.8161 29.8329 64.301 30.058 65.1559 30.058C70.0156 30.058 73.6604 26.1404 76.1803 21.2545L77.2377 21.8624L74.2004 31.8593Z" fill="#005488"/>
<path fill-rule="evenodd" clip-rule="evenodd" d="M97.3514 30.6432C96.4065 31.769 94.7866 32.2868 93.5716 32.2193C91.7492 32.1743 90.0844 31.1385 89.5219 28.842C87.3395 31.0034 85.3372 32.2193 82.5473 32.2193C79.9375 32.2193 76.8552 30.4406 76.8552 26.6805C76.8552 23.5058 78.4301 21.9973 80.545 20.8265C82.5248 19.7007 84.6622 19.1829 86.7996 18.9127L89.5444 18.5524V15.1751C89.4769 13.7116 89.2744 12.4958 88.2395 11.6177C87.272 10.8297 86.0121 10.627 84.9097 10.627C83.7623 10.627 81.3549 11.325 81.3549 13.1037V13.7116C81.3549 15.2652 80.8824 16.5261 79.465 16.5261C78.5651 16.5261 77.7101 15.648 77.7101 14.4772C77.7101 12.4958 79.42 10.7846 80.7249 10.0867C82.3448 9.25359 84.1447 8.78076 85.9671 8.73573C87.5195 8.6907 89.5669 9.34365 90.9393 10.2668C92.9417 11.6177 93.1217 13.4189 93.1217 16.0307V25.1945C93.1217 27.1533 93.3466 30.1028 95.169 30.1028C95.7315 30.1028 96.249 29.7651 96.6989 29.4049L97.3514 30.6432ZM89.5219 20.1961C86.7096 20.5338 80.6124 21.502 80.6124 26.1401C80.6124 28.5268 82.2098 29.9227 83.9872 29.9227C85.9896 29.9227 87.992 28.4367 89.5219 26.7931V20.1961Z" fill="#005488"/>
<path d="M104.078 25.915C104.078 28.4817 104.416 30.2154 106.711 30.4631H107.116V31.859H97.6439V30.4631C100.186 30.1704 100.501 28.5943 100.501 25.915V16.1883C100.501 13.554 100.119 11.8429 97.7789 11.6402H97.1939V10.2443L102.886 9.20855H104.078V12.4283C105.721 10.2443 108.241 8.73573 111.053 8.73573C113.438 8.73573 115.103 9.5688 116.183 12.4283C118.05 10.3794 120.637 8.8258 122.977 8.73573C124.755 8.66819 126.42 9.54629 127.32 11.0773C128.152 12.4283 128.219 14.0268 128.219 15.6254V25.915C128.219 28.4592 128.512 30.1704 131.032 30.4631V31.859H121.605V30.4631H121.897C124.282 30.2379 124.642 28.6844 124.642 25.915V16.6611C124.642 15.6255 124.642 14.4996 124.35 13.4865C123.9 12.068 122.91 11.1899 121.717 11.1899C119.737 11.1899 117.78 12.6759 116.138 14.2745V25.915C116.138 28.6844 116.52 30.2154 118.905 30.4631H119.198V31.859H109.523V30.4631H109.816C112.2 30.2379 112.56 28.6844 112.56 25.915V16.5261C112.56 13.9593 112.403 11.1899 109.771 11.1899C107.611 11.1899 105.496 12.6759 104.056 14.2745L104.078 25.915Z" fill="#005488"/>
<path d="M16.9864 22.1999L46.4821 45.7285L16.9864 26.5904L40.34 45.751L16.9864 30.9584L34.1979 45.7285L16.9864 35.3264L28.0782 45.7285H0L26.3008 0.247431L52.6017 45.7285L16.9864 22.1999Z" fill="#005488"/>
<path fill-rule="evenodd" clip-rule="evenodd" d="M131.504 12.3382V9.50127H132.674C133.506 9.50127 133.911 9.81648 133.911 10.3343C133.911 10.6946 133.664 10.9873 133.169 11.0999C133.686 11.2575 133.866 11.5727 133.866 12.2031V12.3382H133.304C133.304 11.6177 133.101 11.3025 132.516 11.3025H132.021V12.3382H131.504ZM132.561 9.95158H132.021L131.999 10.8522H132.494C133.056 10.8522 133.326 10.6721 133.326 10.3343C133.326 10.0416 133.079 9.95158 132.561 9.95158Z" fill="#005488"/>
<path fill-rule="evenodd" clip-rule="evenodd" d="M130.132 10.9648C130.132 11.6177 130.379 12.2481 130.852 12.6984C131.819 13.6441 133.349 13.6441 134.294 12.6759C135.239 11.7078 135.239 10.1767 134.272 9.23107C133.304 8.28542 131.774 8.28542 130.829 9.25359L130.717 9.36616L130.672 9.43371C130.312 9.8615 130.109 10.4019 130.132 10.9648ZM132.562 8.75824C133.777 8.75824 134.767 9.74893 134.744 10.9648C134.744 12.1806 133.754 13.1713 132.539 13.1487C131.324 13.1487 130.334 12.1581 130.357 10.9422C130.357 9.74892 131.347 8.78076 132.562 8.75824Z" fill="#005488"/>
</svg>
