<svg width="144" height="60" viewBox="0 0 144 60" fill="none" xmlns="http://www.w3.org/2000/svg">
<path d="M0 37.2474H3.08013V31.343H8.58337V37.2474H11.6635V23H8.58337V28.6301H3.08013V23H0V37.2474Z" fill="#231F20"/>
<path fill-rule="evenodd" clip-rule="evenodd" d="M13.4073 32.2339C13.4073 35.4922 15.5355 37.4757 18.6606 37.4757C20.0644 37.4757 21.2203 37.1799 22.0355 36.5862V34.238H21.9213C20.9704 34.8317 20.2011 35.0588 19.137 35.0588C17.9137 35.0588 16.6914 34.6489 16.3282 33.0772H22.7599V31.937C22.7599 28.9047 21.2652 26.876 18.2535 26.876C15.4906 26.876 13.4073 29.064 13.4073 32.2339ZM19.9971 31.0013H16.3282C16.5997 29.6114 17.3924 29.2232 18.2984 29.2232C19.4992 29.2232 19.9287 29.9535 19.9971 31.0013Z" fill="#231F20"/>
<path d="M30.7985 31.2752L29.213 37.2474H26.5185L23.4384 27.2167V27.1027H26.3828L28.0581 33.0985L29.6436 27.1027H32.0442L33.6521 33.0985L35.3508 27.1027H38.182V27.2167L35.1019 37.2474H32.4064L30.7985 31.2752Z" fill="#231F20"/>
<path d="M39.743 34.1938C39.743 36.4958 40.7397 37.4757 43.1853 37.4757C43.6383 37.4757 44.0688 37.3843 44.3178 37.2939V34.8091H44.2719C44.0913 34.8779 43.7964 34.9457 43.5924 34.9457C43.0037 34.9457 42.7323 34.6951 42.7323 33.9884V23.0013H39.743V34.1938Z" fill="#231F20"/>
<path fill-rule="evenodd" clip-rule="evenodd" d="M50.4096 37.4757C47.2846 37.4757 45.1563 35.4922 45.1563 32.2339C45.1563 29.064 47.2397 26.876 50.0025 26.876C53.0143 26.876 54.509 28.9047 54.509 31.937V33.0772H48.0773C48.4395 34.6489 49.6628 35.0588 50.8851 35.0588C51.9502 35.0588 52.7195 34.8317 53.6714 34.238H53.7846V36.5862C52.9694 37.1799 51.8145 37.4757 50.4096 37.4757ZM48.0773 31.0013H51.7462C51.6778 29.9535 51.2483 29.2232 50.0474 29.2232C49.1424 29.2232 48.3487 29.6114 48.0773 31.0013Z" fill="#231F20"/>
<path d="M69.0018 27.1038H66.7827V24.3232H63.7934V27.1038H59.9664V24.3232H56.9771V27.1038H55.4365V29.5198H56.9771V33.7827C56.9771 36.3589 57.928 37.4755 60.3521 37.4755C61.2112 37.4755 61.8008 37.3173 62.1855 37.1797V34.8089H62.1181C61.7784 34.9229 61.4611 34.9465 61.2112 34.9465C60.3062 34.9465 59.9664 34.5356 59.9664 33.6461V29.5198H63.7934V33.7827C63.7934 36.3589 64.7443 37.4755 67.1684 37.4755C68.0285 37.4755 68.6171 37.3173 69.0018 37.1797V34.8089H68.9344C68.5947 34.9229 68.2774 34.9465 68.0285 34.9465C67.1225 34.9465 66.7827 34.5356 66.7827 33.6461V29.5198H69.0018V27.1038Z" fill="#231F20"/>
<path fill-rule="evenodd" clip-rule="evenodd" d="M84.5099 27.833C84.5099 30.9341 82.449 32.6198 79.323 32.6198H77.1264V37.2474H74.0482V23H79.323C82.449 23 84.5099 24.6867 84.5099 27.833ZM79.0741 29.9984C80.638 29.9984 81.3839 29.1098 81.3839 27.833C81.3839 26.51 80.638 25.6214 79.0741 25.6214H77.1264V29.9984H79.0741Z" fill="#231F20"/>
<path fill-rule="evenodd" clip-rule="evenodd" d="M88.494 37.4307C89.5376 37.4307 90.51 37.0434 91.167 36.2453V37.2478H94.0656V30.8884C94.0656 28.3348 92.4127 26.8761 89.3775 26.8761C88.043 26.8761 86.683 27.2644 85.9137 27.7195V30.1364H86.026C86.8646 29.6568 87.8379 29.3619 88.8581 29.3619C90.4651 29.3619 91.0762 29.8396 91.0762 30.9346V31.1154C90.3069 30.8884 89.5581 30.7744 88.8337 30.7744C86.5249 30.7744 84.916 32.0964 84.916 34.0789C84.916 36.2236 86.5249 37.4307 88.494 37.4307ZM91.0762 33.1904V34.0563C90.8048 34.8092 90.1702 35.2427 89.3326 35.2427C88.4501 35.2427 87.8614 34.878 87.8614 34.0337C87.8614 33.213 88.4501 32.8493 89.4234 32.8493C90.0355 32.8493 90.6232 32.9407 91.0762 33.1904Z" fill="#231F20"/>
<path d="M95.5828 32.1877C95.5828 28.9273 97.8712 26.876 100.861 26.876C101.925 26.876 102.92 27.104 103.668 27.6505V30.2267H103.554C102.897 29.7255 102.128 29.4286 101.245 29.4286C99.7505 29.4286 98.618 30.4558 98.618 32.1877C98.618 33.9196 99.7505 34.9231 101.245 34.9231C102.128 34.9231 102.897 34.6263 103.554 34.124H103.668V36.7002C102.92 37.2477 101.925 37.4757 100.861 37.4757C97.8712 37.4757 95.5828 35.448 95.5828 32.1877Z" fill="#231F20"/>
<path d="M108.536 37.2474V32.6434L111.525 37.2474H114.945V37.1333L111.322 31.8217L114.945 27.2167V27.1027H111.549L108.536 31.115V23H105.548V37.2474H108.536Z" fill="#231F20"/>
<path fill-rule="evenodd" clip-rule="evenodd" d="M121.739 36.2453C121.082 37.0434 120.108 37.4307 119.067 37.4307C117.096 37.4307 115.489 36.2236 115.489 34.0789C115.489 32.0964 117.096 30.7744 119.408 30.7744C120.132 30.7744 120.878 30.8884 121.648 31.1154V30.9346C121.648 29.8396 121.037 29.3619 119.429 29.3619C118.411 29.3619 117.436 29.6568 116.598 30.1364H116.485V27.7195C117.255 27.2644 118.614 26.8761 119.949 26.8761C122.986 26.8761 124.638 28.3348 124.638 30.8884V37.2478H121.739V36.2453ZM121.648 34.0563V33.1904C121.196 32.9407 120.606 32.8493 119.995 32.8493C119.022 32.8493 118.433 33.213 118.433 34.0337C118.433 34.878 119.022 35.2427 119.904 35.2427C120.743 35.2427 121.377 34.8092 121.648 34.0563Z" fill="#231F20"/>
<path d="M132.112 26.9887C131.002 26.9887 130.208 27.6266 129.665 28.7442V27.1027H126.767V37.2474H129.755V31.4108C130.005 30.363 130.73 29.8155 131.658 29.8155C132.224 29.8155 132.631 29.906 132.971 30.0436H133.083V27.1715C132.926 27.0801 132.519 26.9887 132.112 26.9887Z" fill="#231F20"/>
<path fill-rule="evenodd" clip-rule="evenodd" d="M141.1 36.1999C140.467 37.0207 139.47 37.4757 138.112 37.4757C135.53 37.4757 133.877 35.1059 133.877 32.1877C133.877 29.2694 135.53 26.876 138.112 26.876C139.425 26.876 140.376 27.2868 141.011 28.0388V23.0013H144V37.2477H141.1V36.1999ZM141.011 33.8055V30.5452C140.513 29.8159 139.857 29.4974 139.108 29.4974C137.796 29.4974 136.912 30.4558 136.912 32.1877C136.912 33.9196 137.796 34.8543 139.108 34.8543C139.857 34.8543 140.513 34.5349 141.011 33.8055Z" fill="#231F20"/>
<path d="M8.74153 41.9007H0V56.147H8.74153V54.4151H1.97011V49.6736H8.10695V47.9859H1.97011V43.6326H8.74153V41.9007Z" fill="#231F20"/>
<path d="M15.9649 45.912C18.2064 45.912 19.4522 47.3942 19.4522 49.8318V56.147H17.5728V49.878C17.5728 48.5786 16.9158 47.6439 15.4895 47.6439C14.3121 47.6439 13.3153 48.3968 12.9756 49.4672V56.147H11.0963V46.1174H12.9756V47.576C13.5643 46.6413 14.5611 45.912 15.9649 45.912Z" fill="#231F20"/>
<path d="M27.0623 46.1166H24.5035V43.4509H22.6241V46.1166H20.903V47.7354H22.6241V53.3204C22.6241 55.2793 23.5516 56.3517 25.8849 56.3517C26.4052 56.3517 26.7909 56.2603 27.0623 56.1462V54.5284H26.9939C26.7674 54.6198 26.4501 54.665 26.1563 54.665C25.0922 54.665 24.5035 54.2767 24.5035 53.1375V47.7354H27.0623V46.1166Z" fill="#231F20"/>
<path fill-rule="evenodd" clip-rule="evenodd" d="M33.1765 56.3517C30.2546 56.3517 28.262 54.3907 28.262 51.2454C28.262 48.0991 30.1189 45.9111 32.8144 45.9111C35.5547 45.9111 36.9811 47.8947 36.9811 50.8346V51.7015H30.1413C30.3454 53.7302 31.637 54.7102 33.4255 54.7102C34.5355 54.7102 35.3273 54.4596 36.2108 53.7981H36.2791V55.4631C35.464 56.101 34.3988 56.3517 33.1765 56.3517ZM30.2097 50.1504H35.1691C35.1018 48.6692 34.3764 47.53 32.8368 47.53C31.4105 47.53 30.4811 48.6014 30.2097 50.1504Z" fill="#231F20"/>
<path d="M43.5476 45.9581C42.462 45.9581 41.5101 46.596 41.0796 47.6674V46.1174H39.2002V56.147H41.0796V49.6048C41.3968 48.4646 42.2579 47.7814 43.2762 47.7814C43.7292 47.7814 44.1821 47.8502 44.4545 47.9859H44.5219V46.1174C44.3637 46.026 43.9791 45.9581 43.5476 45.9581Z" fill="#231F20"/>
<path fill-rule="evenodd" clip-rule="evenodd" d="M50.9077 45.9119C53.8736 45.9119 55.459 48.3515 55.459 51.1312C55.459 53.9138 53.8736 56.3524 50.9077 56.3524C49.6844 56.3524 48.6427 55.7145 48.1224 55.0294V60H46.2421V46.1173H48.1224V47.2565C48.6427 46.5498 49.6844 45.9119 50.9077 45.9119ZM50.5904 54.6421C52.4472 54.6421 53.5348 53.1609 53.5348 51.1312C53.5348 49.126 52.4472 47.6221 50.5904 47.6221C49.5712 47.6221 48.6203 48.2375 48.1224 49.2164V53.0704C48.6203 54.0494 49.5712 54.6421 50.5904 54.6421Z" fill="#231F20"/>
<path d="M62.0264 45.9581C60.9398 45.9581 59.9879 46.596 59.5584 47.6674V46.1174H57.679V56.147H59.5584V49.6048C59.8756 48.4646 60.7357 47.7814 61.755 47.7814C62.208 47.7814 62.6609 47.8502 62.9323 47.9859H62.9997V46.1174C62.8416 46.026 62.4569 45.9581 62.0264 45.9581Z" fill="#231F20"/>
<path d="M65.7176 42.0588C66.3746 42.0588 66.9174 42.5827 66.9174 43.2442C66.9174 43.9057 66.3746 44.4296 65.7176 44.4296C65.084 44.4296 64.5168 43.9057 64.5168 43.2442C64.5168 42.5827 65.084 42.0588 65.7176 42.0588Z" fill="#231F20"/>
<path d="M66.6694 56.1462H64.7891V46.1165H66.6694V56.1462Z" fill="#231F20"/>
<path d="M73.3726 50.2881C74.799 50.7431 76.3834 51.3358 76.3834 53.2506C76.3834 55.3029 74.7082 56.3517 72.5574 56.3517C71.2434 56.3517 69.9303 56.0322 69.1825 55.4395V53.6388H69.2733C70.1119 54.4134 71.3566 54.7554 72.534 54.7554C73.5981 54.7554 74.55 54.3446 74.55 53.4786C74.55 52.6444 73.8521 52.4123 72.4725 51.9535C72.4307 51.9396 72.3883 51.9255 72.3452 51.9111C72.2957 51.8946 72.2454 51.8778 72.1943 51.8607C70.7904 51.4046 69.2284 50.8798 69.2284 48.9886C69.2284 47.0503 70.8128 45.9111 72.8288 45.9111C74.0062 45.9111 75.0479 46.1618 75.8855 46.7319V48.5562H75.8182C75.004 47.8947 74.0511 47.5064 72.8737 47.5064C71.6964 47.5064 71.0393 48.0313 71.0393 48.738C71.0393 49.527 71.7473 49.7579 73.3178 50.2702L73.3726 50.2881Z" fill="#231F20"/>
<path fill-rule="evenodd" clip-rule="evenodd" d="M78.0148 51.2454C78.0148 54.3907 80.0074 56.3517 82.9284 56.3517C84.1516 56.3517 85.2167 56.101 86.031 55.4631V53.7981H85.9626C85.0801 54.4596 84.2883 54.7102 83.1773 54.7102C81.3888 54.7102 80.0982 53.7302 79.8941 51.7015H86.7329V50.8346C86.7329 47.8947 85.3075 45.9111 82.5662 45.9111C79.8717 45.9111 78.0148 48.0991 78.0148 51.2454ZM84.9209 50.1504H79.9625C80.2339 48.6014 81.1623 47.53 82.5886 47.53C84.1292 47.53 84.8536 48.6692 84.9209 50.1504Z" fill="#231F20"/>
<path d="M45.9371 10.9547H3.06287V3.04689H45.9371V10.9547ZM49 0H0V14H49V0Z" fill="#00B188"/>
</svg>
