<svg width="178" height="36" viewBox="0 0 178 36" fill="none" xmlns="http://www.w3.org/2000/svg">
<path d="M17.9561 0H7.49212V0.891965H10.8261V18.1242C10.8261 23.3026 9.37764 24.7768 6.14354 24.7768C5.82347 24.8112 5.49969 24.7746 5.19562 24.6696C4.89155 24.5647 4.61479 24.394 4.38536 24.1699C4.15592 23.9459 3.97955 23.674 3.86898 23.374C3.75842 23.0741 3.71643 22.7534 3.74606 22.4354C3.74606 20.5524 3.63368 19.4002 1.91049 19.4002C0.187303 19.4002 0 21.147 0 21.6797C0 24.0583 1.06138 25.867 5.81888 25.867C11.4879 25.867 14.5597 23.9716 14.5597 17.6659V0.879576H18.0061L17.9561 0Z" fill="#503629"/>
<path d="M19.3671 21.8653C19.096 21.8554 18.8259 21.9021 18.5742 22.0024C18.3226 22.1027 18.0949 22.2544 17.9061 22.4476C17.7116 22.6357 17.558 22.8613 17.4549 23.1106C17.3519 23.3599 17.3014 23.6276 17.3068 23.897C17.2997 24.1612 17.3495 24.4238 17.4529 24.6673C17.5562 24.9108 17.7108 25.1297 17.9061 25.3093C18.0966 25.5011 18.3242 25.6527 18.5753 25.7549C18.8264 25.8571 19.0957 25.9078 19.3671 25.9039C19.6402 25.9066 19.911 25.8555 20.164 25.7534C20.4169 25.6513 20.6469 25.5003 20.8405 25.3093C21.0359 25.1297 21.1904 24.9108 21.2938 24.6673C21.3971 24.4238 21.447 24.1612 21.4399 23.897C21.4434 23.6272 21.3919 23.3594 21.2886 23.1097C21.1854 22.8601 21.0324 22.6336 20.8389 22.4439C20.6454 22.2543 20.4153 22.1053 20.1624 22.0059C19.9095 21.9064 19.639 21.8586 19.3671 21.8653Z" fill="#503629"/>
<path d="M42.6179 21.8651C42.3476 21.8601 42.079 21.9092 41.8282 22.0095C41.5775 22.1098 41.3497 22.2593 41.1585 22.449C40.9673 22.6386 40.8167 22.8646 40.7156 23.1134C40.6145 23.3622 40.565 23.6286 40.57 23.8968C40.5669 24.1639 40.6222 24.4285 40.7321 24.6724C40.8421 24.9162 41.0041 25.1334 41.2069 25.3091C41.3986 25.4992 41.6265 25.6497 41.8773 25.7518C42.1281 25.8538 42.3968 25.9055 42.6678 25.9038C42.9413 25.9093 43.213 25.8594 43.4664 25.7572C43.7197 25.6549 43.9494 25.5025 44.1413 25.3091C44.3409 25.1322 44.4991 24.9141 44.6048 24.6702C44.7105 24.4262 44.7611 24.1623 44.7531 23.8968C44.7592 23.6273 44.7091 23.3594 44.606 23.11C44.5029 22.8606 44.3489 22.635 44.1538 22.4474C43.9585 22.2559 43.7262 22.1056 43.4708 22.0056C43.2154 21.9055 42.9423 21.8577 42.6678 21.8651" fill="#503629"/>
<path d="M35.3255 0H25.0613V0.891965H28.0706V20.5524C28.1475 21.3596 28.0539 22.1739 27.7959 22.9433C27.6813 23.2118 27.5109 23.4532 27.2957 23.6518C27.0805 23.8503 26.8254 24.0015 26.5472 24.0954C25.8681 24.3239 25.1539 24.4329 24.4369 24.4175V25.2352H35.4753V24.4299C34.761 24.4335 34.0501 24.3334 33.365 24.1326C33.089 24.0347 32.8359 23.882 32.6213 23.684C32.4066 23.4859 32.2348 23.2465 32.1164 22.9805C31.9055 22.4705 31.8117 21.9204 31.8416 21.37V14.6307H34.5763C42.5054 14.6307 44.7281 11.5212 44.7281 7.28438C44.7281 3.04755 43.3545 0 35.3255 0ZM33.9145 13.6272H31.8292V1.00346L33.7147 0.978684C39.8332 0.978684 41.2068 3.45636 41.2068 7.51976C41.2068 11.5832 38.8093 13.714 33.9519 13.714" fill="#503629"/>
<path d="M77.4187 22.8817C77.2538 22.3228 77.178 21.7418 77.1939 21.1597V0.89228L79.9161 0.867503V0.0622571H73.348C73.2606 0.297637 65.5687 19.2767 65.5687 19.2767C65.5561 19.3093 65.5339 19.3374 65.5049 19.3573C65.4759 19.3772 65.4416 19.388 65.4063 19.3882C65.3673 19.3913 65.3282 19.3823 65.2946 19.3623C65.261 19.3423 65.2346 19.3124 65.219 19.2767C65.219 19.2767 57.0277 0.297637 56.9402 0.0622571H49.7228V0.867503H52.8446V22.1756C52.8065 22.6166 52.6608 23.0418 52.42 23.4144C52.1276 23.7997 51.7218 24.0853 51.2587 24.232C50.7793 24.3657 50.2833 24.4324 49.7853 24.4302V25.2479H56.9402V24.4426C56.5161 24.4427 56.0945 24.3758 55.6916 24.2444C55.1952 24.1246 54.7548 23.8406 54.4429 23.4392C54.1999 23.0666 54.05 22.6419 54.0058 22.2003L53.9309 20.4288V3.53101H54.3555C54.3555 3.53101 63.6832 25.0001 63.6832 25.2355H64.4573L73.2856 3.71684H73.5103V21.0606C73.5231 21.6588 73.4474 22.2557 73.2856 22.8321C73.1933 23.0906 73.0496 23.3279 72.8629 23.5301C72.6763 23.7323 72.4506 23.8952 72.1992 24.009C71.613 24.2117 70.9969 24.3164 70.3761 24.3187V25.1364H80.3656V24.3187C79.7347 24.3148 79.1093 24.2016 78.5176 23.9843C78.2531 23.8696 78.0169 23.6996 77.825 23.4857C77.6332 23.2718 77.4903 23.0193 77.4062 22.7454" fill="#503629"/>
<path d="M90.8668 6.75136C85.5349 6.75136 82.1259 10.2573 82.1259 16.3895C82.1259 25.3711 89.181 25.9658 90.6919 25.9658C93.7138 25.9658 99.4327 24.1075 99.4327 16.2285C99.4327 10.0343 95.7741 6.75136 90.8293 6.75136H90.8668ZM90.8293 24.8508C86.8085 24.8508 86.1842 22.8687 86.1842 16.4886C86.1842 11.5333 86.4964 7.81677 90.8293 7.81677C95.4869 7.81677 95.5119 11.6448 95.5119 16.1294C95.5119 22.5837 94.4005 24.8013 90.8293 24.8013" fill="#503629"/>
<path d="M113.431 7.02419C110.234 7.02419 109.248 8.89484 108.361 10.8027H108.111C108.111 10.8027 107.649 8.04004 107.487 7.21002H101.244V8.15154H104.59C104.59 8.15154 104.59 10.9761 104.59 11.9919V20.6638C104.651 21.5547 104.51 22.4478 104.178 23.2778C103.841 23.8972 103.067 24.2069 101.805 24.2069H101.256V25.3095H111.62V24.2069H111.133C109.772 24.2069 109.185 23.9096 108.823 23.3273C108.435 22.4953 108.271 21.5775 108.349 20.6638V14.1227C108.349 11.9424 109.997 9.45232 111.982 9.45232C113.968 9.45232 114.005 12.6237 116.365 11.3477C117.614 10.654 117.427 7.02419 113.456 7.02419" fill="#503629"/>
<path d="M154.675 23.389C153.576 23.389 153.214 22.7696 153.139 21.7537V11.8925C153.214 11.2203 153.142 10.5398 152.926 9.89811C152.711 9.25641 152.357 8.66884 151.89 8.17601C150.929 7.22211 149.093 6.72657 146.421 6.72657C144.427 6.57868 142.437 7.06466 140.739 8.11407C140.237 8.41497 139.822 8.84045 139.535 9.3487C139.248 9.85696 139.099 10.4305 139.104 11.013C139.075 11.24 139.1 11.4706 139.178 11.6859C139.257 11.9013 139.385 12.0952 139.553 12.2518C139.868 12.5214 140.274 12.663 140.689 12.6482C141.713 12.6482 142.288 12.1279 142.512 10.79C142.537 10.0138 142.823 9.26811 143.324 8.67155C143.66 8.36906 144.055 8.13908 144.485 7.9962C144.915 7.85331 145.37 7.80064 145.822 7.84153C146.328 7.78623 146.84 7.85182 147.316 8.03284C147.792 8.21385 148.217 8.50505 148.556 8.88215C149.072 9.66408 149.325 10.5876 149.28 11.5209V14.5437C145.959 14.841 138.13 15.4604 138.479 21.3821C138.58 22.5813 139.137 23.6976 140.037 24.5049C140.936 25.3122 142.111 25.7503 143.324 25.7304C144.492 25.6933 145.639 25.4075 146.686 24.8924C147.733 24.3772 148.656 23.6448 149.393 22.7448C149.55 23.5467 149.992 24.2662 150.638 24.7729C151.284 25.2797 152.091 25.5402 152.914 25.5074C155.324 25.5074 156.773 24.3305 156.935 21.4068H156.311C156.148 22.6457 155.362 23.3642 154.7 23.3642L154.675 23.389ZM149.28 21.4564C149.291 21.4775 149.297 21.5008 149.297 21.5245C149.297 21.5482 149.291 21.5716 149.28 21.5927L149.205 21.667C147.432 23.2651 146.071 23.835 145.085 23.835C144.676 23.8483 144.269 23.774 143.891 23.6171C143.514 23.4602 143.175 23.2244 142.897 22.9257C142.62 22.6271 142.411 22.2726 142.284 21.8865C142.157 21.5004 142.116 21.0917 142.163 20.6883C142.163 17.331 146.808 15.6462 149.343 15.6462L149.28 21.4564Z" fill="#503629"/>
<path d="M175.915 23.2529C175.434 22.4453 175.208 21.5133 175.265 20.577V12.4006C175.315 11.3584 175.105 10.3202 174.654 9.37786C174.225 8.59962 173.573 7.9656 172.78 7.55676C171.928 7.15111 170.992 6.94755 170.046 6.96212C168.83 6.925 167.628 7.23431 166.584 7.85343C165.539 8.47256 164.695 9.37558 164.152 10.4556H163.815L163.166 7.18511H157.584V8.12663C158.645 8.12663 160.406 8.12663 160.406 8.12663V20.515C160.432 21.2274 160.36 21.94 160.194 22.6334C160.128 22.8962 159.998 23.1388 159.815 23.3398C159.632 23.5407 159.402 23.6938 159.145 23.7856C158.644 23.9624 158.116 24.0505 157.584 24.0457V25.1855H166.537V24.0333C166.193 24.0493 165.849 23.9886 165.532 23.8557C165.214 23.7228 164.93 23.521 164.701 23.2653C164.297 22.478 164.124 21.5936 164.202 20.7132V16.0057C164.202 14.0111 164.202 12.0785 164.876 10.8892C165.24 10.2635 165.767 9.74678 166.403 9.39356C167.038 9.04034 167.757 8.86372 168.485 8.88232C168.978 8.81856 169.48 8.90242 169.925 9.12314C170.369 9.34385 170.738 9.69138 170.982 10.1212C171.425 11.4808 171.632 12.905 171.594 14.3332V20.2301C171.594 21.2212 171.719 21.9397 171.594 22.4105C171.558 22.6602 171.469 22.8996 171.334 23.113C171.198 23.3265 171.019 23.5092 170.808 23.6493C170.367 23.8882 169.874 24.0159 169.372 24.0209V25.1731H178V24.0333C176.914 23.959 176.202 23.6989 175.89 23.1909" fill="#503629"/>
<path d="M135.383 6.02068C135.094 6.14208 134.844 6.33645 134.655 6.58431C134.467 6.83218 134.347 7.12484 134.309 7.43296C134.171 8.16387 133.884 8.59747 133.51 8.6718C133.094 8.76807 132.659 8.73785 132.261 8.58508C130.635 7.23325 128.547 6.55448 126.429 6.68965C125.477 6.61183 124.519 6.73543 123.618 7.05228C122.717 7.36913 121.894 7.87202 121.204 8.52773C120.513 9.18344 119.971 9.97703 119.613 10.8561C119.254 11.7351 119.088 12.6796 119.125 13.6272C119.125 17.4304 120.598 19.2763 123.845 19.9576C124.044 19.9576 124.044 20.2054 123.845 20.2426C121.123 20.7381 118.625 21.5433 118.625 24.1573C118.608 24.798 118.801 25.4269 119.174 25.9496C119.548 26.4724 120.083 26.8607 120.698 27.0562C122.42 27.6448 124.234 27.9258 126.055 27.8862C128.04 27.8862 129.451 27.9729 130.363 28.0844C131.201 28.1524 132.009 28.4294 132.71 28.8897C133.016 29.1407 133.257 29.4605 133.414 29.8224C133.57 30.1844 133.637 30.5781 133.609 30.9709C133.595 31.5875 133.404 32.1872 133.059 32.7004C132.714 33.2135 132.229 33.6191 131.661 33.8698C130.137 34.6106 128.45 34.9599 126.754 34.8857C125.19 34.9957 123.628 34.6513 122.259 33.8946C121.851 33.6128 121.541 33.2128 121.371 32.7492C121.201 32.2857 121.18 31.7814 121.31 31.3054C121.378 31.1079 121.403 30.8982 121.382 30.6904C121.362 30.4826 121.297 30.2815 121.191 30.1008C121.086 29.92 120.943 29.7637 120.772 29.6425C120.6 29.5212 120.405 29.4377 120.199 29.3976C119.901 29.3586 119.598 29.4029 119.325 29.5255C119.051 29.6481 118.817 29.8441 118.65 30.0913C118.354 30.5885 118.215 31.1625 118.251 31.739C118.276 32.5675 118.58 33.3638 119.114 34.0013C119.648 34.6388 120.381 35.0809 121.197 35.2573C122.811 35.7704 124.498 36.0173 126.192 35.9882C128.142 36.0716 130.086 35.7114 131.874 34.9352C133.057 34.415 134.054 33.5511 134.733 32.4575C135.241 31.5599 135.516 30.5508 135.532 29.5215C135.587 28.4144 135.29 27.3182 134.683 26.3872C132.885 23.9095 130.325 24.244 124.569 23.9715C121.809 23.9715 121.272 23.4759 121.272 22.6335C121.272 21.3947 122.296 20.8991 126.267 20.2921C130.238 19.6851 133.884 18.248 133.884 13.4785C133.896 12.312 133.649 11.1572 133.16 10.0965C133.904 10.2965 134.688 10.2965 135.432 10.0965C135.772 10.0091 136.089 9.85417 136.366 9.64121C136.643 9.42824 136.873 9.16165 137.043 8.85763C137.221 8.61865 137.341 8.34278 137.395 8.05089C137.449 7.75901 137.436 7.45874 137.355 7.1728C137.018 6.1074 136.381 5.72336 135.395 6.02068H135.383ZM126.492 19.1648C124.144 19.1648 122.746 18.3224 122.746 13.5652C122.746 10.208 123.92 7.71789 126.492 7.71789C129.439 7.71789 130.238 9.98497 130.238 13.4909C130.238 18.4462 128.652 19.1648 126.492 19.1648Z" fill="#503629"/>
</svg>
