<svg width="137" height="23" viewBox="0 0 137 23" fill="none" xmlns="http://www.w3.org/2000/svg">
<path d="M98.3309 0H103.55V23H98.3309V0Z" fill="black"/>
<path d="M19.5511 21.8481C18.7828 22.611 17.3112 22.9906 15.1471 22.9906H5.55459C3.38145 22.9906 1.90804 22.6147 1.14699 21.8555C0.385936 21.0963 0 19.6668 0 17.5595V12.7914L5.25702 11.7674V18.6761H15.4789V0.00539062H20.7089V17.5521C20.7089 19.6594 20.3193 21.0852 19.5511 21.8481Z" fill="black"/>
<path d="M114.976 0.00539062V22.9998H137V18.6761H120.196V0.00539062H114.976Z" fill="black"/>
<path fill-rule="evenodd" clip-rule="evenodd" d="M84.2565 11.129C85.5466 11.3018 86.5415 11.7734 87.2412 12.5437C87.9362 13.3127 88.283 14.3151 88.2818 15.5508V18.4858C88.2818 20.0079 87.748 21.1393 86.6479 21.88C85.5478 22.6206 83.8922 22.991 81.6668 22.991H63.8921V11.116L51.8487 14.3213L56.6838 22.991H50.8388L46.9885 15.6267L33.3274 19.2616V19.245L33.3184 19.2616L31.3617 22.991H26.175L38.8351 0.00764023H43.8559L49.7405 10.5623H63.8921V0.00764023H83.0681C84.8427 0.00640488 86.1255 0.361933 86.9166 1.07422C87.7077 1.78651 88.1033 2.91975 88.1033 4.47395V7.27001C88.1033 8.36437 87.7732 9.23837 87.1132 9.89943C86.4531 10.5605 85.4973 10.9716 84.2565 11.129ZM41.1616 4.47395L37.937 10.5438L44.3013 10.5475L41.1616 4.47395ZM80.8913 3.75549H69.0157V9.21246H80.8805C81.7858 9.21246 82.4044 9.08099 82.7489 8.84212C83.0933 8.60325 83.2737 8.1755 83.2737 7.56629V5.3998C83.2737 4.81466 83.0933 4.38877 82.7597 4.13879C82.4194 3.88325 81.7966 3.75549 80.8913 3.75549ZM82.9094 18.408C83.2556 18.1025 83.436 17.5673 83.436 16.7933L83.4288 16.7859V15.0435C83.4288 14.275 83.2484 13.7399 82.9022 13.4417C82.5559 13.1436 81.8814 12.9918 80.8841 12.9918H69.0157V18.8635H80.8913C81.8904 18.8635 82.5631 18.7135 82.9094 18.408Z" fill="black"/>
</svg>
