<svg width="176" height="52" viewBox="0 0 176 52" fill="none" xmlns="http://www.w3.org/2000/svg">
<path fill-rule="evenodd" clip-rule="evenodd" d="M23.2213 21.0751L23.1774 21.0786C22.8553 21.1034 21.5406 21.2044 20.424 21.9852C19.8204 22.4067 15.5956 25.5872 15.5956 25.5872C15.5956 25.5872 11.3708 22.4067 10.7673 21.9852C9.64575 21.2073 8.3363 21.1041 8.01611 21.0789L7.96997 21.0751C7.74011 21.0559 7.69214 21.1517 7.80713 21.2667C7.82776 21.2861 7.85339 21.3072 7.88257 21.3311C8.08362 21.4962 8.44897 21.7963 8.44897 22.6079C8.44897 23.0912 8.43591 24.3752 8.42346 25.6055V25.6227C8.41199 26.7517 8.40112 27.8321 8.40112 28.2026C8.40112 30.6359 10.135 32.8393 12.3959 32.8393C12.9132 32.8393 14.8292 32.8105 14.8292 32.8105C14.8292 32.8105 15.3274 33.4524 15.5861 33.4524C15.8351 33.4524 16.3716 32.8105 16.3716 32.8105C16.3716 32.8105 18.2876 32.8393 18.8049 32.8393C21.0562 32.8393 22.7998 30.6359 22.7998 28.2026C22.7998 27.8327 22.7888 26.7554 22.7773 25.6284V25.6227C22.7649 24.3872 22.7518 23.0934 22.7518 22.6079C22.7518 21.7963 23.1172 21.4962 23.3182 21.3311C23.3474 21.3072 23.373 21.2861 23.3937 21.2667C23.4991 21.1517 23.4608 21.0464 23.2213 21.0751ZM12.5779 31.3161C10.432 31.3161 10.0872 29.1414 10.0872 28.557V23.6329C10.0872 23.4126 10.0583 23.2593 9.90515 23.1827C9.7998 23.1348 9.78064 22.9623 9.96265 22.9623C9.97095 22.9623 9.9834 22.9612 9.99963 22.9597C10.1337 22.9477 10.5283 22.9121 11.0068 23.2881C11.4762 23.6521 11.6678 24.1119 11.6678 24.6293C11.6678 24.8879 11.6606 25.6543 11.6534 26.4207C11.6462 27.1871 11.639 27.9535 11.639 28.2122C11.639 28.7295 12.051 29.2851 12.7025 29.2851C13.3922 29.2851 13.7467 28.5283 13.7467 27.9439C13.7467 27.3308 13.3922 26.7464 13.0569 26.7177C12.8462 26.7081 12.5779 26.8135 12.3864 26.9668C12.2427 27.0817 12.166 27.0626 12.2043 26.8518L12.2064 26.8401C12.2513 26.5911 12.5132 25.137 13.7754 25.137C14.7526 25.137 15.4615 26.3249 15.4615 27.6757C15.4615 29.1702 14.7239 31.3161 12.5779 31.3161ZM12.3289 27.9822C12.3289 27.7523 12.5109 27.5703 12.7408 27.5703C12.9707 27.5703 13.1527 27.7523 13.1527 27.9822C13.1527 28.2122 12.9707 28.3942 12.7408 28.3942C12.5205 28.3942 12.3289 28.2122 12.3289 27.9822ZM21.2957 23.1923C21.1328 23.2593 21.1136 23.4126 21.1136 23.6425V28.5666C21.1136 29.1606 20.7688 31.3257 18.6229 31.3257C16.4769 31.3257 15.7393 29.1797 15.7393 27.6853C15.7393 26.3249 16.4578 25.1466 17.4254 25.1466C18.6876 25.1466 18.9495 26.6007 18.9944 26.8497L18.9965 26.8614C19.0348 27.0721 18.9581 27.0817 18.8145 26.9763C18.6324 26.8326 18.3546 26.7177 18.1439 26.7273C17.8086 26.7464 17.4541 27.3308 17.4541 27.9535C17.4541 28.5475 17.8086 29.2947 18.4983 29.2947C19.1498 29.2947 19.5618 28.7391 19.5618 28.2217C19.5618 28.0475 19.5585 27.6427 19.5541 27.1628L19.5474 26.4303C19.5402 25.6639 19.533 24.8975 19.533 24.6389C19.533 24.1215 19.7246 23.6617 20.194 23.2976C20.7305 22.8857 21.1616 22.9719 21.2382 22.9719C21.4203 22.9623 21.4106 23.1444 21.2957 23.1923ZM18.8911 27.9822C18.8911 28.2217 18.6996 28.4134 18.4601 28.4134C18.2206 28.4134 18.0289 28.2217 18.0289 27.9822C18.0289 27.7428 18.2206 27.5511 18.4601 27.5511C18.6996 27.5511 18.8911 27.7428 18.8911 27.9822Z" fill="#095540"/>
<path d="M15.5966 24.4958L11.0078 21.1045L19.9554 21.162L15.5966 24.4958Z" fill="#095540"/>
<path fill-rule="evenodd" clip-rule="evenodd" d="M5.05823 14.801C7.82678 12.2527 11.5438 10.72 15.6057 10.72C24.199 10.72 31.1827 17.7421 31.1827 26.3832C31.1827 35.0147 24.199 41.6824 15.6057 41.6824C6.98376 41.6824 0 34.6794 0 26.0383V0H5.05823V14.801ZM5.06775 26.0479C5.06775 31.8821 9.78113 36.605 15.6057 36.605C21.4016 36.605 26.115 31.8725 26.115 26.0479C26.115 20.2233 21.4016 15.5004 15.6057 15.5004C9.78113 15.5004 5.06775 20.2233 5.06775 26.0479Z" fill="#095540"/>
<path d="M41.933 7.61523H41.3965V44.6609H41.933V7.61523Z" fill="#095540"/>
<path fill-rule="evenodd" clip-rule="evenodd" d="M69.6647 25.2815C71.9064 24.0744 73.2762 21.6986 73.2762 18.9395C73.2762 15.1363 71.5806 10.605 63.5048 10.605H53.5703V41.7686H63.7921C72.4716 41.7686 74.3014 36.9499 74.3014 32.8975C74.3014 29.9661 73.0656 26.5077 69.6647 25.2815ZM64.2424 24.0361H56.8275V13.661H63.9166C69.109 13.661 69.7795 16.4871 69.7795 18.9491C69.7795 22.3213 67.9115 24.0361 64.2424 24.0361ZM70.8047 32.8975C70.8047 35.3979 70.1149 38.7221 64.1658 38.7221H56.8275V27.0825H64.2424C68.9653 27.0825 70.8047 28.7111 70.8047 32.8975Z" fill="#095540"/>
<path fill-rule="evenodd" clip-rule="evenodd" d="M85.9333 20.4346C78.0203 20.4346 77.1006 26.6424 77.1006 31.3078C77.1006 35.9732 78.0107 42.1811 85.9333 42.1811C88.6636 42.1811 90.8958 41.7691 92.783 40.9357L92.9266 40.8782V37.918L92.601 38.0617C90.6562 38.8951 88.9127 39.1921 85.9429 39.1921C81.4786 39.1921 80.6356 36.0403 80.4631 32.8694H93.9518V31.327C93.9421 25.7993 93.329 20.4346 85.9333 20.4346ZM80.444 30.0528C80.5876 26.5849 81.402 23.4427 85.9333 23.4427C90.1772 23.4427 90.5988 26.2879 90.6083 30.0528H80.444Z" fill="#095540"/>
<path d="M166.471 37.1319L172.027 20.8364H175.812L163.846 52H160.263L164.986 41.0022L157.121 20.8364H160.905L166.471 37.1319Z" fill="#095540"/>
<path d="M134.743 37.7744V10.6152H131.495V37.4487C131.495 40.6771 132.999 42.1812 136.228 42.1812H136.458V39.3839H136.228C135.059 39.3839 134.743 39.0294 134.743 37.7744Z" fill="#095540"/>
<path fill-rule="evenodd" clip-rule="evenodd" d="M139.438 31.3078C139.438 26.6424 140.348 20.4346 148.261 20.4346C155.647 20.4346 156.27 25.7993 156.279 31.327V32.8694H142.791C142.963 36.0403 143.806 39.1921 148.27 39.1921C151.25 39.1921 152.984 38.8951 154.928 38.0617L155.254 37.918V40.8782L155.11 40.9357C153.223 41.7691 150.991 42.1811 148.261 42.1811C140.348 42.1811 139.438 35.9732 139.438 31.3078ZM148.261 23.4427C143.739 23.4427 142.915 26.5849 142.771 30.0528H152.936C152.926 26.2879 152.505 23.4427 148.261 23.4427Z" fill="#095540"/>
<path d="M128.707 20.8364H124.185L115.266 29.6787V10.605H112.009V41.7686H115.266V33.7022L117.584 31.4893L125.555 41.7686H129.722L119.644 29.5254L128.707 20.8364Z" fill="#095540"/>
<path d="M100.12 22.4272C101.969 21.1339 104.249 20.4346 106.596 20.4346C107.641 20.4346 108.407 20.5304 109.087 20.6453L109.288 20.6741V23.8642L108.982 23.7588C108.349 23.5481 107.545 23.4427 106.596 23.4427C104.125 23.4427 102.458 23.7971 100.896 24.6593V41.7787H97.5625V20.8465H99.5552L100.12 22.4272Z" fill="#095540"/>
</svg>
