<svg width="570" height="347" viewBox="0 0 570 347" fill="none" xmlns="http://www.w3.org/2000/svg">
<g opacity="0.9">
<path opacity="0.5" d="M222.52 118.161L103.126 188.531C96.2908 192.56 96.2908 202.487 103.126 206.515L280.445 310.982C293.414 318.626 309.484 318.626 322.453 310.982L441.847 240.613C448.682 236.584 448.682 226.657 441.847 222.629L264.527 118.162C251.559 110.518 235.489 110.518 222.52 118.161Z" fill="url(#paint0_linear_1_645)"/>
<path opacity="0.5" d="M222.52 106.161L103.126 176.531C96.2908 180.56 96.2908 190.487 103.126 194.515L280.445 298.982C293.414 306.626 309.484 306.626 322.453 298.982L441.847 228.613C448.682 224.584 448.682 214.657 441.847 210.629L264.527 106.162C251.559 98.5178 235.489 98.5178 222.52 106.161Z" fill="url(#paint1_linear_1_645)"/>
<path opacity="0.6" d="M309.212 288.482L309.21 288.484C303.942 291.584 297.423 291.648 292.095 288.652C292.094 288.652 292.094 288.651 292.093 288.651L217.14 244.696L217.14 244.696L217.137 244.694C213.232 242.498 213.185 236.893 217.053 234.632L217.055 234.631L268.612 204.016C268.613 204.016 268.613 204.016 268.613 204.016C272.591 201.692 277.503 201.651 281.518 203.909C281.519 203.909 281.519 203.909 281.52 203.91L360.198 250.364L360.201 250.365C363.697 252.332 363.746 257.347 360.29 259.382C360.29 259.382 360.29 259.382 360.289 259.382L309.212 288.482Z" fill="url(#paint2_linear_1_645)" stroke="url(#paint3_linear_1_645)" stroke-width="0.360169" stroke-miterlimit="10"/>
<g filter="url(#filter0_d_1_645)">
<path d="M294.75 236.237C293.636 236.88 292.266 236.887 291.146 236.256L270.076 224.375C269.095 223.822 269.088 222.412 270.063 221.849C271.177 221.206 272.547 221.199 273.667 221.83L294.737 233.71C295.718 234.264 295.725 235.674 294.75 236.237Z" fill="url(#paint4_linear_1_645)"/>
<path d="M245.993 228.27C245.019 228.832 245.024 230.239 246.001 230.795L268.802 243.768C269.925 244.407 271.302 244.403 272.42 243.757C273.394 243.195 273.389 241.788 272.412 241.232L249.611 228.259C248.488 227.62 247.111 227.624 245.993 228.27Z" fill="url(#paint5_linear_1_645)"/>
<path d="M282.837 249.562C281.726 250.203 280.359 250.211 279.241 249.584L276.237 247.899C275.254 247.348 275.245 245.935 276.221 245.372C277.332 244.73 278.699 244.722 279.817 245.349L282.821 247.034C283.804 247.585 283.813 248.998 282.837 249.562Z" fill="url(#paint6_linear_1_645)"/>
<path d="M270.038 232.008C269.065 232.57 269.069 233.975 270.045 234.532L307.495 255.726C308.619 256.368 309.999 256.365 311.119 255.718C312.092 255.156 312.089 253.75 311.113 253.193L273.662 231.999C272.538 231.358 271.159 231.361 270.038 232.008Z" fill="url(#paint7_linear_1_645)"/>
<path d="M314.438 257.212C313.464 257.774 313.469 259.182 314.448 259.737L323.49 264.864C324.612 265.5 325.986 265.495 327.103 264.85C328.077 264.288 328.072 262.879 327.093 262.325L318.051 257.198C316.929 256.562 315.555 256.567 314.438 257.212Z" fill="url(#paint8_linear_1_645)"/>
<path d="M314.507 237.42C313.385 238.068 312.004 238.07 310.879 237.426L278.863 219.295C277.888 218.737 277.886 217.332 278.858 216.771C279.98 216.123 281.362 216.121 282.486 216.764L314.503 234.896C315.477 235.454 315.48 236.858 314.507 237.42Z" fill="url(#paint9_linear_1_645)"/>
<path d="M247.82 238.916C246.85 239.476 246.849 240.876 247.819 241.438L267.987 253.119C269.114 253.772 270.504 253.773 271.632 253.122C272.603 252.562 272.603 251.162 271.634 250.6L251.466 238.919C250.339 238.266 248.948 238.265 247.82 238.916Z" fill="url(#paint10_linear_1_645)"/>
<path d="M255.332 254.38C254.202 255.033 252.809 255.031 251.681 254.374L245.042 250.514C244.075 249.951 244.077 248.553 245.046 247.993C246.177 247.341 247.57 247.343 248.698 247.999L255.336 251.859C256.304 252.422 256.302 253.821 255.332 254.38Z" fill="url(#paint11_linear_1_645)"/>
<path d="M275.094 254.646C274.127 255.205 274.122 256.599 275.085 257.165L297.383 269.963C298.513 270.627 299.913 270.632 301.049 269.977C302.016 269.418 302.021 268.024 301.058 267.458L278.76 254.66C277.63 253.996 276.23 253.991 275.094 254.646Z" fill="url(#paint12_linear_1_645)"/>
</g>
<g clip-path="url(#clip0_1_645)">
<path d="M371 202.539V111.003C371 105.757 369.636 100.601 367.042 96.0419C364.447 91.4826 360.712 87.6763 356.202 84.9967L273.116 35.6282C271.756 34.8096 270.206 34.3602 268.62 34.3246C267.033 34.2889 265.465 34.6683 264.07 35.425L256.36 38.7291C254.148 39.9033 253.041 40.5788 251.897 42.1536C250.754 43.7283 249.993 45.5425 250 47.4886V145.589C250 149.232 250.945 152.812 252.744 155.98C254.543 159.148 257.133 161.794 260.261 163.661L348.662 216.329C349.957 217.113 351.427 217.561 352.939 217.633C354.451 217.705 355.958 217.399 357.322 216.742L357.324 216.744C361.237 214.37 366.214 210.928 369.585 207.468C370.518 205.994 371.009 204.283 371 202.539Z" fill="url(#paint13_linear_1_645)"/>
<path d="M371 122.818V111.003C371 105.757 369.636 100.601 367.042 96.0419C364.447 91.4826 360.712 87.6764 356.202 84.9968L273.116 35.6282C271.756 34.8096 270.206 34.3602 268.62 34.3246C267.033 34.2889 265.465 34.6683 264.07 35.425L256.36 38.7291C251.897 40.8034 250.083 43.8274 250.097 48.0044V62.4065L362.614 126.766L371 122.818Z" fill="url(#paint14_linear_1_645)"/>
<path d="M362.614 208.228V126.766L250.097 60.6064L250.097 146.196C250.097 149.838 251.046 153.417 252.85 156.584C254.654 159.751 257.251 162.397 260.389 164.263L348.649 216.132C350.051 216.966 351.649 217.414 353.281 217.432C354.913 217.449 356.52 217.035 357.939 216.232C359.359 215.429 360.539 214.265 361.36 212.859C362.181 211.453 362.614 209.855 362.614 208.228Z" fill="url(#paint15_linear_1_645)"/>
<path d="M362.614 126.765L362.614 115.536C362.614 110.303 361.246 105.161 358.644 100.614C356.042 96.0662 352.296 92.2698 347.773 89.5971L263.949 40.0492C262.547 39.2208 260.95 38.7764 259.319 38.7611C257.689 38.7459 256.083 39.1604 254.666 39.9624C253.249 40.7644 252.07 41.9253 251.251 43.3271C250.431 44.729 250.097 46.5013 250.097 48.123V60.6056L362.614 126.765Z" fill="url(#paint16_linear_1_645)"/>
<path d="M336.576 95.8112C337.495 97.5084 337.329 99.4354 336.205 100.116C335.081 100.796 333.425 99.9711 332.506 98.2738C331.587 96.5764 331.753 94.6495 332.877 93.969C334.001 93.2885 335.658 94.1138 336.576 95.8112Z" fill="#D296FF"/>
<path d="M344.513 100.481C345.432 102.179 345.266 104.106 344.142 104.786C343.018 105.467 341.362 104.641 340.442 102.944C339.523 101.247 339.69 99.3198 340.814 98.6393C341.938 97.9588 343.594 98.7841 344.513 100.481Z" fill="#D296FF"/>
<path d="M352.536 105.178C353.455 106.875 353.288 108.802 352.164 109.483C351.04 110.163 349.384 109.338 348.465 107.641C347.546 105.943 347.712 104.016 348.836 103.336C349.96 102.655 351.617 103.481 352.536 105.178Z" fill="#D296FF"/>
<g filter="url(#filter1_d_1_645)">
<path d="M348.113 132.489C348.113 130.975 347.317 129.572 346.018 128.798L299.652 101.153C298.509 100.471 297.059 101.296 297.059 102.629C297.059 104.143 297.855 105.546 299.154 106.32L345.521 133.965C346.664 134.647 348.113 133.822 348.113 132.489Z" fill="url(#paint17_linear_1_645)"/>
<path d="M319.198 139.028C319.198 137.508 318.397 136.101 317.09 135.328L270.275 107.623C269.131 106.946 267.686 107.772 267.686 109.103C267.686 110.623 268.488 112.03 269.794 112.803L316.609 140.508C317.753 141.185 319.198 140.359 319.198 139.028Z" fill="url(#paint18_linear_1_645)"/>
<path d="M294.348 147.869C294.348 146.348 293.545 144.94 292.237 144.168L269.724 130.868C268.58 130.192 267.136 131.018 267.136 132.348C267.136 133.87 267.939 135.277 269.247 136.05L291.76 149.35C292.904 150.026 294.348 149.2 294.348 147.869Z" fill="url(#paint19_linear_1_645)"/>
<path d="M281.291 105.51C281.291 104.176 282.744 103.351 283.887 104.037L334.164 134.218C335.456 134.994 336.247 136.392 336.247 137.901C336.247 139.236 334.794 140.061 333.651 139.375L283.374 109.194C282.082 108.418 281.291 107.019 281.291 105.51Z" fill="url(#paint20_linear_1_645)"/>
<path d="M325.602 155.196C325.602 153.679 324.803 152.274 323.5 151.5L278.439 124.548C277.295 123.869 275.848 124.695 275.848 126.026C275.848 127.544 276.647 128.949 277.95 129.722L323.011 156.674C324.155 157.354 325.602 156.528 325.602 155.196Z" fill="url(#paint21_linear_1_645)"/>
<path d="M267.136 144.351C267.136 143.018 268.586 142.193 269.729 142.875L314.554 169.619C315.853 170.394 316.648 171.796 316.648 173.31C316.648 174.643 315.198 175.468 314.055 174.786L269.23 148.042C267.932 147.267 267.136 145.865 267.136 144.351Z" fill="url(#paint22_linear_1_645)"/>
<path d="M267.686 97.5864C267.686 96.2592 269.123 95.432 270.268 96.1L275.892 99.3819C277.212 100.152 278.024 101.567 278.024 103.098C278.024 104.425 276.587 105.252 275.443 104.584L269.818 101.302C268.498 100.532 267.686 99.1169 267.686 97.5864Z" fill="url(#paint23_linear_1_645)"/>
<path d="M293.26 99.7858C293.26 98.262 292.454 96.8521 291.143 96.08L264.287 80.269C263.143 79.5953 261.701 80.4218 261.701 81.7513C261.701 83.2751 262.506 84.6851 263.818 85.4572L290.673 101.268C291.818 101.942 293.26 101.115 293.26 99.7858Z" fill="url(#paint24_linear_1_645)"/>
<path d="M270.409 158.153C270.409 156.821 271.856 155.995 273 156.674L285.761 164.111C287.064 164.885 287.864 166.29 287.864 167.807C287.864 169.139 286.417 169.965 285.273 169.286L272.512 161.849C271.209 161.075 270.409 159.67 270.409 158.153Z" fill="url(#paint25_linear_1_645)"/>
</g>
</g>
<path d="M324.119 183.868C325.787 182.951 327.587 182.297 329.455 181.931C333.403 181.337 337.437 181.84 341.115 183.385V174.749C339.81 175.081 338.574 175.641 337.464 176.402H337.517L337.538 176.306C337.467 176.344 337.413 176.336 337.343 176.373L324.112 183.824L324.116 183.868H324.119Z" fill="#99620A"/>
<path d="M341.323 173.595V174.75C340.02 175.09 338.759 175.579 337.569 176.206L337.564 176.208C337.493 176.246 337.425 176.287 337.356 176.325L324.119 183.733V183.735C312.173 190.182 312.567 209.076 316.368 221.889C320.675 236.405 337.329 264.436 358.585 266.82C363.837 267.41 367.372 266.509 370.874 264.714C374.261 262.839 377.475 260.949 381.026 258.838C385.083 256.134 388.12 254.025 388.238 253.891C393.714 247.649 393.972 239.032 393.972 239.032C395.014 204.089 367.164 183.04 367.164 183.04V172.953C367.164 172.218 366.966 171.496 366.591 170.863C366.217 170.229 365.679 169.706 365.033 169.349L355.685 164.168L342.194 172.149C342.194 172.149 341.323 172.368 341.323 173.595Z" fill="url(#paint26_linear_1_645)"/>
<path d="M368.301 206.446L381.632 198.897L383.573 196.641C384.271 195.761 384.649 194.672 384.646 193.552C384.755 191.713 384.667 189.084 381.23 185.009C381.23 185.009 377.74 180.706 373.937 182.209L360.662 190.122C360.346 190.369 360.077 190.67 359.868 191.012C359.414 191.756 357.99 194.188 357.99 194.188C357.99 194.188 364.625 200.503 368.301 206.446Z" fill="url(#paint27_linear_1_645)"/>
<path d="M351.214 174.214C351.214 174.214 349.704 170.119 348.826 167.641C347.888 164.997 345.127 160.072 340.478 161.834C336.153 163.474 338.25 168.989 338.25 168.989L340.523 174.849C341.566 174.472 342.639 174.182 343.731 173.983C346.22 173.626 348.752 173.705 351.214 174.214Z" fill="#35AEFB"/>
<path d="M337.043 182.094C337.043 182.094 335.534 178 334.655 175.521C333.717 172.877 330.956 167.952 326.307 169.715L340.477 161.834C345.127 160.072 347.888 164.997 348.825 167.641C349.704 170.119 351.213 174.214 351.213 174.214L337.043 182.094Z" fill="url(#paint28_linear_1_645)"/>
<path d="M337.043 182.094C337.043 182.094 335.534 178 334.655 175.521C333.717 172.877 330.956 167.952 326.306 169.715C321.981 171.355 324.079 176.87 324.079 176.87L326.351 182.729C327.395 182.352 328.468 182.063 329.559 181.864C332.048 181.507 334.581 181.585 337.043 182.094Z" fill="#B362EF"/>
<path d="M329.917 181.81L328.247 177.855C328.247 177.855 326.971 175.652 328.534 175.03C330.096 174.408 330.93 176.326 331.217 177C331.503 177.673 332.988 181.657 332.988 181.657C331.962 181.635 330.935 181.686 329.917 181.81Z" fill="#7223AC"/>
<path d="M350.032 167.513C349.318 166.714 348.498 166.015 347.597 165.434C344.244 163.326 341.525 164.533 341.525 168.128C341.561 169.471 341.858 170.796 342.399 172.027L350.032 167.513Z" fill="#621D95"/>
<path d="M364.929 169.349L355.633 164.168L342.063 172.149C341.762 172.245 341.504 172.441 341.331 172.704C341.158 172.968 341.082 173.282 341.115 173.595V183.385C341.115 183.385 346.811 185.32 353.826 190.505C353.899 190.559 353.968 190.614 354.037 190.669L366.955 182.774V172.953C366.976 172.227 366.799 171.507 366.442 170.874C366.085 170.239 365.562 169.713 364.929 169.349Z" fill="url(#paint29_linear_1_645)"/>
<path d="M357.99 194.188L359.868 191.012C360.139 190.538 360.542 190.15 361.029 189.897C361.516 189.644 362.065 189.535 362.612 189.585C364.025 189.74 366.096 190.66 368.727 193.72C373.988 199.837 369.769 204.607 369.769 204.607L368.301 206.447C365.315 202.005 361.859 197.895 357.99 194.188Z" fill="url(#paint30_linear_1_645)"/>
<path d="M362.612 189.585C364.025 189.74 366.096 190.66 368.727 193.72C373.988 199.837 369.769 204.607 369.769 204.607" stroke="url(#paint31_radial_1_645)" stroke-width="0.488106"/>
<path d="M361.805 198.16L363.158 195.754C363.158 195.754 364.148 194.093 366.083 195.99C368.018 197.886 366.514 199.712 366.514 199.712L364.946 201.782C364.946 201.782 363.058 199.528 361.805 198.16Z" fill="#621D95"/>
<path d="M353.827 190.505C353.827 190.505 381.577 211.554 380.535 246.497C380.535 246.497 379.841 269.205 358.585 266.82C337.33 264.436 320.675 236.405 316.369 221.889C312.062 207.371 312.125 185.044 329.56 181.864C333.548 181.317 337.609 181.842 341.324 183.385V173.432C341.324 173.191 341.387 172.954 341.507 172.745C341.628 172.536 341.801 172.362 342.009 172.239C342.218 172.117 342.455 172.052 342.697 172.048C342.939 172.045 343.178 172.106 343.39 172.222L351.908 176.932C352.49 177.254 352.975 177.724 353.312 178.295C353.65 178.865 353.827 179.515 353.827 180.177V190.505Z" fill="url(#paint32_linear_1_645)"/>
<path d="M353.828 190.505C353.828 190.505 381.577 211.555 380.536 246.498C380.536 246.498 379.841 269.206 358.585 266.821" stroke="url(#paint33_radial_1_645)" stroke-width="0.563108"/>
<path d="M346.394 190.228C346.394 190.228 365.713 199.309 373.832 224.925C381.803 250.074 371.108 262.003 359.903 261.596C351.024 261.274 335.651 255.834 322.618 228.243C321.334 225.528 320.329 222.69 319.62 219.772C317.345 210.383 315.83 190.609 331.529 187.29C331.529 187.29 338.198 185.812 346.394 190.228Z" fill="url(#paint34_linear_1_645)"/>
<path d="M359.903 261.595C371.108 262.002 381.804 250.074 373.832 224.924C365.713 199.309 346.394 190.227 346.394 190.227C338.198 185.812 331.529 187.289 331.529 187.289" stroke="url(#paint35_radial_1_645)" stroke-width="0.450704"/>
<path d="M346.077 198.699C346.182 198.748 356.647 203.783 363.571 217.03C363.724 217.322 363.988 217.543 364.304 217.642C364.621 217.741 364.963 217.711 365.258 217.559C365.552 217.407 365.774 217.144 365.873 216.83C365.973 216.514 365.943 216.173 365.79 215.881C358.607 202.139 347.979 196.848 347.178 196.464C340.427 192.839 334.908 194.002 334.676 194.054C334.355 194.128 334.077 194.325 333.901 194.602C333.725 194.88 333.666 195.214 333.738 195.534C333.808 195.855 334.003 196.133 334.279 196.312C334.556 196.489 334.892 196.552 335.215 196.484C335.264 196.474 340.117 195.491 346.016 198.668L346.077 198.699Z" fill="url(#paint36_linear_1_645)"/>
<path d="M371.472 234.944C371.448 234.615 371.293 234.308 371.043 234.092C370.792 233.876 370.465 233.768 370.134 233.792C369.804 233.816 369.496 233.97 369.28 234.22C369.062 234.468 368.954 234.794 368.978 235.123C369.539 242.822 367.161 247.012 365.067 249.172C364.067 250.222 362.852 251.046 361.505 251.59C360.158 252.134 358.71 252.386 357.257 252.327C354.869 252.24 351.13 251.602 346.875 249.058C346.59 248.89 346.251 248.841 345.93 248.921C345.609 249.001 345.334 249.204 345.163 249.486C344.993 249.768 344.941 250.106 345.021 250.425C345.1 250.745 345.304 251.02 345.586 251.191C349.079 253.348 353.061 254.594 357.165 254.813C357.327 254.82 357.489 254.822 357.65 254.822C359.373 254.827 361.079 254.481 362.664 253.806C364.25 253.131 365.679 252.142 366.867 250.9C369.315 248.375 372.1 243.558 371.472 234.944Z" fill="url(#paint37_linear_1_645)"/>
<path d="M367.675 227.667C367.459 226.85 367.215 226.011 366.948 225.172C366.832 224.809 366.714 224.449 366.593 224.094C366.487 223.781 366.51 223.439 366.657 223.144C366.804 222.847 367.062 222.622 367.377 222.516C367.69 222.41 368.034 222.433 368.331 222.579C368.629 222.725 368.856 222.982 368.962 223.295C369.089 223.667 369.212 224.043 369.333 224.423C369.61 225.299 369.867 226.177 370.094 227.032C370.178 227.351 370.132 227.69 369.965 227.975C369.798 228.261 369.524 228.468 369.203 228.552C368.883 228.637 368.541 228.591 368.255 228.424C367.968 228.258 367.76 227.986 367.675 227.667Z" fill="url(#paint38_linear_1_645)"/>
<path d="M345.283 185.045L349.467 187.35L349.556 180.276L345.283 178.039V185.045Z" fill="#661E9B"/>
<path d="M354.059 232.337L352.914 230.511C353.644 229.238 353.85 227.233 352.97 224.455C351.26 219.059 347.19 217.145 347.19 217.145C346.432 216.726 345.584 216.497 344.717 216.478L330.714 192.809C330.49 192.429 330.124 192.155 329.695 192.044C329.267 191.933 328.813 191.996 328.432 192.219C328.05 192.442 327.774 192.806 327.663 193.233C327.552 193.658 327.615 194.111 327.839 194.49L341.845 218.163C340.987 219.751 341.229 222.047 341.549 223.369C341.699 223.984 341.91 224.582 342.181 225.154C344.925 230.963 348.161 232.111 350.031 232.181L351.184 234.018C351.409 234.394 351.775 234.666 352.202 234.774C352.628 234.883 353.081 234.819 353.46 234.597C353.84 234.376 354.116 234.013 354.227 233.59C354.34 233.166 354.279 232.716 354.059 232.337Z" fill="url(#paint39_linear_1_645)"/>
<path d="M329.696 192.044C330.124 192.155 330.49 192.43 330.714 192.809L344.717 216.478C345.583 216.497 346.432 216.726 347.19 217.145C347.19 217.145 351.26 219.059 352.97 224.455C353.851 227.233 353.644 229.239 352.914 230.512L354.059 232.337C354.279 232.715 354.34 233.166 354.228 233.59" stroke="url(#paint40_linear_1_645)" stroke-width="0.450704"/>
<path d="M347.331 221.903C348.28 222.441 348.982 223.327 349.284 224.372C349.851 226.162 349.09 227.011 348.292 226.981C347.66 226.958 346.567 226.572 345.639 224.608C345.548 224.415 345.476 224.213 345.426 224.005C345.264 223.337 345.156 221.93 346.273 221.694C346.64 221.644 347.012 221.718 347.331 221.903Z" fill="#661E9B"/>
<path d="M360.777 152.809C357.69 150.869 354.913 150.539 352.977 151.58L339.905 159.304C341.836 158.33 344.567 158.681 347.597 160.586C353.448 164.263 358.191 172.329 358.191 178.603C358.191 181.29 357.316 183.206 355.86 184.236C355.882 184.22 355.905 184.21 355.926 184.194L368.832 176.604C370.413 175.613 371.37 173.641 371.37 170.826C371.37 164.553 366.627 156.486 360.777 152.809Z" fill="url(#paint41_linear_1_645)"/>
<path d="M347.668 160.585C341.857 156.908 336.985 159.012 336.985 165.285C336.985 169.041 338.864 173.546 341.364 177.261V173.655C341.397 173.325 341.331 172.814 341.557 172.571C341.783 172.326 342.039 172.141 342.366 172.081C341.839 170.828 341.565 169.485 341.557 168.127C341.557 164.532 344.298 163.326 347.628 165.433C350.959 167.542 353.679 172.165 353.679 175.761C353.672 176.567 353.458 177.359 353.056 178.06C353.458 178.691 353.654 179.43 353.618 180.177V185.044C356.536 184.641 358.071 182.379 358.071 178.603C358.071 172.329 353.479 164.262 347.668 160.585Z" fill="#AF59EF"/>
<path d="M336.985 165.285C336.985 159.012 341.857 156.908 347.668 160.585C353.479 164.262 358.071 172.329 358.071 178.603" stroke="url(#paint42_radial_1_645)" stroke-width="0.488106"/>
<g opacity="0.6">
<path d="M103.708 121.204C103.269 121.459 102.999 121.925 102.999 122.43V174.184C102.999 175.193 103.539 176.126 104.416 176.635L120.119 185.738C121.899 186.77 124.1 186.77 125.88 185.738L141.583 176.635C142.46 176.126 143 175.193 143 174.184V122.43C143 121.925 142.73 121.459 142.291 121.204L125.88 111.691C124.1 110.659 121.899 110.659 120.119 111.691L103.708 121.204Z" fill="url(#paint43_linear_1_645)"/>
<path d="M125.893 111.71L142.33 121.287C143.271 121.836 143.271 123.187 142.33 123.735L125.893 133.312C124.108 134.353 121.896 134.353 120.11 133.312L103.673 123.735C102.732 123.187 102.732 121.836 103.673 121.287L120.11 111.71C121.896 110.67 124.108 110.67 125.893 111.71Z" fill="url(#paint44_linear_1_645)"/>
</g>
<g opacity="0.6">
<path d="M475.524 202.553C475.199 202.741 474.999 203.086 474.999 203.459V241.755C474.999 242.502 475.399 243.192 476.048 243.569L487.667 250.304C488.984 251.068 490.613 251.068 491.93 250.304L503.549 243.569C504.198 243.192 504.598 242.502 504.598 241.755V203.459C504.598 203.086 504.398 202.741 504.073 202.553L491.93 195.513C490.613 194.75 488.984 194.75 487.667 195.513L475.524 202.553Z" fill="url(#paint45_linear_1_645)"/>
<path d="M491.939 195.528L504.102 202.614C504.798 203.02 504.798 204.02 504.102 204.425L491.939 211.512C490.618 212.282 488.981 212.282 487.66 211.512L475.498 204.425C474.802 204.02 474.802 203.02 475.498 202.614L487.66 195.528C488.981 194.758 490.618 194.758 491.939 195.528Z" fill="url(#paint46_linear_1_645)"/>
</g>
<g opacity="0.5">
<path d="M178.82 52.8284C178.312 53.1229 177.999 53.6633 177.999 54.2476V114.186C177.999 115.355 178.624 116.435 179.64 117.025L197.826 127.567C199.887 128.762 202.437 128.762 204.498 127.567L222.684 117.025C223.7 116.435 224.325 115.355 224.325 114.186V54.2476C224.325 53.6633 224.012 53.1229 223.504 52.8284L204.498 41.8103C202.437 40.6153 199.887 40.6153 197.826 41.8103L178.82 52.8284Z" fill="url(#paint47_linear_1_645)"/>
<path d="M204.513 41.8196L223.549 52.9116C224.639 53.5465 224.639 55.1113 223.549 55.7463L204.513 66.8382C202.445 68.0431 199.883 68.043 197.815 66.8382L178.779 55.7463C177.69 55.1113 177.69 53.5465 178.779 52.9116L197.815 41.8196C199.883 40.6148 202.445 40.6148 204.513 41.8196Z" fill="url(#paint48_linear_1_645)"/>
</g>
<g opacity="0.6">
<path d="M409.041 102.599C408.418 102.954 408.036 103.604 408.036 104.307V216.446C408.036 217.852 408.801 219.153 410.045 219.862L432.315 232.55C434.84 233.988 437.962 233.988 440.486 232.55L462.756 219.862C464.001 219.153 464.766 217.852 464.766 216.446V104.307C464.766 103.604 464.383 102.954 463.761 102.599L440.486 89.3384C437.962 87.9002 434.84 87.9002 432.315 89.3384L409.041 102.599Z" fill="url(#paint49_linear_1_645)"/>
<path d="M440.501 89.361L463.812 102.711C465.147 103.475 465.147 105.358 463.812 106.122L440.501 119.472C437.969 120.922 434.831 120.922 432.299 119.472L408.988 106.122C407.653 105.358 407.653 103.475 408.988 102.711L432.299 89.361C434.831 87.9109 437.969 87.9109 440.501 89.361Z" fill="url(#paint50_linear_1_645)"/>
<path d="M409.038 102.599C408.416 102.954 408.033 103.604 408.033 104.307V112.316C408.033 113.723 408.798 115.023 410.043 115.732L432.313 128.421C434.837 129.859 437.959 129.859 440.484 128.421L462.754 115.732C463.998 115.023 464.763 113.723 464.763 112.316V104.307C464.763 103.604 464.381 102.954 463.758 102.599L440.484 89.3384C437.959 87.9002 434.837 87.9002 432.313 89.3384L409.038 102.599Z" fill="url(#paint51_linear_1_645)"/>
<path d="M440.502 89.36L463.814 102.71C465.148 103.474 465.148 105.357 463.814 106.121L440.502 119.471C437.97 120.921 434.833 120.921 432.301 119.471L408.989 106.121C407.655 105.357 407.655 103.474 408.989 102.71L432.301 89.36C434.833 87.9099 437.97 87.9099 440.502 89.36Z" fill="url(#paint52_linear_1_645)"/>
<g opacity="0.5">
<path d="M409.037 118.631C408.415 118.986 408.032 119.636 408.032 120.339V128.348C408.032 129.755 408.797 131.056 410.042 131.765L432.312 144.453C434.836 145.891 437.958 145.891 440.483 144.453L462.753 131.765C463.997 131.056 464.762 129.755 464.762 128.348V120.339C464.762 119.636 464.38 118.986 463.757 118.631L440.483 105.371C437.958 103.932 434.836 103.932 432.312 105.371L409.037 118.631Z" fill="url(#paint53_linear_1_645)"/>
<path d="M440.501 105.395L463.813 118.745C465.147 119.509 465.147 121.392 463.813 122.156L440.501 135.506C437.969 136.956 434.832 136.956 432.3 135.506L408.988 122.156C407.654 121.392 407.654 119.509 408.988 118.745L432.3 105.395C434.832 103.945 437.969 103.945 440.501 105.395Z" fill="url(#paint54_linear_1_645)"/>
</g>
</g>
<g opacity="0.6">
<path d="M144.619 158.88C130.681 168.084 130 185.862 130 192L231 131.492V78C228.44 94.0924 225.73 107.377 216.869 112.986C208.007 118.596 202.896 111.762 194.991 118.338C187.087 124.915 185.988 143.295 178.462 151.264C166.806 163.608 154.66 152.25 144.619 158.88Z" fill="url(#paint55_linear_1_645)"/>
<path d="M144.619 158.88C130.681 168.084 130 185.862 130 192L138 197C138 190.862 138.681 173.084 152.619 163.88C156.928 161.035 161.624 161.502 166.503 161.988C172.994 162.633 179.808 163.311 186.462 156.264C190.07 152.443 192.201 146.229 194.313 140.07C196.606 133.383 198.877 126.762 202.991 123.339C207.081 119.935 210.423 120.123 213.924 120.319C217.189 120.503 220.592 120.693 224.869 117.986C233.73 112.377 236.44 99.0924 239 83L231 78C228.44 94.0924 225.73 107.377 216.869 112.986C212.592 115.693 209.189 115.503 205.924 115.319C202.423 115.123 199.081 114.935 194.991 118.339C190.877 121.762 188.606 128.383 186.313 135.07C184.201 141.229 182.07 147.443 178.462 151.264C171.808 158.311 164.994 157.633 158.503 156.988C153.624 156.502 148.928 156.035 144.619 158.88Z" fill="url(#paint56_linear_1_645)"/>
<path d="M152.619 163.88C138.681 173.084 138 190.862 138 197L239 136.492V83C236.44 99.0924 233.73 112.377 224.869 117.986C216.007 123.596 210.896 116.762 202.991 123.338C195.087 129.915 193.988 148.295 186.462 156.264C174.806 168.608 162.66 157.25 152.619 163.88Z" fill="url(#paint57_linear_1_645)"/>
</g>
<path d="M229.088 144.554C228.113 144.243 227.213 143.489 226.425 142.187C225.636 140.886 224.921 139.69 224.267 138.595C219.39 130.435 217.895 127.932 214.421 129.395C210.482 131.054 207.995 135.944 203.974 153.734C201.301 165.557 194.848 167.087 187.407 168.851C183.651 169.742 179.643 170.692 175.743 173.056C164.897 179.63 157 194.766 157 207.585L229.088 164.029V144.554Z" fill="url(#paint58_linear_1_645)"/>
<path d="M237 150.969C235.604 148.221 233.762 145.659 232.18 143.01C227.303 134.85 225.807 132.347 222.333 133.81C218.394 135.469 215.907 140.359 211.886 158.149C209.213 169.972 202.76 171.502 195.319 173.266C191.563 174.157 187.555 175.107 183.655 177.471C172.809 184.045 164.912 199.181 164.912 212L237 168.444V150.969Z" fill="url(#paint59_linear_1_645)"/>
<path d="M157 207.585L164.912 212C164.912 199.181 172.809 184.045 183.655 177.471C187.555 175.107 191.563 174.157 195.319 173.266C202.76 171.502 209.213 169.971 211.886 158.149C215.907 140.359 218.394 135.469 222.333 133.81C223.312 133.397 224.134 133.3 224.918 133.555C224.844 133.507 224.768 133.461 224.692 133.415L217.583 129.395C216.618 128.856 215.642 128.881 214.421 129.395C210.482 131.054 207.995 135.944 203.974 153.734C201.301 165.557 194.848 167.087 187.407 168.851C183.651 169.742 179.643 170.692 175.743 173.056C164.897 179.63 157 194.766 157 207.585Z" fill="url(#paint60_linear_1_645)"/>
</g>
<defs>
<filter id="filter0_d_1_645" x="239.465" y="213.28" width="93.2186" height="63.8878" filterUnits="userSpaceOnUse" color-interpolation-filters="sRGB">
<feFlood flood-opacity="0" result="BackgroundImageFix"/>
<feColorMatrix in="SourceAlpha" type="matrix" values="0 0 0 0 0 0 0 0 0 0 0 0 0 0 0 0 0 0 127 0" result="hardAlpha"/>
<feOffset dy="1.84968"/>
<feGaussianBlur stdDeviation="2.42647"/>
<feColorMatrix type="matrix" values="0 0 0 0 0.248822 0 0 0 0 0.0742535 0 0 0 0 0.379167 0 0 0 0.7 0"/>
<feBlend mode="normal" in2="BackgroundImageFix" result="effect1_dropShadow_1_645"/>
<feBlend mode="normal" in="SourceGraphic" in2="effect1_dropShadow_1_645" result="shape"/>
</filter>
<filter id="filter1_d_1_645" x="257.26" y="74.4788" width="95.2934" height="103.882" filterUnits="userSpaceOnUse" color-interpolation-filters="sRGB">
<feFlood flood-opacity="0" result="BackgroundImageFix"/>
<feColorMatrix in="SourceAlpha" type="matrix" values="0 0 0 0 0 0 0 0 0 0 0 0 0 0 0 0 0 0 127 0" result="hardAlpha"/>
<feOffset dy="-1.11009"/>
<feGaussianBlur stdDeviation="2.22019"/>
<feColorMatrix type="matrix" values="0 0 0 0 0.32549 0 0 0 0 0.105882 0 0 0 0 0.517647 0 0 0 0.5 0"/>
<feBlend mode="normal" in2="BackgroundImageFix" result="effect1_dropShadow_1_645"/>
<feBlend mode="normal" in="SourceGraphic" in2="effect1_dropShadow_1_645" result="shape"/>
</filter>
<linearGradient id="paint0_linear_1_645" x1="523" y1="317" x2="118.102" y2="75.5049" gradientUnits="userSpaceOnUse">
<stop stop-color="#B24BFF" stop-opacity="0.21"/>
<stop offset="1" stop-color="#B655FF" stop-opacity="0"/>
</linearGradient>
<linearGradient id="paint1_linear_1_645" x1="321" y1="285.5" x2="218.228" y2="77.882" gradientUnits="userSpaceOnUse">
<stop stop-color="#B24BFF" stop-opacity="0.21"/>
<stop offset="1" stop-color="#B655FF" stop-opacity="0"/>
</linearGradient>
<linearGradient id="paint2_linear_1_645" x1="269.764" y1="571" x2="269.764" y2="197.5" gradientUnits="userSpaceOnUse">
<stop stop-color="#A039ED"/>
<stop offset="1" stop-color="#9F36EE" stop-opacity="0.07"/>
</linearGradient>
<linearGradient id="paint3_linear_1_645" x1="291.96" y1="356.705" x2="287.5" y2="214.5" gradientUnits="userSpaceOnUse">
<stop stop-color="#A53FF2"/>
<stop offset="1" stop-color="#A843F3" stop-opacity="0"/>
</linearGradient>
<linearGradient id="paint4_linear_1_645" x1="294.5" y1="299.5" x2="294.5" y2="200" gradientUnits="userSpaceOnUse">
<stop stop-color="#C475FF"/>
<stop offset="1" stop-color="#734794" stop-opacity="0.35"/>
</linearGradient>
<linearGradient id="paint5_linear_1_645" x1="294.5" y1="299.5" x2="294.5" y2="200" gradientUnits="userSpaceOnUse">
<stop stop-color="#C475FF"/>
<stop offset="1" stop-color="#734794" stop-opacity="0.35"/>
</linearGradient>
<linearGradient id="paint6_linear_1_645" x1="294.5" y1="299.5" x2="294.5" y2="200" gradientUnits="userSpaceOnUse">
<stop stop-color="#C475FF"/>
<stop offset="1" stop-color="#734794" stop-opacity="0.35"/>
</linearGradient>
<linearGradient id="paint7_linear_1_645" x1="294.5" y1="299.5" x2="294.5" y2="200" gradientUnits="userSpaceOnUse">
<stop stop-color="#C475FF"/>
<stop offset="1" stop-color="#734794" stop-opacity="0.35"/>
</linearGradient>
<linearGradient id="paint8_linear_1_645" x1="294.5" y1="299.5" x2="294.5" y2="200" gradientUnits="userSpaceOnUse">
<stop stop-color="#C475FF"/>
<stop offset="1" stop-color="#734794" stop-opacity="0.35"/>
</linearGradient>
<linearGradient id="paint9_linear_1_645" x1="294.5" y1="299.5" x2="294.5" y2="200" gradientUnits="userSpaceOnUse">
<stop stop-color="#C475FF"/>
<stop offset="1" stop-color="#734794" stop-opacity="0.35"/>
</linearGradient>
<linearGradient id="paint10_linear_1_645" x1="294.5" y1="299.5" x2="294.5" y2="200" gradientUnits="userSpaceOnUse">
<stop stop-color="#C475FF"/>
<stop offset="1" stop-color="#734794" stop-opacity="0.35"/>
</linearGradient>
<linearGradient id="paint11_linear_1_645" x1="294.5" y1="299.5" x2="294.5" y2="200" gradientUnits="userSpaceOnUse">
<stop stop-color="#C475FF"/>
<stop offset="1" stop-color="#734794" stop-opacity="0.35"/>
</linearGradient>
<linearGradient id="paint12_linear_1_645" x1="294.5" y1="299.5" x2="294.5" y2="200" gradientUnits="userSpaceOnUse">
<stop stop-color="#C475FF"/>
<stop offset="1" stop-color="#734794" stop-opacity="0.35"/>
</linearGradient>
<linearGradient id="paint13_linear_1_645" x1="386.252" y1="-11.6188" x2="238.402" y2="157.304" gradientUnits="userSpaceOnUse">
<stop stop-color="#C475FF" stop-opacity="0.85"/>
<stop offset="1" stop-color="#A653E4" stop-opacity="0"/>
</linearGradient>
<linearGradient id="paint14_linear_1_645" x1="383.211" y1="48.7535" x2="301.644" y2="98.7831" gradientUnits="userSpaceOnUse">
<stop stop-color="#C475FF" stop-opacity="0.85"/>
<stop offset="1" stop-color="#A653E4" stop-opacity="0"/>
</linearGradient>
<linearGradient id="paint15_linear_1_645" x1="240.423" y1="-76.0319" x2="351.685" y2="255.469" gradientUnits="userSpaceOnUse">
<stop stop-color="#C475FF" stop-opacity="0.85"/>
<stop offset="1" stop-color="#A653E4" stop-opacity="0"/>
</linearGradient>
<linearGradient id="paint16_linear_1_645" x1="365.667" y1="101.381" x2="20.0166" y2="212.998" gradientUnits="userSpaceOnUse">
<stop stop-color="#C475FF" stop-opacity="0.85"/>
<stop offset="1" stop-color="#A653E4" stop-opacity="0"/>
</linearGradient>
<linearGradient id="paint17_linear_1_645" x1="258.967" y1="115.779" x2="423.052" y2="194.313" gradientUnits="userSpaceOnUse">
<stop stop-color="#24E7A0"/>
<stop offset="1" stop-color="#3EEAAC" stop-opacity="0"/>
</linearGradient>
<linearGradient id="paint18_linear_1_645" x1="258.967" y1="115.779" x2="423.052" y2="194.313" gradientUnits="userSpaceOnUse">
<stop stop-color="#24E7A0"/>
<stop offset="1" stop-color="#3EEAAC" stop-opacity="0"/>
</linearGradient>
<linearGradient id="paint19_linear_1_645" x1="258.967" y1="115.779" x2="423.052" y2="194.313" gradientUnits="userSpaceOnUse">
<stop stop-color="#24E7A0"/>
<stop offset="1" stop-color="#3EEAAC" stop-opacity="0"/>
</linearGradient>
<linearGradient id="paint20_linear_1_645" x1="258.967" y1="115.779" x2="423.052" y2="194.313" gradientUnits="userSpaceOnUse">
<stop stop-color="#24E7A0"/>
<stop offset="1" stop-color="#3EEAAC" stop-opacity="0"/>
</linearGradient>
<linearGradient id="paint21_linear_1_645" x1="258.967" y1="115.779" x2="423.052" y2="194.313" gradientUnits="userSpaceOnUse">
<stop stop-color="#24E7A0"/>
<stop offset="1" stop-color="#3EEAAC" stop-opacity="0"/>
</linearGradient>
<linearGradient id="paint22_linear_1_645" x1="258.967" y1="115.779" x2="423.052" y2="194.313" gradientUnits="userSpaceOnUse">
<stop stop-color="#24E7A0"/>
<stop offset="1" stop-color="#3EEAAC" stop-opacity="0"/>
</linearGradient>
<linearGradient id="paint23_linear_1_645" x1="258.967" y1="115.779" x2="423.052" y2="194.313" gradientUnits="userSpaceOnUse">
<stop stop-color="#24E7A0"/>
<stop offset="1" stop-color="#3EEAAC" stop-opacity="0"/>
</linearGradient>
<linearGradient id="paint24_linear_1_645" x1="258.967" y1="115.779" x2="423.052" y2="194.313" gradientUnits="userSpaceOnUse">
<stop stop-color="#24E7A0"/>
<stop offset="1" stop-color="#3EEAAC" stop-opacity="0"/>
</linearGradient>
<linearGradient id="paint25_linear_1_645" x1="258.967" y1="115.779" x2="423.052" y2="194.313" gradientUnits="userSpaceOnUse">
<stop stop-color="#24E7A0"/>
<stop offset="1" stop-color="#3EEAAC" stop-opacity="0"/>
</linearGradient>
<linearGradient id="paint26_linear_1_645" x1="347.786" y1="161.699" x2="413.618" y2="238.11" gradientUnits="userSpaceOnUse">
<stop stop-color="#460974"/>
<stop offset="0.35" stop-color="#9129DF" stop-opacity="0.81"/>
<stop offset="0.62027" stop-color="#B858FF" stop-opacity="0.78"/>
<stop offset="0.837838" stop-color="#963DD8" stop-opacity="0.63"/>
<stop offset="0.985135" stop-color="#A653E4" stop-opacity="0.2"/>
</linearGradient>
<linearGradient id="paint27_linear_1_645" x1="366.5" y1="186.313" x2="376.5" y2="202.313" gradientUnits="userSpaceOnUse">
<stop stop-color="#6C11AE"/>
<stop offset="0.552527" stop-color="#BC61FF"/>
<stop offset="1" stop-color="#7310BC"/>
</linearGradient>
<linearGradient id="paint28_linear_1_645" x1="331.5" y1="163.312" x2="337.5" y2="177.812" gradientUnits="userSpaceOnUse">
<stop stop-color="#7C1AC5" stop-opacity="0.11"/>
<stop offset="1" stop-color="#7C0FCC"/>
</linearGradient>
<linearGradient id="paint29_linear_1_645" x1="348.5" y1="169" x2="357" y2="189" gradientUnits="userSpaceOnUse">
<stop stop-color="#7511BE"/>
<stop offset="1" stop-color="#6B18A9"/>
</linearGradient>
<linearGradient id="paint30_linear_1_645" x1="364.68" y1="189.573" x2="367.5" y2="209.501" gradientUnits="userSpaceOnUse">
<stop stop-color="#A043E4"/>
<stop offset="1" stop-color="#BB72F0" stop-opacity="0"/>
</linearGradient>
<radialGradient id="paint31_radial_1_645" cx="0" cy="0" r="1" gradientUnits="userSpaceOnUse" gradientTransform="translate(369.53 193.437) rotate(97.4314) scale(11.3215 6.60058)">
<stop stop-color="#C981FF"/>
<stop offset="1" stop-color="#B858FF" stop-opacity="0"/>
</radialGradient>
<linearGradient id="paint32_linear_1_645" x1="328" y1="195.5" x2="396.668" y2="220.368" gradientUnits="userSpaceOnUse">
<stop stop-color="#C06CFF"/>
<stop offset="1" stop-color="#CC8DFC" stop-opacity="0.21"/>
</linearGradient>
<radialGradient id="paint33_radial_1_645" cx="0" cy="0" r="1" gradientUnits="userSpaceOnUse" gradientTransform="translate(378.758 220.826) rotate(104.058) scale(47.5964 16.6372)">
<stop stop-color="#CC88FF" stop-opacity="0.81"/>
<stop offset="1" stop-color="#B858FF" stop-opacity="0"/>
</radialGradient>
<linearGradient id="paint34_linear_1_645" x1="325" y1="176.313" x2="363" y2="268.313" gradientUnits="userSpaceOnUse">
<stop stop-color="#9938E0"/>
<stop offset="1" stop-color="#8F31D3" stop-opacity="0.13"/>
</linearGradient>
<radialGradient id="paint35_radial_1_645" cx="0" cy="0" r="1" gradientUnits="userSpaceOnUse" gradientTransform="translate(329.646 187.176) rotate(62.5924) scale(82.2457 234.798)">
<stop offset="0.0154028" stop-color="#B858FF" stop-opacity="0.2"/>
<stop offset="0.169266" stop-color="#D091FF"/>
<stop offset="0.801883" stop-color="#BB60FF" stop-opacity="0"/>
</radialGradient>
<linearGradient id="paint36_linear_1_645" x1="304.611" y1="151.949" x2="312.16" y2="263.141" gradientUnits="userSpaceOnUse">
<stop stop-color="#A13FEA" stop-opacity="0.13"/>
<stop offset="1" stop-color="#5A1091"/>
</linearGradient>
<linearGradient id="paint37_linear_1_645" x1="304.612" y1="151.948" x2="312.16" y2="263.141" gradientUnits="userSpaceOnUse">
<stop stop-color="#AC4BF3" stop-opacity="0.13"/>
<stop offset="1" stop-color="#6E12B3" stop-opacity="0.6"/>
</linearGradient>
<linearGradient id="paint38_linear_1_645" x1="304.612" y1="151.949" x2="312.16" y2="263.141" gradientUnits="userSpaceOnUse">
<stop stop-color="#B858FF" stop-opacity="0.13"/>
<stop offset="1" stop-color="#5C0F95"/>
</linearGradient>
<linearGradient id="paint39_linear_1_645" x1="334.385" y1="189.531" x2="370.966" y2="250.074" gradientUnits="userSpaceOnUse">
<stop stop-color="#C577FF"/>
<stop offset="0.557069" stop-color="#BF68FF"/>
<stop offset="1" stop-color="#8C4ABC"/>
</linearGradient>
<linearGradient id="paint40_linear_1_645" x1="329.646" y1="190.782" x2="357.121" y2="230.457" gradientUnits="userSpaceOnUse">
<stop stop-color="#D7A3FD" stop-opacity="0"/>
<stop offset="0.596293" stop-color="#D197FC"/>
<stop offset="1" stop-color="#D59BFF" stop-opacity="0"/>
</linearGradient>
<linearGradient id="paint41_linear_1_645" x1="345.5" y1="151.312" x2="363.5" y2="178.812" gradientUnits="userSpaceOnUse">
<stop stop-color="#5D0B9A" stop-opacity="0.87"/>
<stop offset="0.534724" stop-color="#B146FF"/>
<stop offset="1" stop-color="#5C1094" stop-opacity="0.72"/>
</linearGradient>
<radialGradient id="paint42_radial_1_645" cx="0" cy="0" r="1" gradientUnits="userSpaceOnUse" gradientTransform="translate(352.934 165.127) rotate(129.472) scale(10.7494 11.4318)">
<stop stop-color="#C16CFF"/>
<stop offset="1" stop-color="#C576FF" stop-opacity="0"/>
</radialGradient>
<linearGradient id="paint43_linear_1_645" x1="130.843" y1="116.059" x2="130.418" y2="167.858" gradientUnits="userSpaceOnUse">
<stop stop-color="#B654FF" stop-opacity="0.4"/>
<stop offset="1" stop-color="#A653E4" stop-opacity="0"/>
</linearGradient>
<linearGradient id="paint44_linear_1_645" x1="123.645" y1="142.995" x2="123.747" y2="115.48" gradientUnits="userSpaceOnUse">
<stop stop-color="#C67AFF" stop-opacity="0.52"/>
<stop offset="1" stop-color="#A653E4" stop-opacity="0"/>
</linearGradient>
<linearGradient id="paint45_linear_1_645" x1="495.602" y1="198.745" x2="495.288" y2="237.074" gradientUnits="userSpaceOnUse">
<stop stop-color="#B654FF" stop-opacity="0.4"/>
<stop offset="1" stop-color="#A653E4" stop-opacity="0"/>
</linearGradient>
<linearGradient id="paint46_linear_1_645" x1="490.276" y1="218.677" x2="490.351" y2="198.318" gradientUnits="userSpaceOnUse">
<stop stop-color="#C67AFF" stop-opacity="0.52"/>
<stop offset="1" stop-color="#A653E4" stop-opacity="0"/>
</linearGradient>
<linearGradient id="paint47_linear_1_645" x1="210.245" y1="46.8689" x2="209.753" y2="106.859" gradientUnits="userSpaceOnUse">
<stop stop-color="#B654FF" stop-opacity="0.4"/>
<stop offset="1" stop-color="#A653E4" stop-opacity="0"/>
</linearGradient>
<linearGradient id="paint48_linear_1_645" x1="201.909" y1="78.0521" x2="202.027" y2="46.1865" gradientUnits="userSpaceOnUse">
<stop stop-color="#C67AFF" stop-opacity="0.52"/>
<stop offset="1" stop-color="#A653E4" stop-opacity="0"/>
</linearGradient>
<linearGradient id="paint49_linear_1_645" x1="447.524" y1="95.4267" x2="446.88" y2="175.309" gradientUnits="userSpaceOnUse">
<stop stop-color="#B654FF" stop-opacity="0.4"/>
<stop offset="1" stop-color="#A653E4" stop-opacity="0"/>
</linearGradient>
<linearGradient id="paint50_linear_1_645" x1="437.008" y1="126.601" x2="437.117" y2="88.3701" gradientUnits="userSpaceOnUse">
<stop stop-color="#C67AFF" stop-opacity="0.52"/>
<stop offset="0.317434" stop-color="#B662F4" stop-opacity="0.52"/>
<stop offset="1" stop-color="#A653E4" stop-opacity="0"/>
</linearGradient>
<linearGradient id="paint51_linear_1_645" x1="447.522" y1="95.4267" x2="446.94" y2="167.628" gradientUnits="userSpaceOnUse">
<stop stop-color="#B654FF" stop-opacity="0.4"/>
<stop offset="1" stop-color="#A653E4" stop-opacity="0"/>
</linearGradient>
<linearGradient id="paint52_linear_1_645" x1="437.009" y1="126.6" x2="437.119" y2="88.3691" gradientUnits="userSpaceOnUse">
<stop stop-color="#C67AFF" stop-opacity="0.52"/>
<stop offset="0.317434" stop-color="#B662F4" stop-opacity="0.52"/>
<stop offset="1" stop-color="#A653E4" stop-opacity="0"/>
</linearGradient>
<linearGradient id="paint53_linear_1_645" x1="447.521" y1="129.067" x2="446.84" y2="213.539" gradientUnits="userSpaceOnUse">
<stop stop-color="#B654FF" stop-opacity="0.4"/>
<stop offset="1" stop-color="#A653E4" stop-opacity="0"/>
</linearGradient>
<linearGradient id="paint54_linear_1_645" x1="435.784" y1="144.485" x2="435.865" y2="116.12" gradientUnits="userSpaceOnUse">
<stop stop-color="#C67AFF" stop-opacity="0.52"/>
<stop offset="1" stop-color="#A653E4" stop-opacity="0"/>
</linearGradient>
<linearGradient id="paint55_linear_1_645" x1="4753.96" y1="-10839.6" x2="11497.9" y2="-7632.95" gradientUnits="userSpaceOnUse">
<stop stop-color="#8153E4" stop-opacity="0.38"/>
<stop offset="1" stop-color="#A653E4" stop-opacity="0"/>
</linearGradient>
<linearGradient id="paint56_linear_1_645" x1="228.5" y1="82" x2="98.5" y2="227.5" gradientUnits="userSpaceOnUse">
<stop stop-color="#5E39AD"/>
<stop offset="1" stop-color="#8153E4" stop-opacity="0"/>
</linearGradient>
<linearGradient id="paint57_linear_1_645" x1="239" y1="89.5" x2="77" y2="318.5" gradientUnits="userSpaceOnUse">
<stop stop-color="#8153E4"/>
<stop offset="1" stop-color="#8153E4" stop-opacity="0"/>
</linearGradient>
<linearGradient id="paint58_linear_1_645" x1="214.781" y1="143.706" x2="233.4" y2="177.073" gradientUnits="userSpaceOnUse">
<stop stop-color="#3FAD85" stop-opacity="0.44"/>
<stop offset="1" stop-color="#3FC594" stop-opacity="0"/>
</linearGradient>
<linearGradient id="paint59_linear_1_645" x1="237" y1="137.896" x2="150.722" y2="312.33" gradientUnits="userSpaceOnUse">
<stop stop-color="#2CC08A"/>
<stop offset="1" stop-color="#149264" stop-opacity="0"/>
</linearGradient>
<linearGradient id="paint60_linear_1_645" x1="218.376" y1="131.79" x2="144.088" y2="211.159" gradientUnits="userSpaceOnUse">
<stop stop-color="#4ACC9D"/>
<stop offset="1" stop-color="#37E0A3" stop-opacity="0.35"/>
</linearGradient>
<clipPath id="clip0_1_645">
<rect width="121" height="183.165" fill="white" transform="matrix(-1 0 0 1 371 34.3223)"/>
</clipPath>
</defs>
</svg>
