<svg width="96" height="24" viewBox="0 0 96 24" fill="none" xmlns="http://www.w3.org/2000/svg">
<path d="M55.0276 5.80922H51.8164L46.0318 18.8561L40.2474 5.80922H37.0363L44.907 23.5575H47.1569L55.0276 5.80922Z" fill="white"/>
<path d="M14.9778 0V7.80159C13.7044 6.56818 12.115 5.75034 10.4045 5.44818C8.69393 5.14602 6.93635 5.37265 5.3469 6.10032C3.75746 6.828 2.40513 8.02515 1.45546 9.54521C0.505794 11.0653 0 12.8423 0 14.6587C0 16.4751 0.505794 18.2522 1.45546 19.7722C2.40513 21.2923 3.75746 22.4894 5.3469 23.2171C6.93635 23.9448 8.69393 24.1714 10.4045 23.8693C12.115 23.5671 13.7044 22.7493 14.9778 21.5159V23.5576H17.8892V0H14.9778ZM8.96961 20.9508C7.78118 20.951 6.61939 20.5821 5.63118 19.8908C4.64297 19.1995 3.87272 18.217 3.41783 17.0673C2.96293 15.9177 2.84383 14.6526 3.07559 13.4321C3.30734 12.2116 3.87954 11.0904 4.71982 10.2104C5.5601 9.33043 6.63073 8.7311 7.79631 8.48823C8.96189 8.24536 10.1701 8.36987 11.2681 8.84599C12.3661 9.32212 13.3046 10.1285 13.9649 11.1631C14.6253 12.1978 14.9778 13.4142 14.9778 14.6586C14.976 16.3267 14.3425 17.9258 13.2161 19.1054C12.0898 20.285 10.5626 20.9487 8.96961 20.9508Z" fill="white"/>
<path d="M69.1726 5.80907V7.80248C67.8991 6.56883 66.3098 5.75076 64.5992 5.4484C62.8886 5.14605 61.1309 5.37254 59.5413 6.10015C57.9517 6.82776 56.5993 8.02491 55.6495 9.54503C54.6997 11.0651 54.1939 12.8423 54.1939 14.6588C54.1939 16.4753 54.6997 18.2524 55.6495 19.7726C56.5993 21.2927 57.9517 22.4898 59.5413 23.2174C61.1309 23.945 62.8886 24.1715 64.5992 23.8692C66.3098 23.5668 67.8991 22.7488 69.1726 21.5151V23.5577H72.084V5.80907H69.1726ZM63.1624 20.9508C61.974 20.9506 60.8124 20.5813 59.8245 19.8898C58.8365 19.1983 58.0666 18.2156 57.612 17.0659C57.1574 15.9162 57.0386 14.6512 57.2705 13.4309C57.5025 12.2105 58.0749 11.0895 58.9152 10.2097C59.7556 9.32992 60.8262 8.73079 61.9917 8.48808C63.1573 8.24538 64.3654 8.37 65.4632 8.84619C66.5611 9.32238 67.4995 10.1287 68.1598 11.1633C68.82 12.1979 69.1725 13.4143 69.1726 14.6586C69.1708 16.327 68.537 17.9266 67.4102 19.1062C66.2835 20.2859 64.7558 20.9493 63.1624 20.9508Z" fill="white"/>
<path d="M83.6533 5.79317C81.4235 5.79935 79.2779 6.68598 77.645 8.27604V5.80907H74.7337V23.5577H77.645V15.133C77.6467 13.465 78.2803 11.8658 79.4067 10.6864C80.5332 9.50697 82.0604 8.84356 83.6533 8.84173H84.7072V5.79317H83.6533Z" fill="white"/>
<path d="M89.9915 14.2526V8.84184H95.998V5.79317H89.9915V0H87.0804V14.2526C87.0829 16.7289 88.0235 19.1029 89.6957 20.8539C91.3679 22.6049 93.6351 23.5898 96 23.5925V20.544C94.407 20.5422 92.8798 19.8787 91.7533 18.6993C90.6269 17.5198 89.9933 15.9207 89.9915 14.2526Z" fill="white"/>
<path d="M37.7395 14.6586C37.7661 12.335 36.9746 10.0825 35.516 8.33117C34.0574 6.57981 32.0339 5.45225 29.8318 5.16373C27.6297 4.8752 25.4033 5.44594 23.5775 6.76698C21.7518 8.08801 20.4546 10.0668 19.9336 12.3256C19.4126 14.5845 19.7043 16.9651 20.753 19.013C21.8017 21.061 23.5339 22.6328 25.619 23.4285C27.7041 24.2242 29.996 24.1879 32.0572 23.3267C34.1184 22.4654 35.8045 20.8395 36.7937 18.7593H33.3385C32.6237 19.6345 31.6923 20.2862 30.6466 20.6429C29.601 20.9996 28.4816 21.0475 27.4117 20.7811C26.3418 20.5148 25.3627 19.9447 24.5822 19.1334C23.8017 18.3221 23.25 17.3012 22.9878 16.1829L22.9803 16H37.7395V14.6586ZM22.9878 13.1344C23.3129 11.7727 24.0634 10.5639 25.12 9.70015C26.1765 8.83639 27.4785 8.36721 28.8189 8.36721C30.1593 8.36721 31.4613 8.83639 32.5179 9.70015C33.5744 10.5639 34.3249 11.7727 34.65 13.1344H22.9878Z" fill="white"/>
</svg>
